<svg xmlns="http://www.w3.org/2000/svg" width="283" height="282" viewBox="0 0 283 282" fill="none"><path d="M118.521 269.235L115.7 281.458L113.85 281.031L115.059 275.793L109.14 274.427L107.931 279.664L106.08 279.238L108.901 267.016L110.752 267.443L109.49 272.908L115.409 274.273L116.671 268.809L118.521 269.235ZM106.454 266.317L103.027 278.382L101.201 277.864L104.627 265.798L106.454 266.317ZM102.189 265.071L98.1682 276.952L94.0776 275.568C93.1386 275.25 92.4198 274.831 91.9212 274.308C91.4227 273.787 91.1176 273.208 91.0052 272.57C90.8928 271.934 90.9472 271.287 91.1693 270.63C91.4181 269.894 91.8392 269.293 92.4327 268.825C93.0261 268.358 93.78 268.133 94.6941 268.153L93.8712 262.256L95.9584 262.963L96.6477 268.53L98.7691 269.248L100.388 264.462L102.187 265.071H102.189ZM98.3111 270.607L96.1215 269.866C95.3069 269.59 94.6425 269.586 94.1301 269.854C93.6168 270.122 93.2528 270.573 93.039 271.207C92.8243 271.841 92.84 272.41 93.0851 272.915C93.3303 273.42 93.8721 273.815 94.7089 274.098L96.8818 274.834L98.312 270.608L98.3111 270.607ZM91.9351 261.391L86.768 272.82L79.5027 269.535L80.1377 268.13L85.6724 270.633L87.2814 267.073L82.236 264.793L82.8562 263.421L87.9015 265.702L89.5704 262.012L84.0357 259.51L84.6707 258.105L91.936 261.39L91.9351 261.391ZM74.7108 252.429C75.4877 252.876 76.1014 253.432 76.552 254.097C77.0026 254.764 77.2303 255.518 77.2349 256.361C77.2395 257.204 76.9621 258.112 76.4018 259.086L72.4992 265.875L70.8524 264.927L74.7643 258.124C75.3117 257.171 75.4858 256.341 75.2868 255.634C75.0868 254.927 74.5993 254.35 73.8224 253.903C73.0557 253.463 72.3176 253.334 71.6053 253.517C70.8938 253.7 70.2635 254.269 69.7161 255.221L65.8043 262.024L64.1575 261.077L68.0602 254.288C68.6195 253.315 69.2702 252.621 70.012 252.207C70.7529 251.792 71.5297 251.615 72.3425 251.676C73.1543 251.737 73.9441 251.988 74.7108 252.429ZM65.2265 246.124C65.9757 246.656 66.5397 247.255 66.9175 247.92C67.2953 248.584 67.4695 249.271 67.44 249.984C67.4105 250.695 67.1617 251.39 66.6935 252.069L65.0578 250.906C65.4357 250.354 65.5748 249.757 65.4753 249.114C65.3748 248.471 64.9897 247.911 64.3179 247.433C63.7244 247.011 63.1567 246.824 62.6167 246.872C62.0767 246.92 61.6472 247.168 61.3284 247.615C61.0722 247.976 60.9451 248.325 60.946 248.663C60.9478 249.001 61.0344 249.342 61.2086 249.685C61.3819 250.028 61.6076 250.386 61.8841 250.76C62.1615 251.133 62.4509 251.529 62.7531 251.949C63.3549 252.773 63.7032 253.534 63.8009 254.233C63.8976 254.931 63.7032 255.622 63.2194 256.304C62.8204 256.885 62.3301 257.291 61.7486 257.522C61.1671 257.753 60.5396 257.809 59.8687 257.691C59.1978 257.573 58.5261 257.275 57.8543 256.798C57.1926 256.327 56.6977 255.791 56.3688 255.191C56.0407 254.591 55.8896 253.975 55.9154 253.341C55.9412 252.707 56.1531 252.1 56.5522 251.518L58.1879 252.681C58.0008 252.944 57.8911 253.243 57.857 253.579C57.8238 253.914 57.8828 254.253 58.0349 254.596C58.1869 254.939 58.4533 255.245 58.8329 255.515C59.3121 255.871 59.8005 256.034 60.2972 256.006C60.7939 255.978 61.2013 255.74 61.5192 255.292C61.803 254.893 61.9044 254.503 61.8233 254.122C61.7422 253.742 61.5468 253.335 61.2381 252.904C60.9294 252.472 60.5783 251.977 60.1839 251.418C59.795 250.892 59.4845 250.371 59.2513 249.854C59.0191 249.336 58.9177 248.802 58.949 248.253C58.9804 247.704 59.2034 247.137 59.619 246.554C59.9858 246.038 60.4585 245.652 61.0363 245.396C61.6141 245.139 62.2647 245.059 62.9871 245.156C63.7105 245.253 64.4561 245.574 65.2255 246.121L65.2265 246.124ZM35.2566 216.249L24.6978 223.019L23.6721 221.42L28.1978 218.519L24.9199 213.406L20.3943 216.307L19.3695 214.708L29.9284 207.938L30.9531 209.537L26.2312 212.564L29.51 217.678L34.2319 214.651L35.2566 216.249ZM28.6907 205.713L17.8167 211.964L16.8694 210.318L27.7434 204.066L28.6907 205.713ZM26.5381 201.827L15.3738 207.545L13.4054 203.701C12.953 202.819 12.7308 202.017 12.7364 201.295C12.7428 200.573 12.9271 199.946 13.2911 199.41C13.6542 198.875 14.1445 198.449 14.761 198.134C15.4521 197.78 16.1737 197.642 16.9247 197.72C17.6758 197.799 18.3724 198.164 19.0147 198.814L22.534 194.012L23.5394 195.974L20.1528 200.447L21.1739 202.44L25.6718 200.137L26.5372 201.828L26.5381 201.827ZM19.8994 203.093L18.8452 201.035C18.4535 200.269 17.9798 199.804 17.4251 199.638C16.8703 199.472 16.2953 199.542 15.7 199.847C15.1047 200.152 14.7186 200.571 14.5426 201.104C14.3656 201.638 14.479 202.298 14.8826 203.085L15.9285 205.126L19.8994 203.093ZM21.8263 192.006L10.157 196.606L7.2321 189.188L8.666 188.623L10.8943 194.275L14.5288 192.842L12.4977 187.691L13.8984 187.139L15.9294 192.29L19.6967 190.804L17.4684 185.154L18.9023 184.589L21.8272 192.007L21.8263 192.006ZM15.8078 173.558C16.0096 174.432 16.0198 175.259 15.8391 176.042C15.6576 176.826 15.2604 177.506 14.6458 178.084C14.0311 178.661 13.1769 179.075 12.083 179.328L4.45276 181.089L4.02611 179.238L11.6729 177.474C12.7437 177.226 13.4708 176.789 13.8533 176.161C14.2348 175.534 14.326 174.784 14.1242 173.91C13.9251 173.048 13.5169 172.42 12.8976 172.023C12.2793 171.626 11.4343 171.552 10.3634 171.799L2.71662 173.564L2.28902 171.713L9.91928 169.952C11.0131 169.7 11.9651 169.704 12.7723 169.965C13.5796 170.226 14.2384 170.675 14.7471 171.311C15.2558 171.948 15.6088 172.697 15.8078 173.558ZM13.4892 162.396C13.6514 163.302 13.6339 164.123 13.4376 164.862C13.2414 165.602 12.8847 166.214 12.3641 166.702C11.8443 167.188 11.1799 167.511 10.3708 167.668L10.0179 165.692C10.674 165.562 11.1919 165.233 11.5706 164.705C11.9494 164.176 12.0664 163.506 11.9218 162.695C11.7937 161.977 11.52 161.447 11.1007 161.103C10.6814 160.759 10.2013 160.635 9.66033 160.732C9.22537 160.811 8.88994 160.97 8.65403 161.212C8.41812 161.455 8.24209 161.759 8.12505 162.126C8.00802 162.492 7.91866 162.905 7.85507 163.366C7.79149 163.827 7.72053 164.312 7.6422 164.824C7.49475 165.833 7.2109 166.621 6.79068 167.188C6.36955 167.754 5.74844 168.111 4.92459 168.257C4.23345 168.393 3.59853 168.339 3.02165 168.097C2.44386 167.855 1.95728 167.456 1.56103 166.902C1.16477 166.348 0.893836 165.664 0.749157 164.853C0.60632 164.053 0.628455 163.324 0.813682 162.666C0.99983 162.009 1.32327 161.462 1.78587 161.028C2.24848 160.593 2.82536 160.308 3.51742 160.173L3.87038 162.149C3.55337 162.206 3.26494 162.341 3.00599 162.558C2.74705 162.773 2.55167 163.057 2.42082 163.408C2.28904 163.759 2.26507 164.164 2.34617 164.623C2.43924 165.213 2.6733 165.672 3.04744 166C3.42158 166.327 3.87867 166.443 4.4196 166.346C4.90156 166.26 5.24715 166.053 5.45542 165.725C5.66368 165.397 5.80928 164.97 5.8913 164.446C5.97331 163.922 6.07006 163.322 6.17972 162.647C6.27003 162 6.41378 161.41 6.61007 160.878C6.80635 160.345 7.1086 159.894 7.51499 159.524C7.92231 159.154 8.47894 158.907 9.18391 158.78C9.80778 158.67 10.415 158.724 11.0067 158.946C11.5983 159.168 12.119 159.566 12.5668 160.142C13.0156 160.717 13.3225 161.469 13.4883 162.398L13.4892 162.396ZM13.2478 120.104L0.9003 117.899L1.2339 116.029L6.5253 116.974L7.59333 110.994L2.30194 110.049L2.63554 108.179L14.983 110.384L14.6485 112.254L9.12766 111.267L8.05963 117.247L13.5814 118.233L13.2469 120.103L13.2478 120.104ZM15.8235 107.962L3.75793 104.536L4.27678 102.709L16.3423 106.135L15.8235 107.962ZM16.9809 103.67L5.09968 99.6498L6.48381 95.5591C6.80174 94.6201 7.22102 93.9013 7.74353 93.4028C8.26511 92.9042 8.84384 92.5992 9.48061 92.4868C10.1174 92.3744 10.7643 92.4287 11.4214 92.6517C12.1567 92.9006 12.7585 93.3217 13.2266 93.9151C13.6938 94.5086 13.9178 95.2624 13.8984 96.1766L19.7953 95.3536L19.0885 97.4409L13.5206 98.1293L12.8027 100.251L17.5891 101.87L16.98 103.669L16.9809 103.67ZM11.4453 99.7917L12.1862 97.6021C12.4618 96.7875 12.4664 96.124 12.1982 95.6107C11.93 95.0975 11.4794 94.7335 10.8463 94.5197C10.2123 94.305 9.64283 94.3206 9.13783 94.5658C8.63283 94.8109 8.23839 95.3518 7.95456 96.1894L7.21918 98.3615L11.4453 99.7917ZM20.4919 93.3493L9.06318 88.1823L12.3484 80.917L13.7528 81.5519L11.25 87.0866L14.8098 88.6956L17.0906 83.6503L18.4627 84.2704L16.181 89.3158L19.8708 90.9847L22.3737 85.45L23.7781 86.0849L20.4928 93.3503L20.4919 93.3493ZM29.2953 76.044C28.8483 76.8208 28.2917 77.4346 27.6264 77.8852C26.9601 78.3358 26.2063 78.5634 25.3631 78.5681C24.5199 78.5727 23.6122 78.2953 22.6382 77.735L15.8493 73.8323L16.7966 72.1855L23.6002 76.0974C24.5531 76.6448 25.3834 76.819 26.0902 76.6199C26.797 76.42 27.3739 75.9325 27.8208 75.1556C28.2613 74.3889 28.3903 73.6508 28.2069 72.9385C28.0235 72.2271 27.455 71.5967 26.5031 71.0493L19.6994 67.1375L20.6467 65.4907L27.4356 69.3933C28.4088 69.9527 29.1027 70.6033 29.5174 71.3452C29.932 72.0861 30.109 72.8629 30.0481 73.6757C29.9873 74.4876 29.7357 75.2773 29.2953 76.044ZM35.4511 66.4638C34.9184 67.213 34.3194 67.777 33.655 68.1548C32.9906 68.5326 32.3022 68.7068 31.5908 68.6773C30.8794 68.6478 30.1846 68.399 29.5054 67.9309L30.6683 66.2952C31.2203 66.673 31.8184 66.8122 32.4607 66.7126C33.1039 66.6122 33.6642 66.2261 34.1416 65.5552C34.5637 64.9617 34.7507 64.3941 34.7028 63.8541C34.6549 63.3141 34.406 62.8846 33.9582 62.5667C33.5979 62.3105 33.2486 62.1833 32.9104 62.1842C32.5722 62.1861 32.2313 62.2727 31.8884 62.4469C31.5456 62.6201 31.1871 62.8459 30.8139 63.1233C30.4407 63.3997 30.0445 63.69 29.6243 63.9923C28.8004 64.5941 28.0392 64.9433 27.3407 65.0401C26.6413 65.1368 25.952 64.9424 25.2701 64.4586C24.6895 64.0605 24.2831 63.5693 24.0518 62.9878C23.8205 62.4064 23.7643 61.7797 23.8822 61.1088C24.0002 60.438 24.2987 59.7662 24.7761 59.0944C25.247 58.4318 25.7824 57.9369 26.3823 57.6089C26.9822 57.2808 27.5987 57.1297 28.2328 57.1546C28.8668 57.1804 29.474 57.3923 30.0555 57.7913L28.8925 59.4271C28.6299 59.24 28.3304 59.1303 27.995 59.0971C27.6596 59.064 27.3204 59.123 26.9776 59.275C26.6348 59.4271 26.3289 59.6924 26.0588 60.073C25.7031 60.5522 25.5391 61.0406 25.5677 61.5373C25.5963 62.034 25.834 62.4414 26.2819 62.7593C26.6809 63.0431 27.0707 63.1445 27.4513 63.0634C27.8319 62.9823 28.2383 62.7869 28.6695 62.4782C29.1017 62.1695 29.5966 61.8184 30.156 61.4249C30.6813 61.036 31.2028 60.7255 31.7198 60.4923C32.2377 60.2601 32.7713 60.1587 33.3205 60.1901C33.8697 60.2214 34.4364 60.4453 35.0207 60.861C35.5367 61.2277 35.9229 61.7004 36.1791 62.2773C36.4353 62.8551 36.5154 63.5057 36.4187 64.2291C36.3219 64.9525 36.0012 65.698 35.4538 66.4675L35.4511 66.4638ZM64.8404 35.9862L58.0708 25.4273L59.6697 24.4017L62.5707 28.9273L67.6842 25.6495L64.7832 21.1239L66.3821 20.0991L73.1516 30.658L71.5527 31.6827L68.5255 26.9608L63.412 30.2396L66.4392 34.9614L64.8404 35.9862ZM75.331 29.3438L69.0794 18.4698L70.7262 17.5225L76.9778 28.3965L75.331 29.3438ZM79.1738 27.1119L73.4557 15.9476L77.2994 13.9792C78.1813 13.5268 78.984 13.3047 79.7055 13.3102C80.4271 13.3167 81.0546 13.501 81.59 13.865C82.1254 14.2281 82.5512 14.7183 82.8663 15.3348C83.2202 16.0259 83.3584 16.7475 83.2801 17.4985C83.2018 18.2496 82.8368 18.9463 82.1862 19.5886L86.9883 23.1079L85.0264 24.1133L80.5533 20.7267L78.56 21.7477L80.8638 26.2457L79.1728 27.111L79.1738 27.1119ZM77.9076 20.4732L79.9654 19.419C80.7311 19.0274 81.1965 18.5537 81.3624 17.9989C81.5283 17.4442 81.4582 16.8691 81.1532 16.2738C80.8482 15.6785 80.4298 15.2924 79.8962 15.1164C79.3627 14.9395 78.7028 15.0528 77.9159 15.4565L75.8747 16.5024L77.9076 20.4732ZM88.9198 22.2361L84.3196 10.5668L91.7378 7.6419L92.3027 9.0758L86.651 11.3041L88.084 14.9386L93.2353 12.9075L93.7873 14.3083L88.636 16.3393L90.1215 20.1065L95.7723 17.8782L96.3372 19.3121L88.9189 22.237L88.9198 22.2361ZM107.319 16.0398C106.457 16.284 105.63 16.3356 104.839 16.1946C104.048 16.0527 103.348 15.6896 102.742 15.1044C102.135 14.5192 101.678 13.6871 101.371 12.6062L99.2326 5.0736L101.06 4.55479L103.203 12.1049C103.504 13.1619 103.977 13.8659 104.623 14.2161C105.269 14.5663 106.022 14.6197 106.884 14.3746C107.735 14.1331 108.342 13.6936 108.708 13.0559C109.073 12.4182 109.105 11.5704 108.805 10.5134L106.662 2.96332L108.489 2.44451L110.628 9.97708C110.935 11.0571 110.978 12.0072 110.758 12.8273C110.538 13.6475 110.122 14.3276 109.512 14.8667C108.901 15.4057 108.171 15.7965 107.321 16.0389L107.319 16.0398ZM118.43 13.547C117.524 13.7092 116.703 13.6917 115.964 13.4954C115.225 13.2992 114.612 12.9425 114.124 12.4219C113.638 11.9021 113.315 11.2377 113.159 10.4286L115.134 10.0757C115.264 10.7318 115.593 11.2497 116.121 11.6284C116.65 12.0072 117.32 12.1242 118.131 11.9796C118.849 11.8515 119.379 11.5778 119.724 11.1585C120.067 10.7392 120.191 10.2591 120.094 9.71813C120.016 9.28317 119.856 8.94774 119.614 8.71183C119.372 8.47592 119.068 8.29988 118.701 8.18285C118.334 8.06582 117.921 7.97641 117.46 7.91283C117 7.84924 116.514 7.77828 116.003 7.69995C114.993 7.55251 114.206 7.2687 113.639 6.84848C113.072 6.42735 112.715 5.80624 112.569 4.98239C112.433 4.29125 112.487 3.65633 112.729 3.07945C112.972 2.50166 113.371 2.01508 113.924 1.61883C114.478 1.22257 115.162 0.951636 115.973 0.806957C116.773 0.66412 117.502 0.686255 118.16 0.871481C118.818 1.05763 119.364 1.38107 119.798 1.84367C120.233 2.30628 120.518 2.88316 120.653 3.57522L118.678 3.92817C118.621 3.61117 118.485 3.32274 118.269 3.06379C118.053 2.80485 117.769 2.60947 117.418 2.47862C117.067 2.34684 116.662 2.32287 116.203 2.40397C115.614 2.49704 115.155 2.7311 114.827 3.10524C114.5 3.47938 114.383 3.93646 114.48 4.4774C114.566 4.95936 114.773 5.30491 115.101 5.51317C115.429 5.72144 115.856 5.86704 116.38 5.94905C116.905 6.03107 117.505 6.12786 118.179 6.23752C118.826 6.32783 119.417 6.47158 119.949 6.66787C120.481 6.86415 120.933 7.1664 121.302 7.57279C121.673 7.9801 121.92 8.53674 122.046 9.24171C122.156 9.86558 122.102 10.4728 121.88 11.0645C121.658 11.6561 121.26 12.1768 120.684 12.6246C120.109 13.0734 119.357 13.3803 118.428 13.5461L118.43 13.547ZM160.722 12.6578L162.928 0.310242L164.797 0.643845L163.853 5.93524L169.833 7.00332L170.777 1.71188L172.647 2.04548L170.443 14.393L168.573 14.0585L169.559 8.53765L163.579 7.46957L162.593 12.9914L160.723 12.6568L160.722 12.6578ZM172.893 15.1054L175.714 2.88318L177.564 3.30983L174.743 15.532L172.893 15.1054ZM177.226 16.1246L181.247 4.24333L185.337 5.62746C186.276 5.94539 186.995 6.36468 187.494 6.88718C187.992 7.40876 188.297 7.98749 188.41 8.62427C188.522 9.26104 188.468 9.90796 188.245 10.565C187.996 11.3004 187.575 11.9021 186.981 12.3703C186.388 12.8375 185.634 13.0614 184.72 13.0421L185.543 18.9389L183.455 18.2321L182.767 12.6642L180.646 11.9463L179.027 16.7327L177.228 16.1236L177.226 16.1246ZM181.105 10.5889L183.294 11.3299C184.109 11.6054 184.772 11.61 185.286 11.3418C185.799 11.0737 186.163 10.623 186.377 9.98995C186.591 9.35594 186.576 8.78643 186.331 8.28144C186.085 7.77644 185.545 7.38204 184.707 7.09821L182.535 6.36284L181.105 10.5889ZM187.521 19.6863L192.121 8.01789L199.54 10.9419L198.975 12.3758L193.324 10.1485L191.891 13.782L197.042 15.8131L196.49 17.2129L191.339 15.1819L189.854 18.949L195.505 21.1773L194.94 22.6112L187.521 19.6863ZM205.001 28.1108C204.224 27.6639 203.61 27.1073 203.16 26.442C202.709 25.7757 202.481 25.0219 202.477 24.1787C202.472 23.3355 202.749 22.4278 203.31 21.4537L207.212 14.6648L208.859 15.6122L204.947 22.4158C204.4 23.3687 204.226 24.199 204.425 24.9058C204.625 25.6126 205.112 26.1895 205.889 26.6364C206.656 27.0769 207.394 27.2059 208.106 27.0225C208.818 26.8391 209.448 26.2706 209.995 25.3186L213.907 18.515L215.554 19.4623L211.651 26.2512C211.092 27.2243 210.441 27.9183 209.7 28.3329C208.959 28.7476 208.182 28.9245 207.369 28.8637C206.557 28.8029 205.767 28.5513 205.001 28.1108ZM214.677 34.1174C213.928 33.5847 213.364 32.9857 212.986 32.3213C212.608 31.6569 212.434 30.9685 212.463 30.2571C212.493 29.5457 212.742 28.8508 213.21 28.1717L214.845 29.3346C214.468 29.8866 214.328 30.4847 214.428 31.127C214.528 31.7702 214.915 32.3305 215.585 32.8079C216.179 33.2299 216.746 33.417 217.286 33.3691C217.827 33.3212 218.256 33.0723 218.574 32.6245C218.83 32.2642 218.957 31.9149 218.956 31.5767C218.954 31.2385 218.868 30.8975 218.694 30.5547C218.52 30.2119 218.295 29.8534 218.017 29.4802C217.741 29.107 217.451 28.7108 217.148 28.2906C216.547 27.4667 216.197 26.7055 216.1 26.007C216.004 25.3076 216.198 24.6183 216.682 23.9363C217.08 23.3558 217.571 22.9494 218.153 22.7181C218.734 22.4868 219.361 22.4306 220.032 22.5485C220.703 22.6665 221.374 22.965 222.046 23.4424C222.709 23.9133 223.204 24.4487 223.532 25.0486C223.86 25.6485 224.011 26.265 223.986 26.899C223.96 27.5331 223.748 28.1403 223.349 28.7218L221.714 27.5588C221.901 27.2962 222.01 26.9967 222.043 26.6613C222.077 26.3258 222.018 25.9867 221.866 25.6439C221.714 25.3011 221.448 24.9951 221.068 24.7251C220.588 24.3694 220.1 24.2054 219.603 24.234C219.107 24.2626 218.699 24.5003 218.381 24.9482C218.097 25.3472 217.996 25.737 218.077 26.1176C218.158 26.4982 218.354 26.9046 218.662 27.3358C218.971 27.768 219.322 28.2629 219.716 28.8223C220.105 29.3475 220.415 29.8691 220.648 30.3861C220.88 30.904 220.982 31.4376 220.951 31.9868C220.919 32.536 220.695 33.1027 220.28 33.687C219.913 34.203 219.44 34.5892 218.863 34.8454C218.285 35.1015 217.635 35.1817 216.911 35.085C216.188 34.9882 215.443 34.6675 214.673 34.1201L214.677 34.1174ZM245.4 63.1998L255.623 55.9308L256.723 57.4789L252.342 60.5937L255.862 65.5441L260.243 62.4294L261.344 63.9775L251.121 71.2465L250.021 69.6984L254.592 66.4482L251.071 61.4977L246.501 64.7479L245.4 63.1998ZM252.38 73.4674L263.254 67.2158L264.201 68.8626L253.327 75.1142L252.38 73.4674ZM254.69 77.2678L265.855 71.5507L267.823 75.3943C268.275 76.2762 268.498 77.0789 268.492 77.8004C268.486 78.522 268.301 79.1496 267.937 79.685C267.574 80.2204 267.084 80.6461 266.467 80.9612C265.776 81.3151 265.055 81.4524 264.304 81.375C263.553 81.2967 262.855 80.9318 262.214 80.2812L258.693 85.0833L257.689 83.1213L261.076 78.6482L260.055 76.6549L255.557 78.9588L254.69 77.2678ZM261.329 76.0016L262.383 78.0594C262.775 78.8252 263.248 79.2905 263.803 79.4564C264.358 79.6223 264.933 79.5523 265.528 79.2472C266.124 78.9422 266.51 78.5238 266.686 77.9903C266.862 77.4567 266.749 76.7969 266.346 76.0099L265.3 73.9687L261.329 76.0016ZM259.552 87.0148L270.981 81.8469L274.266 89.1121L272.862 89.7471L270.359 84.2124L266.8 85.8214L269.081 90.8658L267.71 91.486L265.428 86.4407L261.738 88.1095L264.241 93.6442L262.837 94.2791L259.551 87.0138L259.552 87.0148ZM266.1 105.28C265.855 104.419 265.804 103.591 265.945 102.8C266.087 102.009 266.45 101.309 267.035 100.703C267.62 100.096 268.452 99.6397 269.533 99.3328L277.066 97.1939L277.585 99.0213L270.035 101.165C268.978 101.465 268.274 101.938 267.923 102.584C267.573 103.23 267.52 103.984 267.765 104.845C268.006 105.696 268.446 106.303 269.084 106.669C269.721 107.034 270.569 107.066 271.626 106.767L279.176 104.623L279.695 106.451L272.162 108.59C271.082 108.896 270.132 108.94 269.312 108.719C268.492 108.499 267.812 108.084 267.273 107.474C266.734 106.863 266.343 106.133 266.101 105.282L266.1 105.28ZM268.772 116.35C268.61 115.444 268.627 114.623 268.824 113.884C269.02 113.145 269.377 112.532 269.897 112.045C270.417 111.558 271.082 111.236 271.891 111.079L272.243 113.055C271.587 113.185 271.07 113.514 270.691 114.042C270.312 114.571 270.195 115.241 270.34 116.052C270.468 116.77 270.741 117.3 271.161 117.644C271.58 117.988 272.06 118.112 272.601 118.015C273.036 117.937 273.372 117.777 273.607 117.535C273.843 117.292 274.019 116.987 274.136 116.621C274.253 116.254 274.343 115.841 274.406 115.38C274.47 114.92 274.541 114.434 274.619 113.922C274.767 112.913 275.051 112.125 275.471 111.559C275.892 110.992 276.513 110.635 277.337 110.489C278.028 110.353 278.663 110.407 279.24 110.649C279.818 110.891 280.304 111.291 280.7 111.844C281.097 112.399 281.368 113.082 281.512 113.893C281.655 114.693 281.633 115.422 281.448 116.08C281.262 116.738 280.938 117.284 280.475 117.718C280.013 118.153 279.436 118.438 278.744 118.573L278.391 116.598C278.708 116.541 278.997 116.405 279.255 116.188C279.514 115.972 279.71 115.688 279.841 115.337C279.972 114.986 279.996 114.581 279.914 114.122C279.821 113.533 279.587 113.074 279.214 112.747C278.84 112.418 278.383 112.303 277.842 112.4C277.36 112.486 277.014 112.693 276.806 113.021C276.598 113.349 276.452 113.776 276.37 114.3C276.288 114.825 276.191 115.424 276.082 116.099C275.991 116.746 275.848 117.337 275.651 117.868C275.455 118.401 275.153 118.853 274.746 119.222C274.339 119.593 273.783 119.84 273.078 119.966C272.455 120.077 271.847 120.022 271.255 119.8C270.663 119.578 270.142 119.179 269.694 118.604C269.246 118.029 268.938 117.277 268.772 116.348V116.35ZM270.31 158.642L282.658 160.847L282.324 162.717L277.033 161.773L275.965 167.752L281.256 168.697L280.922 170.567L268.575 168.361L268.909 166.492L274.43 167.478L275.498 161.498L269.977 160.512L270.31 158.642ZM267.953 170.831L280.175 173.652L279.748 175.502L267.526 172.682L267.953 170.831ZM266.879 175.142L278.945 178.568L277.765 182.722C277.494 183.675 277.111 184.415 276.614 184.938C276.118 185.461 275.555 185.795 274.924 185.939C274.294 186.082 273.645 186.059 272.978 185.871C272.232 185.659 271.61 185.268 271.113 184.698C270.616 184.129 270.355 183.388 270.33 182.473L264.481 183.587L265.083 181.467L270.61 180.503L271.222 178.348L266.361 176.968L266.879 175.14V175.142ZM272.6 178.741L271.969 180.964C271.734 181.792 271.763 182.455 272.056 182.954C272.349 183.453 272.817 183.793 273.461 183.977C274.104 184.159 274.673 184.116 275.165 183.846C275.658 183.576 276.025 183.017 276.266 182.166L276.893 179.96L272.601 178.741H272.6ZM263.634 185.54L275.302 190.14L272.378 197.558L270.944 196.993L273.172 191.343L269.538 189.91L267.507 195.061L266.107 194.509L268.138 189.358L264.371 187.872L262.143 193.524L260.709 192.959L263.634 185.54ZM255.451 203.136C255.898 202.359 256.455 201.746 257.12 201.295C257.787 200.844 258.54 200.617 259.384 200.612C260.227 200.608 261.135 200.885 262.109 201.445L268.897 205.348L267.95 206.995L261.146 203.083C260.194 202.535 259.363 202.361 258.657 202.56C257.95 202.76 257.373 203.248 256.926 204.025C256.485 204.791 256.356 205.529 256.54 206.242C256.723 206.953 257.292 207.583 258.244 208.131L265.047 212.043L264.1 213.69L257.311 209.787C256.338 209.227 255.644 208.577 255.229 207.835C254.815 207.094 254.638 206.317 254.699 205.505C254.759 204.693 255.011 203.903 255.451 203.136ZM249.55 212.89C250.047 212.116 250.617 211.524 251.263 211.115C251.908 210.706 252.587 210.498 253.3 210.495C254.012 210.49 254.718 210.706 255.419 211.14L254.336 212.829C253.766 212.478 253.162 212.368 252.526 212.498C251.888 212.629 251.347 213.041 250.903 213.735C250.509 214.348 250.35 214.923 250.425 215.461C250.498 215.998 250.767 216.414 251.23 216.711C251.602 216.95 251.957 217.06 252.295 217.042C252.633 217.025 252.969 216.92 253.303 216.731C253.638 216.541 253.984 216.298 254.344 216.003C254.703 215.709 255.086 215.401 255.49 215.078C256.284 214.438 257.027 214.053 257.721 213.923C258.414 213.793 259.114 213.953 259.817 214.405C260.417 214.775 260.846 215.245 261.105 215.815C261.364 216.386 261.45 217.009 261.364 217.684C261.278 218.36 261.013 219.045 260.569 219.739C260.13 220.423 259.62 220.944 259.036 221.3C258.453 221.657 257.844 221.838 257.21 221.842C256.575 221.848 255.958 221.664 255.358 221.294L256.441 219.605C256.713 219.779 257.017 219.875 257.354 219.891C257.69 219.909 258.026 219.833 258.362 219.665C258.696 219.496 258.989 219.216 259.241 218.823C259.573 218.327 259.714 217.832 259.661 217.337C259.609 216.842 259.352 216.447 258.89 216.15C258.477 215.885 258.083 215.803 257.707 215.903C257.331 216.002 256.935 216.216 256.519 216.545C256.102 216.874 255.625 217.248 255.085 217.67C254.579 218.082 254.073 218.419 253.567 218.676C253.061 218.934 252.533 219.06 251.983 219.055C251.433 219.049 250.856 218.854 250.252 218.467C249.72 218.125 249.311 217.671 249.028 217.107C248.745 216.542 248.633 215.896 248.695 215.169C248.757 214.441 249.041 213.681 249.551 212.887L249.55 212.89ZM220.947 244.066L228.216 254.288L226.668 255.389L223.553 251.008L218.602 254.528L221.717 258.909L220.169 260.009L212.9 249.787L214.448 248.686L217.698 253.257L222.649 249.737L219.399 245.166L220.947 244.066ZM210.718 251.102L217.487 261.661L215.889 262.686L209.119 252.127L210.718 251.102ZM207.016 253.583L212.733 264.748L208.89 266.716C208.008 267.168 207.205 267.39 206.483 267.385C205.762 267.378 205.134 267.194 204.599 266.83C204.064 266.467 203.638 265.977 203.323 265.36C202.969 264.669 202.831 263.948 202.909 263.197C202.987 262.446 203.352 261.748 204.003 261.107L199.201 257.586L201.163 256.582L205.636 259.968L207.629 258.948L205.325 254.449L207.016 253.583ZM208.282 260.222L206.225 261.276C205.459 261.668 204.993 262.142 204.827 262.696C204.662 263.251 204.732 263.826 205.037 264.421C205.342 265.017 205.76 265.403 206.294 265.579C206.827 265.755 207.487 265.642 208.274 265.239L210.315 264.193L208.282 260.222ZM197.308 258.526L202.476 269.955L195.21 273.24L194.576 271.836L200.11 269.333L198.501 265.774L193.457 268.055L192.837 266.684L197.882 264.402L196.213 260.712L190.678 263.215L190.043 261.811L197.309 258.525L197.308 258.526ZM179.136 265.33C179.998 265.086 180.825 265.034 181.616 265.175C182.408 265.317 183.107 265.68 183.713 266.265C184.321 266.85 184.777 267.683 185.084 268.764L187.223 276.296L185.395 276.815L183.252 269.265C182.951 268.208 182.479 267.504 181.833 267.154C181.187 266.804 180.433 266.75 179.571 266.995C178.721 267.237 178.113 267.676 177.748 268.314C177.383 268.952 177.35 269.799 177.65 270.856L179.793 278.406L177.966 278.925L175.827 271.393C175.52 270.313 175.477 269.363 175.697 268.542C175.917 267.722 176.333 267.042 176.943 266.503C177.554 265.964 178.284 265.573 179.134 265.331L179.136 265.33ZM168.093 268.158C168.988 267.952 169.81 267.928 170.559 268.086C171.306 268.245 171.936 268.571 172.45 269.066C172.962 269.561 173.317 270.208 173.514 271.008L171.559 271.46C171.396 270.81 171.042 270.31 170.495 269.958C169.948 269.606 169.273 269.523 168.47 269.708C167.759 269.872 167.243 270.173 166.921 270.608C166.598 271.043 166.499 271.529 166.623 272.064C166.722 272.495 166.899 272.822 167.153 273.046C167.407 273.269 167.719 273.43 168.092 273.528C168.464 273.626 168.882 273.695 169.344 273.735C169.807 273.776 170.296 273.822 170.811 273.875C171.827 273.972 172.628 274.216 173.215 274.608C173.802 275 174.189 275.603 174.377 276.418C174.547 277.101 174.525 277.738 174.312 278.327C174.099 278.916 173.725 279.422 173.191 279.846C172.658 280.27 171.989 280.574 171.186 280.759C170.395 280.942 169.666 280.956 168.999 280.803C168.333 280.651 167.771 280.355 167.314 279.914C166.857 279.474 166.543 278.912 166.373 278.228L168.329 277.776C168.4 278.09 168.552 278.371 168.78 278.619C169.009 278.867 169.302 279.048 169.659 279.161C170.017 279.275 170.422 279.279 170.876 279.175C171.46 279.052 171.907 278.796 172.216 278.405C172.524 278.016 172.616 277.553 172.493 277.018C172.383 276.54 172.158 276.206 171.82 276.015C171.482 275.823 171.049 275.699 170.521 275.644C169.993 275.587 169.389 275.522 168.71 275.446C168.06 275.387 167.463 275.273 166.921 275.105C166.38 274.935 165.913 274.657 165.523 274.269C165.134 273.881 164.858 273.337 164.697 272.639C164.555 272.022 164.579 271.413 164.771 270.811C164.963 270.208 165.336 269.669 165.887 269.193C166.439 268.717 167.175 268.371 168.095 268.159L168.093 268.158Z" fill="white"></path></svg>