<svg width="500" height="95" viewBox="0 0 500 95" fill="none" xmlns="http://www.w3.org/2000/svg">
<g clip-path="url(#clip0_106_21)">
<path d="M51.0665 0.0380859C55.8911 0.0380859 59.9515 1.77686 63.3432 5.20581C66.7348 8.63503 68.4544 12.7403 68.4544 17.6182V23.7037C68.4544 28.5816 66.7346 32.7353 63.3432 36.1645C59.9515 39.5937 55.8911 41.2841 51.0665 41.2841H11.418C10.9402 41.2841 10.5581 41.4774 10.2239 41.8153C9.88943 42.1535 9.69845 42.5397 9.69845 43.0226V64.6599C9.69845 65.964 9.26852 67.0748 8.36104 67.9923C7.45355 68.9098 6.30703 69.3929 5.01721 69.3929C3.72738 69.3929 2.62872 68.9098 1.72122 67.9923C0.813721 67.0748 0.38378 65.9638 0.38378 64.6599V43.0226C0.38378 39.9316 1.43459 37.3234 3.5843 35.1502C5.73401 32.977 8.36128 31.8659 11.4185 31.8659H51.0669C53.3121 31.8659 55.1752 31.0449 56.7514 29.451C58.3279 27.8571 59.1399 25.9737 59.1399 23.7037V17.6185C59.1399 15.3485 58.3279 13.4648 56.7514 11.8711C55.175 10.2772 53.3121 9.45628 51.0669 9.45628H10.7015L31.1465 27.0847H16.768L3.87045 15.9762C2.3897 14.817 1.33865 13.368 0.813244 11.5811C0.239986 9.79415 0.239986 7.95891 0.813244 6.17172C1.3865 4.33642 2.43731 2.83929 4.01377 1.72849C5.54237 0.61768 7.26214 0.0380859 9.17284 0.0380859H51.0665Z" fill="black"/>
<path d="M89.6694 1.32239C90.9015 1.32239 91.9514 1.7952 92.8182 2.69324C93.6849 3.59128 94.1418 4.67873 94.1418 5.95487V64.7131C94.1418 65.9895 93.6849 67.124 92.8182 68.0221C91.9506 68.9201 90.9015 69.3929 89.6694 69.3929C88.4373 69.3929 87.3413 68.9201 86.4745 68.0221C85.6077 67.124 85.1509 65.9895 85.1509 64.7131V5.95511C85.1509 4.67873 85.6077 3.59151 86.4745 2.69347C87.3413 1.79543 88.4373 1.32239 89.6694 1.32239Z" fill="black"/>
<path d="M170.117 61.5648C170.933 62.5796 171.318 63.7394 171.173 65.0439C171.029 66.3483 170.501 67.4115 169.493 68.233C168.628 68.9578 167.62 69.3443 166.467 69.3443C164.979 69.3443 163.777 68.7644 162.865 67.6531L113.209 7.83208C112.392 6.81728 112.008 5.65753 112.152 4.35305C112.248 3.04832 112.824 1.98538 113.833 1.16396C114.842 0.342551 115.946 -0.0439535 117.243 0.0526119C118.54 0.197581 119.644 0.729055 120.461 1.74384L141.639 27.3056L162.866 1.74384C163.682 0.729055 164.739 0.197581 166.035 0.0526119C167.331 -0.0439535 168.484 0.342551 169.493 1.16396C170.501 1.98538 171.029 3.04857 171.174 4.35305C171.318 5.65753 170.933 6.81752 170.117 7.83208L147.786 34.6986L170.117 61.5648ZM138.565 45.9089L120.509 67.7017C119.548 68.8131 118.347 69.3929 116.858 69.3929C115.754 69.3929 114.746 69.0064 113.833 68.2816C112.824 67.4602 112.297 66.3488 112.152 65.0441C112.057 63.7394 112.441 62.628 113.257 61.6133L132.418 38.5159L138.565 45.9089Z" fill="black"/>
<path d="M245.894 61.5648C246.711 62.5796 247.094 63.7394 246.95 65.0439C246.807 66.3483 246.278 67.4115 245.27 68.233C244.405 68.9578 243.396 69.3443 242.244 69.3443C240.755 69.3443 239.555 68.7644 238.643 67.6531L188.986 7.83208C188.17 6.81728 187.786 5.65753 187.93 4.35305C188.026 3.04832 188.602 1.98538 189.611 1.16396C190.619 0.342551 191.724 -0.0439535 193.02 0.0526119C194.317 0.197581 195.421 0.729055 196.238 1.74384L217.416 27.3056L238.643 1.74384C239.459 0.729055 240.516 0.197581 241.812 0.0526119C243.109 -0.0439535 244.262 0.342551 245.27 1.16396C246.278 1.98538 246.807 3.04857 246.95 4.35305C247.095 5.65753 246.711 6.81752 245.894 7.83208L223.563 34.6986L245.894 61.5648ZM214.342 45.9089L196.286 67.7017C195.325 68.8131 194.125 69.3929 192.636 69.3929C191.531 69.3929 190.523 69.0064 189.611 68.2816C188.602 67.4602 188.073 66.3488 187.93 65.0441C187.833 63.7394 188.218 62.628 189.034 61.6133L208.195 38.5159L214.342 45.9089Z" fill="black"/>
<path d="M366.798 69.3929C362.113 69.3929 358.097 67.7292 354.749 64.4017C351.403 61.0743 349.729 57.0814 349.729 52.4228V5.88574C349.729 4.64985 350.159 3.60394 351.068 2.70089C351.977 1.79784 353.028 1.32239 354.32 1.32239C355.61 1.32239 356.662 1.79784 357.571 2.70089C358.479 3.60394 358.91 4.64985 358.91 5.88574V52.4228C358.91 54.5619 359.674 56.4156 361.204 57.9844C362.782 59.5055 364.646 60.2662 366.798 60.2662H410.642C411.933 60.2662 412.984 60.694 413.893 61.5971C414.802 62.5001 415.232 63.546 415.232 64.8295C415.232 66.1131 414.802 67.1587 413.893 68.062C412.984 68.9651 411.933 69.3929 410.642 69.3929H366.798Z" fill="black"/>
<path d="M5.45681 80.8516C9.39395 80.8516 12.2435 83.6073 12.2435 87.4136C12.2435 91.2007 9.37511 93.9756 5.40055 93.9756H0.0761719V80.8516H5.45681ZM2.28842 91.9874H5.51308C8.0627 91.9874 10.0127 90.0947 10.0127 87.432C10.0127 84.7509 8.00671 82.8389 5.41938 82.8389H2.28842V91.9874Z" fill="black"/>
<path d="M31.9775 93.9748V80.8516H34.1897V93.9748H31.9775Z" fill="black"/>
<path d="M65.9204 87.5259V92.3628C64.5892 93.3749 62.6209 94.0686 60.8209 94.0686C56.94 94.0686 53.9214 91.163 53.9214 87.4136C53.9214 83.6634 56.9772 80.7954 60.952 80.7954C62.8269 80.7954 64.7017 81.5076 65.9953 82.632L64.7392 84.2633C63.7267 83.3258 62.3207 82.7635 60.952 82.7635C58.271 82.7635 56.1713 84.8071 56.1713 87.4136C56.1713 90.0378 58.2899 92.0813 60.9708 92.0813C61.9456 92.0813 63.052 91.7444 63.9893 91.1814V87.5259H65.9204Z" fill="black"/>
<path d="M86.4219 93.9748V80.8516H88.6346V93.9748H86.4219Z" fill="black"/>
<path d="M114.254 82.8389V93.9748H112.042V82.8389H107.898V80.8516H118.416V82.8389H114.254Z" fill="black"/>
<path d="M138.243 91.013L136.986 93.9748H134.681L140.474 80.8516H142.742L148.479 93.9748H146.117L144.861 91.013H138.243ZM141.543 83.2135L139.068 89.0441H144.018L141.543 83.2135Z" fill="black"/>
<path d="M175.487 91.969V93.9748H167.594V80.8516H169.806V91.969H175.487Z" fill="black"/>
<path d="M217.242 82.8389V93.9748H215.03V82.8389H210.887V80.8516H221.404V82.8389H217.242Z" fill="black"/>
<path d="M242.881 82.8389V86.3822H249.293V88.3696H242.881V91.9874H250.268V93.9748H240.668V80.8516H250.042V82.8389H242.881Z" fill="black"/>
<path d="M281.138 82.8197L279.844 84.4325C278.888 83.4011 277.519 82.7635 276.188 82.7635C273.563 82.7635 271.501 84.7886 271.501 87.3759C271.501 89.9631 273.563 92.0067 276.188 92.0067C277.5 92.0067 278.85 91.4068 279.844 90.4508L281.156 91.9128C279.825 93.2257 277.931 94.0694 276.075 94.0694C272.232 94.0694 269.251 91.163 269.251 87.3951C269.251 83.6642 272.27 80.7954 276.15 80.7954C278.007 80.7954 279.862 81.5637 281.138 82.8197Z" fill="black"/>
<path d="M309.945 93.9748V88.538H302.989V93.9748H300.777V80.8516H302.989V86.5506H309.945V80.8516H312.157V93.9748H309.945Z" fill="black"/>
<path d="M342.183 93.9748L335.189 84.5633V93.9748H332.977V80.8516H335.151L342.183 90.2816V80.8516H344.357V93.9748H342.183Z" fill="black"/>
<path d="M378.02 87.4136C378.02 91.163 374.984 94.0694 371.065 94.0694C367.147 94.0694 364.109 91.163 364.109 87.4136C364.109 83.645 367.147 80.7954 371.065 80.7954C374.984 80.7954 378.02 83.6634 378.02 87.4136ZM366.359 87.4136C366.359 90.0193 368.516 92.082 371.084 92.082C373.653 92.082 375.752 90.0193 375.752 87.4136C375.752 84.8071 373.653 82.7828 371.084 82.7828C368.496 82.7828 366.359 84.8071 366.359 87.4136Z" fill="black"/>
<path d="M405.647 91.969V93.9748H397.753V80.8516H399.966V91.969H405.647Z" fill="black"/>
<path d="M437.96 87.4136C437.96 91.163 434.923 94.0694 431.004 94.0694C427.086 94.0694 424.049 91.163 424.049 87.4136C424.049 83.645 427.086 80.7954 431.004 80.7954C434.923 80.7954 437.96 83.6634 437.96 87.4136ZM426.298 87.4136C426.298 90.0193 428.454 92.082 431.023 92.082C433.591 92.082 435.692 90.0193 435.692 87.4136C435.692 84.8071 433.591 82.7828 431.023 82.7828C428.436 82.7828 426.298 84.8071 426.298 87.4136Z" fill="black"/>
<path d="M468.08 87.5259V92.3628C466.748 93.3749 464.78 94.0686 462.98 94.0686C459.099 94.0686 456.081 91.163 456.081 87.4136C456.081 83.6634 459.136 80.7954 463.111 80.7954C464.985 80.7954 466.86 81.5076 468.154 82.632L466.898 84.2633C465.885 83.3258 464.479 82.7635 463.111 82.7635C460.43 82.7635 458.33 84.8071 458.33 87.4136C458.33 90.0378 460.448 92.0813 463.129 92.0813C464.105 92.0813 465.211 91.7444 466.147 91.1814V87.5259H468.08Z" fill="black"/>
<path d="M493.962 93.9748H491.768V89.6817L486.876 80.8516H489.106L492.856 87.2444L496.531 80.8516H498.781L493.963 89.6071V93.9748H493.962Z" fill="black"/>
<path d="M332.34 38.7227C332.266 37.9451 332.128 37.1676 331.869 36.3901C331.154 34.343 330.012 32.7243 328.346 31.4391C326.584 30.1062 324.489 29.4396 322.157 29.4396H273.694V18.0141C273.694 15.7766 274.456 13.9199 276.027 12.349C277.597 10.7782 279.502 10.0164 281.691 10.0164H327.774C329.06 10.0164 330.155 9.5402 331.059 8.63581C331.964 7.73141 332.392 6.68398 332.392 5.39856C332.392 4.11314 331.964 3.01823 331.059 2.11384C330.155 1.20944 329.059 0.733276 327.774 0.733276H281.691C276.931 0.733276 272.837 2.39948 269.457 5.77959C266.077 9.15964 264.41 13.2537 264.41 18.0144V51.6718C264.41 56.4324 266.125 60.479 269.504 63.8588C272.884 67.2389 276.931 68.9526 281.691 68.9526H327.774C329.059 68.9526 330.155 68.4765 331.059 67.572C331.964 66.6676 332.392 65.5725 332.392 64.2873C332.392 63.0019 331.964 61.9547 331.059 61.0501C330.155 60.1457 329.059 59.6695 327.774 59.6695H281.691C279.502 59.6695 277.597 58.9076 276.026 57.3368C274.456 55.7658 273.693 53.8616 273.693 51.6718V38.7229H305.372H322.157H332.34V38.7227Z" fill="black"/>
<path d="M497.92 5.83761C496.55 3.93767 494.753 2.60753 492.532 1.895C490.357 1.18246 488.23 1.13487 486.103 1.75249C484.024 2.41744 482.322 3.65242 480.951 5.45743C478.701 8.4546 475.615 12.4788 471.72 17.4967L471.739 17.5067C471.045 18.3837 470.363 19.2464 469.647 20.1506V23.8556C469.647 24.663 469.931 25.328 470.497 25.898C471.065 26.4681 471.726 26.7531 472.53 26.7531H476.122C477.596 24.8948 479.008 23.1117 480.391 21.3633L480.368 21.345C483.875 16.8114 486.435 13.4414 487.994 11.2998C488.419 10.7297 489.034 10.5396 489.743 10.7773C490.452 11.0147 490.83 11.4898 490.83 12.2024V52.2452C490.83 54.4301 490.074 56.2827 488.514 57.8503C486.954 59.4179 485.111 60.1777 482.936 60.1777H449.614C447.629 60.1777 445.974 59.5128 444.604 58.1353C443.139 56.6629 442.382 54.7154 442.382 52.2452V6.07504C442.382 4.79248 441.91 3.74759 441.011 2.84496C440.114 1.94233 439.073 1.46747 437.797 1.46747C436.521 1.46747 435.434 1.94257 434.536 2.84496C433.638 3.74735 433.212 4.79248 433.212 6.07504V52.2452C433.212 56.9476 434.867 60.9852 438.176 64.3578C441.531 67.7304 445.549 69.3929 450.275 69.3929H482.936C487.616 69.3929 491.633 67.7304 494.989 64.3578C498.345 60.9852 499.999 56.9476 499.999 52.2452V12.2026C500 9.87514 499.291 7.73756 497.92 5.83761Z" fill="black"/>
</g>
<defs>
<clipPath id="clip0_106_21">
<rect width="500" height="94.1385" fill="white"/>
</clipPath>
</defs>
</svg>
