<svg width="100" height="100" viewBox="0 0 100 100" fill="none" xmlns="http://www.w3.org/2000/svg">
<g clip-path="url(#clip0_1090_1121)">
<path d="M50 100C77.6142 100 100 77.6142 100 50C100 22.3858 77.6142 0 50 0C22.3858 0 0 22.3858 0 50C0 77.6142 22.3858 100 50 100Z" fill="#BC3432"/>
<path d="M45.1806 54.7655C52.0478 61.6327 58.7782 64.4187 61.2024 61.9944L64.5313 58.6663C65.6325 57.5652 67.126 56.9466 68.6833 56.9466C70.2406 56.9466 71.7341 57.5652 72.8353 58.6663L80.3087 66.1398C81.4098 67.2409 82.0284 68.7344 82.0284 70.2917C82.0284 71.849 81.4098 73.3425 80.3087 74.4437L74.486 80.2663C68.9845 85.7679 52.7126 78.4241 37.1173 62.8296C29.3235 55.0319 24.2118 47.6874 20.9079 40.7812C17.604 33.8749 16.9345 28.2101 19.6837 25.4609L25.5063 19.6382C26.6075 18.5371 28.101 17.9185 29.6583 17.9185C31.2156 17.9185 32.7091 18.5371 33.8103 19.6382L41.2837 27.1093C42.3848 28.2105 43.0034 29.704 43.0034 31.2612C43.0034 32.8185 42.3848 34.312 41.2837 35.4132L37.9524 38.7499C35.5282 41.1718 38.3134 47.9015 45.1806 54.7655Z" fill="#EEEFEE"/>
</g>
<defs>
<clipPath id="clip0_1090_1121">
<rect width="100" height="100" fill="white"/>
</clipPath>
</defs>
</svg>
