<svg width="100" height="100" viewBox="0 0 100 100" fill="none" xmlns="http://www.w3.org/2000/svg">
<g clip-path="url(#clip0_1090_1118)">
<path d="M96.4605 58.4029C96.9763 55.593 97.2471 52.7175 97.2471 49.8427C97.2471 43.4684 95.9997 37.2848 93.5339 31.4628C91.1551 25.8392 87.7516 20.7893 83.4128 16.4535C79.08 12.117 74.0263 8.71428 68.4058 6.33544C62.5861 3.87267 56.4017 2.62451 50.0281 2.62451C47.0237 2.62451 44.0147 2.90679 41.0865 3.46908C41.0804 3.47061 41.072 3.47061 41.0644 3.47213C37.0467 1.3359 32.5286 0.195312 27.9548 0.195312C20.4879 0.195312 13.4674 3.10287 8.18785 8.38469C2.90908 13.6642 0 20.6848 0 28.1516C0 32.904 1.22299 37.5762 3.51714 41.7045C3.05175 44.3793 2.80609 47.1129 2.80609 49.8427C2.80609 56.2186 4.05425 62.4015 6.52007 68.2242C8.89509 73.8493 12.3001 78.8962 16.6351 83.2327C20.9739 87.5685 26.0208 90.9765 31.6474 93.3493C37.4679 95.8166 43.6538 97.0656 50.0274 97.0656C52.8022 97.0656 55.5831 96.8123 58.2976 96.3308C62.48 98.6967 67.2148 99.954 72.0503 99.954C79.5157 99.954 86.5324 97.0518 91.8127 91.7685C97.0938 86.492 99.9998 79.4699 99.9998 72.003C99.9998 67.2347 98.7707 62.5472 96.4605 58.4029Z" fill="#00AFF0"/>
<path d="M50.216 78.7621C33.4406 78.7621 25.9355 70.5147 25.9355 64.3334C25.9355 61.1634 28.2762 58.941 31.5019 58.941C38.6812 58.941 36.8219 69.249 50.216 69.249C57.0733 69.249 60.8598 65.5259 60.8598 61.7158C60.8598 59.4239 59.7291 56.8841 55.2141 55.771L40.2933 52.0463C28.2762 49.0327 26.0958 42.5363 26.0958 36.4297C26.0958 23.7512 38.0335 18.9905 49.2441 18.9905C59.5712 18.9905 71.7446 24.698 71.7446 32.3045C71.7446 35.5638 68.9225 37.4589 65.6976 37.4589C59.5712 37.4589 60.6981 28.9789 48.3568 28.9789C42.2327 28.9789 38.8406 31.7521 38.8406 35.7202C38.8406 39.6814 43.6777 40.9463 47.8769 41.903L58.9212 44.3543C71.0191 47.0498 74.0861 54.1131 74.0861 60.7659C74.0868 71.0686 66.1782 78.7621 50.216 78.7621Z" fill="white"/>
</g>
<defs>
<clipPath id="clip0_1090_1118">
<rect width="100" height="100" fill="white"/>
</clipPath>
</defs>
</svg>
