<svg width="40" height="40" viewBox="0 0 40 40" fill="none" xmlns="http://www.w3.org/2000/svg">
<path d="M20 40C8.9725 40 0 31.0275 0 20C0 8.9725 8.9725 0 20 0C31.0275 0 40 8.9725 40 20C40 31.0275 31.0275 40 20 40ZM2.5 20C2.5 29.65 10.35 37.5 20 37.5C29.65 37.5 37.5 29.65 37.5 20C37.5 10.35 29.65 2.5 20 2.5C10.35 2.5 2.5 10.35 2.5 20ZM26.9012 21.2675H26.8975L13.0938 21.2337C12.4038 21.2325 11.8462 20.6712 11.8475 19.9812C11.8487 19.2925 12.4087 18.7338 13.0975 18.7338H13.1012L26.905 18.7675C27.595 18.7687 28.1525 19.33 28.1512 20.02C28.1512 20.7088 27.59 21.2675 26.9012 21.2675Z" fill="white"/>
</svg>
