<svg width="512" height="91" viewBox="0 0 512 91" fill="none" xmlns="http://www.w3.org/2000/svg">
<path d="M94.5257 33.8647C93.7567 31.5057 91.7167 29.7907 89.2587 29.4327L64.3597 25.8148L53.2337 3.33375C51.0307 -1.11125 43.7497 -1.11125 41.5467 3.33375L30.4207 25.8148L5.58068 29.4327C3.12968 29.7907 1.08968 31.5117 0.320683 33.8717C-0.448317 36.2247 0.190683 38.8128 1.96968 40.5458L19.9857 58.1057L15.7357 82.8808C15.3187 85.3248 16.3227 87.8017 18.3297 89.2617C20.3437 90.7147 23.0097 90.9048 25.1997 89.7508L47.3877 78.0507L69.6407 89.7508C70.5927 90.2528 71.6357 90.5008 72.6717 90.5008C74.0207 90.5008 75.3697 90.0767 76.5107 89.2627C78.5187 87.7957 79.5217 85.3257 79.1047 82.8817L74.8617 58.1067L92.8777 40.5467C94.6567 38.8187 95.2947 36.2247 94.5257 33.8647Z" fill="black"/>
<path d="M198.815 33.8647C198.046 31.5057 196.006 29.7907 193.548 29.4327L168.649 25.8148L157.523 3.33375C155.32 -1.11125 148.039 -1.11125 145.836 3.33375L134.71 25.8148L109.87 29.4327C107.419 29.7907 105.379 31.5117 104.61 33.8717C103.841 36.2247 104.48 38.8128 106.259 40.5458L124.275 58.1057L120.025 82.8808C119.608 85.3248 120.612 87.8087 122.619 89.2617C124.627 90.7147 127.299 90.9048 129.489 89.7508L151.677 78.0507L173.93 89.7508C174.882 90.2528 175.925 90.5008 176.961 90.5008C178.31 90.5008 179.659 90.0767 180.8 89.2627C182.808 87.7957 183.811 85.3257 183.394 82.8817L179.151 58.1067L197.167 40.5467C198.946 38.8187 199.584 36.2247 198.815 33.8647Z" fill="black"/>
<path d="M303.104 33.8647C302.335 31.5057 300.295 29.7907 297.837 29.4327L272.938 25.8148L261.812 3.33375C259.609 -1.11125 252.328 -1.11125 250.125 3.33375L238.999 25.8148L214.159 29.4327C211.708 29.7907 209.668 31.5117 208.899 33.8717C208.13 36.2247 208.769 38.8128 210.548 40.5458L228.564 58.1057L224.314 82.8808C223.897 85.3248 224.901 87.8017 226.908 89.2617C228.922 90.7147 231.588 90.9048 233.778 89.7508L255.965 78.0507L278.218 89.7508C279.17 90.2528 280.213 90.5008 281.249 90.5008C282.598 90.5008 283.947 90.0767 285.088 89.2627C287.096 87.7957 288.099 85.3257 287.682 82.8817L283.439 58.1067L301.455 40.5467C303.235 38.8187 303.873 36.2247 303.104 33.8647Z" fill="black"/>
<path d="M407.393 33.8647C406.624 31.5057 404.584 29.7907 402.126 29.4327L377.227 25.8148L366.101 3.33375C363.898 -1.11125 356.617 -1.11125 354.414 3.33375L343.288 25.8148L318.448 29.4327C315.997 29.7907 313.957 31.5117 313.188 33.8717C312.419 36.2247 313.058 38.8128 314.837 40.5458L332.853 58.1057L328.603 82.8808C328.186 85.3248 329.19 87.8017 331.197 89.2617C333.211 90.7147 335.877 90.9048 338.067 89.7508L360.254 78.0507L382.507 89.7508C383.459 90.2528 384.502 90.5008 385.538 90.5008C386.887 90.5008 388.236 90.0767 389.377 89.2627C391.385 87.7957 392.388 85.3257 391.971 82.8817L387.728 58.1067L405.744 40.5467C407.523 38.8187 408.162 36.2247 407.393 33.8647Z" fill="black"/>
<path d="M511.682 33.8647C510.906 31.5057 508.873 29.7907 506.415 29.4327L481.516 25.8148L470.39 3.33375C468.187 -1.11125 460.906 -1.11125 458.703 3.33375L447.577 25.8148L422.737 29.4327C420.286 29.7907 418.246 31.5117 417.477 33.8717C416.708 36.2247 417.347 38.8128 419.126 40.5458L437.142 58.1057L432.892 82.8808C432.475 85.3248 433.479 87.8017 435.486 89.2617C436.62 90.0827 437.963 90.4997 439.312 90.4997C440.355 90.4997 441.398 90.2517 442.362 89.7497L464.55 78.0497L486.809 89.7497C488.999 90.9167 491.658 90.7208 493.673 89.2548C495.674 87.7948 496.678 85.3248 496.261 82.8798L492.018 58.1048L510.034 40.5448C511.812 38.8188 512.445 36.2247 511.682 33.8647Z" fill="black"/>
</svg>
