<svg width="512" height="91" viewBox="0 0 512 91" fill="none" xmlns="http://www.w3.org/2000/svg">
<path d="M94.5248 33.8647C94.1474 32.7084 93.4542 31.6806 92.5235 30.8974C91.5928 30.1143 90.4616 29.6069 89.2578 29.4327L64.3588 25.8148L53.2328 3.33375C51.0298 -1.11125 43.7488 -1.11125 41.5458 3.33375L30.4198 25.8148L5.5798 29.4327C4.37667 29.6095 3.24681 30.1187 2.31748 30.903C1.38815 31.6873 0.696274 32.7155 0.319796 33.8717C-0.0566661 35.0271 -0.101716 36.2649 0.18976 37.4446C0.481236 38.6243 1.09756 39.6987 1.9688 40.5458L19.9848 58.1057L15.7348 82.8808C15.5303 84.0804 15.6647 85.3133 16.123 86.4407C16.5813 87.5681 17.3452 88.5451 18.3288 89.2617C19.3151 89.9741 20.4806 90.3973 21.6942 90.4837C22.9078 90.5701 24.1215 90.3163 25.1988 89.7508L47.3868 78.0507L69.6398 89.7508C70.5918 90.2528 71.6348 90.5008 72.6708 90.5008C74.048 90.4972 75.3899 90.0645 76.5098 89.2627C77.493 88.5458 78.2567 87.5687 78.7149 86.4414C79.1732 85.3142 79.3079 84.0814 79.1038 82.8817L74.8608 58.1067L92.8768 40.5467C93.7487 39.6984 94.3654 38.6226 94.6567 37.4415C94.948 36.2604 94.9023 35.0212 94.5248 33.8647ZM198.814 33.8647C198.436 32.7084 197.743 31.6806 196.812 30.8974C195.882 30.1143 194.751 29.6069 193.547 29.4327L168.648 25.8148L157.522 3.33375C155.319 -1.11125 148.038 -1.11125 145.835 3.33375L134.709 25.8148L109.869 29.4327C108.666 29.6095 107.536 30.1187 106.606 30.903C105.677 31.6873 104.985 32.7155 104.609 33.8717C104.232 35.0271 104.187 36.2649 104.479 37.4446C104.77 38.6243 105.387 39.6987 106.258 40.5458L124.274 58.1057L120.024 82.8808C119.819 84.0804 119.953 85.3136 120.411 86.4411C120.869 87.5686 121.634 88.5456 122.618 89.2617C123.604 89.9742 124.77 90.3975 125.983 90.4838C127.197 90.5702 128.411 90.3164 129.488 89.7508L151.676 78.0507L173.929 89.7508C174.881 90.2528 175.924 90.5008 176.96 90.5008C178.337 90.4972 179.679 90.0645 180.799 89.2627C181.782 88.5458 182.546 87.5687 183.004 86.4414C183.462 85.3142 183.597 84.0814 183.393 82.8817L179.15 58.1067L197.166 40.5467C198.038 39.6984 198.654 38.6226 198.946 37.4415C199.237 36.2604 199.191 35.0212 198.814 33.8647ZM303.103 33.8647C302.725 32.7084 302.032 31.6806 301.102 30.8974C300.171 30.1143 299.04 29.6069 297.836 29.4327L272.937 25.8148L261.811 3.33375C259.608 -1.11125 252.327 -1.11125 250.124 3.33375L238.998 25.8148L214.158 29.4327C212.955 29.6095 211.825 30.1187 210.895 30.903C209.966 31.6873 209.274 32.7155 208.898 33.8717C208.521 35.0271 208.476 36.2649 208.768 37.4446C209.059 38.6243 209.676 39.6987 210.547 40.5458L228.563 58.1057L224.313 82.8808C224.108 84.0804 224.243 85.3133 224.701 86.4407C225.159 87.5681 225.923 88.5451 226.907 89.2617C227.893 89.9741 229.059 90.3973 230.272 90.4837C231.486 90.5701 232.7 90.3163 233.777 89.7508L255.964 78.0507L278.217 89.7508C279.169 90.2528 280.212 90.5008 281.248 90.5008C282.625 90.4972 283.967 90.0645 285.087 89.2627C286.07 88.5458 286.834 87.5687 287.292 86.4414C287.75 85.3142 287.885 84.0814 287.681 82.8817L283.438 58.1067L301.454 40.5467C302.326 39.6986 302.943 38.6229 303.234 37.4417C303.526 36.2605 303.48 35.0213 303.103 33.8647ZM407.392 33.8647C407.014 32.7084 406.321 31.6806 405.391 30.8974C404.46 30.1143 403.329 29.6069 402.125 29.4327L377.226 25.8148L366.1 3.33375C363.897 -1.11125 356.616 -1.11125 354.413 3.33375L343.287 25.8148L318.447 29.4327C317.244 29.6095 316.114 30.1187 315.184 30.903C314.255 31.6873 313.563 32.7155 313.187 33.8717C312.81 35.0271 312.765 36.2649 313.057 37.4446C313.348 38.6243 313.965 39.6987 314.836 40.5458L332.852 58.1057L328.602 82.8808C328.397 84.0804 328.532 85.3133 328.99 86.4407C329.448 87.5681 330.212 88.5451 331.196 89.2617C332.182 89.9741 333.348 90.3973 334.561 90.4837C335.775 90.5701 336.989 90.3163 338.066 89.7508L360.253 78.0507L382.506 89.7508C383.458 90.2528 384.501 90.5008 385.537 90.5008C386.914 90.4972 388.256 90.0645 389.376 89.2627C390.359 88.5458 391.123 87.5687 391.581 86.4414C392.039 85.3142 392.174 84.0814 391.97 82.8817L387.727 58.1067L405.743 40.5467C406.615 39.6985 407.232 38.6227 407.523 37.4416C407.815 36.2605 407.769 35.0213 407.392 33.8647ZM511.681 33.8647C511.303 32.7089 510.609 31.6817 509.678 30.8986C508.748 30.1156 507.617 29.6079 506.414 29.4327L481.515 25.8148L470.389 3.33375C468.186 -1.11125 460.905 -1.11125 458.702 3.33375L447.576 25.8148L422.736 29.4327C421.533 29.6095 420.403 30.1187 419.473 30.903C418.544 31.6873 417.852 32.7155 417.476 33.8717C417.099 35.0271 417.054 36.2649 417.346 37.4446C417.637 38.6243 418.254 39.6987 419.125 40.5458L437.141 58.1057L432.891 82.8808C432.686 84.0804 432.821 85.3133 433.279 86.4407C433.737 87.5681 434.501 88.5451 435.485 89.2617C436.598 90.0672 437.937 90.5005 439.311 90.4997C440.373 90.4993 441.419 90.2419 442.361 89.7497L464.549 78.0497L486.808 89.7497C487.883 90.3205 489.097 90.5768 490.311 90.4893C491.525 90.4017 492.69 89.9739 493.672 89.2548C494.654 88.5381 495.416 87.5617 495.873 86.4355C496.33 85.3093 496.464 84.0779 496.26 82.8798L492.017 58.1048L510.033 40.5448C510.903 39.6959 511.519 38.6205 511.81 37.44C512.102 36.2595 512.057 35.0211 511.681 33.8647Z" fill="#FAC900"/>
</svg>
