<svg width="150" height="18" viewBox="0 0 150 18" fill="none" xmlns="http://www.w3.org/2000/svg">
<path d="M125.801 14.0955L125.801 14.0954L125.79 14.0868C124.322 12.9397 123.013 11.6258 121.679 10.2857C120.663 9.26546 119.632 8.39959 118.421 7.70298C117.272 6.99469 116.142 6.6699 115.016 6.69299C113.891 6.71605 112.81 7.08521 111.759 7.7012L111.746 7.70879L111.733 7.71714L111.713 7.73061C110.729 8.38968 109.697 9.08109 108.83 9.95159C107.513 11.2742 106.032 12.5967 104.552 13.7527L104.546 13.7574L104.541 13.7622C102.185 15.7208 99.7709 16.8855 97.2562 17.2864C94.7418 17.6874 92.0897 17.3306 89.2476 16.1886L89.2476 16.1885L89.2374 16.1847C87.9868 15.7136 86.8753 14.9219 85.8958 14.1025L83.6566 12.1031L81.4223 10.1082C80.5715 9.25486 79.5525 8.40229 78.5294 7.71714C77.4812 7.01516 76.441 6.59667 75.352 6.52685C74.2607 6.45688 73.1697 6.7402 72.0263 7.35868L72.016 7.36422L72.0061 7.37024C70.3049 8.39556 68.6099 9.75818 67.2532 11.121C65.4308 12.9516 63.6485 14.5733 61.3961 15.7046L61.3961 15.7045L61.39 15.7077C56.7269 18.1305 52.2462 17.9779 47.56 15.5465C45.6251 14.4108 44.001 12.9459 42.3507 11.2881C41.0057 9.93699 39.6497 8.74361 38.1169 7.71714L38.1169 7.71705L38.108 7.71131C37.138 7.09126 36.1433 6.72162 35.1072 6.65224C34.0696 6.58275 33.0248 6.81678 31.9598 7.35166C30.5177 8.07599 29.3096 9.16501 28.2004 10.1649C27.9739 10.3691 27.7514 10.5696 27.532 10.7625C26.9437 11.2691 26.3983 11.7749 25.8603 12.2737L25.8572 12.2765C25.3167 12.7778 24.7836 13.272 24.2106 13.7655C20.3254 17.0167 15.9988 18.2939 11.0224 17.0038L11.0188 17.0029C9.10793 16.5231 7.33872 15.5595 5.70675 14.4131C4.23447 13.2621 2.76084 11.9465 1.44984 10.6305C0.267018 9.28533 0.160182 7.57238 1.29302 6.29218C2.41813 5.02071 4.25924 4.9921 5.57476 6.16673L5.5747 6.1668L5.58154 6.17268C6.72902 7.16068 7.71399 8.1498 8.71325 9.15358C9.79443 10.2396 11.0488 10.7726 12.2558 11.1191L12.2638 11.1214L12.272 11.1234C15.0779 11.8281 17.7439 11.2981 20.0356 9.18192C21.0279 8.40515 21.9635 7.54284 22.8559 6.72034C23.3144 6.29774 23.7615 5.88566 24.199 5.50109L24.1991 5.50119L24.2076 5.49336C26.169 3.6873 28.2787 2.22299 30.7012 1.24855C33.7303 0.129228 36.5864 0.287899 39.4642 1.5727L39.4642 1.57274L39.4703 1.57539C41.7047 2.53732 43.4773 4.14778 45.1344 5.81241L45.1462 5.82421L45.1587 5.83521C45.8163 6.41326 46.4753 7.03371 47.1417 7.6613L47.1448 7.66424C47.8078 8.28863 48.4783 8.92006 49.15 9.51049L49.1569 9.51653L49.164 9.5223C50.5597 10.6614 52.0216 11.2915 53.5448 11.449C55.0647 11.6062 56.6084 11.2891 58.1656 10.5939L58.176 10.5892L58.1862 10.5841C59.4136 9.96762 60.4109 9.13623 61.3175 8.28909C61.6305 7.99657 61.9282 7.70702 62.2198 7.42328C62.7892 6.86943 63.3358 6.33769 63.9299 5.84904C64.1327 5.68896 64.3336 5.52951 64.5331 5.37114C66.6429 3.69623 68.6 2.14248 71.0895 1.25728C74.3005 0.292089 77.1479 0.460437 80.0032 2.05393L80.0127 2.05923L80.0225 2.06412C81.9679 3.04124 83.7442 4.34038 85.1939 5.95773C86.1058 7.00398 87.223 7.95721 88.2786 8.85797C88.6042 9.13576 88.9239 9.40856 89.23 9.67755L89.2368 9.68358L89.2439 9.68936C92.0731 11.9984 95.8027 12.1782 98.8115 10.2235C100.687 9.02448 102.381 7.32233 103.865 5.83197L103.876 5.82089C105.681 4.17338 107.63 2.71001 109.723 1.7387C113.722 -0.027258 117.371 0.288989 121.059 2.54194C123.339 4.01555 125.304 5.82183 127.29 7.81711C128.621 9.15401 130.199 10.5811 132.169 11.1207L132.177 11.123L132.186 11.1251C135.154 11.8267 137.826 11.2993 140.125 9.16746L140.132 9.16067L140.139 9.15358C140.785 8.50519 141.473 7.93541 142.182 7.34844L142.191 7.3413C142.892 6.7611 143.615 6.16356 144.297 5.47829C145.718 4.05096 147.711 4.46111 148.721 5.62102L148.723 5.62394C149.854 6.9012 149.747 8.76825 148.42 10.1095C146.758 11.612 145.109 13.1021 143.463 14.4252L143.449 14.4363L143.436 14.4483C141.375 16.3593 138.507 17.489 135.128 17.489C131.589 17.489 128.541 16.3623 125.801 14.0955Z" fill="#BC3432" stroke="white"/>
</svg>
