<svg width="50" height="50" viewBox="0 0 50 50" fill="none" xmlns="http://www.w3.org/2000/svg">
<g clip-path="url(#clip0_106_2)">
<path d="M0 50L3.44824 37.5C1.20693 33.6207 0 29.3104 0 24.8275C0 11.2069 11.2069 0 24.9138 0C38.6206 0 50 11.2069 50 24.8275C50 38.4481 38.6207 50 24.9138 50C20.6034 50 16.4655 48.6207 12.7586 46.5518L0 50Z" fill="#EDEDED"/>
<path d="M13.4484 42.0689L14.2243 42.5C17.414 44.4827 21.1209 45.6896 25.0002 45.6896C36.2933 45.6896 45.6898 36.293 45.6898 24.8275C45.6898 13.362 36.2933 4.3103 24.914 4.3103C13.5347 4.3103 4.31055 13.4482 4.31055 24.8275C4.31055 28.793 5.43125 32.6723 7.5002 35.9482L8.01748 36.7241L6.03477 43.9655L13.4484 42.0689Z" fill="#55CD6C"/>
<path d="M18.2759 13.2759L16.638 13.1897C16.1207 13.1897 15.6035 13.3622 15.2587 13.707C14.4828 14.3966 13.1898 15.6897 12.8449 17.4139C12.2415 20.0001 13.1898 23.1036 15.4312 26.207C17.6726 29.3104 21.9829 34.3104 29.5691 36.4656C31.9828 37.1552 33.8794 36.7242 35.4312 35.7759C36.6381 35 37.4139 33.7932 37.6726 32.5L37.9312 31.2931C38.0174 30.9483 37.8449 30.5172 37.5001 30.3449L32.0691 27.8449C31.7242 27.6724 31.2932 27.7586 31.0346 28.1035L28.8794 30.8621C28.7069 31.0345 28.4484 31.1207 28.1898 31.0345C26.7242 30.5172 21.8105 28.4483 19.138 23.2759C19.0518 23.0173 19.0518 22.7586 19.2242 22.5863L21.2932 20.2587C21.4656 20.0001 21.5518 19.6553 21.4656 19.3966L18.9656 13.7932C18.8793 13.5345 18.6207 13.2759 18.2759 13.2759Z" fill="#FEFEFE"/>
</g>
<defs>
<clipPath id="clip0_106_2">
<rect width="50" height="50" fill="white"/>
</clipPath>
</defs>
</svg>
