<svg width="1600" height="602" viewBox="0 0 1600 602" fill="none" xmlns="http://www.w3.org/2000/svg">
<rect width="1600" height="602" fill="#00769D"/>
<mask id="mask0_1229_2993" style="mask-type:alpha" maskUnits="userSpaceOnUse" x="0" y="0" width="1600" height="602">
<rect width="1600" height="602" fill="#00769D"/>
</mask>
<g mask="url(#mask0_1229_2993)">
<path d="M1928.68 -39.1441C2022.28 88.7019 2060.77 274.885 2009.3 438.287C1960.72 602.299 1822.18 743.532 1628.43 795.566C1433.95 851.333 1234.31 814.779 1078.05 760.522C1070.5 757.815 1062.87 755.739 1055.7 752.256C858.977 656.786 656.805 324.77 904.334 144.902C1006.76 70.4758 1085.27 133.114 1221.79 14.2927C1361.52 -103.717 1479.09 -188.25 1597.86 -204.055C1714.69 -220.934 1832.73 -169.085 1928.68 -39.1441Z" fill="#0887B2"/>
</g>
<mask id="mask1_1229_2993" style="mask-type:alpha" maskUnits="userSpaceOnUse" x="0" y="0" width="1600" height="602">
<rect width="1600" height="602" fill="#00769D"/>
</mask>
<g mask="url(#mask1_1229_2993)">
<path d="M1928.68 -39.1441C2022.28 88.7019 2060.77 274.885 2009.3 438.287C1960.72 602.299 1822.18 743.532 1628.43 795.566C1433.95 851.333 1234.31 814.779 1078.05 760.522C1070.5 757.815 1062.87 755.739 1055.7 752.256C858.977 656.786 656.805 324.77 904.334 144.902C1006.76 70.4758 1085.27 133.114 1221.79 14.2927C1361.52 -103.717 1479.09 -188.25 1597.86 -204.055C1714.69 -220.934 1832.73 -169.085 1928.68 -39.1441Z" fill="#0887B2"/>
</g>
<mask id="mask2_1229_2993" style="mask-type:alpha" maskUnits="userSpaceOnUse" x="0" y="0" width="1600" height="602">
<rect width="1600" height="602" fill="#00769D"/>
</mask>
<g mask="url(#mask2_1229_2993)">
<path d="M1928.68 -39.1441C2022.28 88.7019 2060.77 274.885 2009.3 438.287C1960.72 602.299 1822.18 743.532 1628.43 795.566C1433.95 851.333 1234.31 814.779 1078.05 760.522C1070.5 757.815 1062.87 755.739 1055.7 752.256C858.977 656.786 656.805 324.77 904.334 144.902C1006.76 70.4758 1085.27 133.114 1221.79 14.2927C1361.52 -103.717 1479.09 -188.25 1597.86 -204.055C1714.69 -220.934 1832.73 -169.085 1928.68 -39.1441Z" fill="#0887B2"/>
</g>
</svg>
