<svg width="217" height="214" viewBox="0 0 217 214" fill="none" xmlns="http://www.w3.org/2000/svg">
<g clip-path="url(#clip0_568_354)">
<path d="M180.481 41.2081C180.331 40.1276 179.371 39.5299 178.58 39.4647C177.788 39.3995 162.342 39.168 162.342 39.168C162.342 39.168 149.423 26.7948 148.147 25.5355C146.871 24.2762 144.378 24.6582 143.41 24.9391C143.396 24.9432 140.986 25.6793 136.918 26.9211C136.24 24.7468 135.239 22.0764 133.812 19.393C129.212 10.7394 122.478 6.15888 114.338 6.14718C114.329 6.14718 114.32 6.14718 114.31 6.14718C113.746 6.14718 113.184 6.19942 112.621 6.25C112.382 5.96578 112.14 5.68407 111.885 5.41531C108.342 1.67491 103.791 -0.147432 98.3444 0.0101419C87.83 0.307318 77.3644 7.79439 68.8756 21.0908C62.9 30.4491 58.3604 42.2053 57.0694 51.3041C44.9996 54.9902 36.5549 57.5695 36.3722 57.6259C30.2797 59.5113 30.0881 59.7003 29.2892 65.3608C28.6844 69.6463 12.7446 191.216 12.7446 191.216L146.35 214L204.255 199.806C204.255 199.806 180.63 42.2885 180.481 41.2081ZM64.5542 49.0178C68.1669 32.3593 82.3211 7.36765 98.5465 6.90746C101.015 6.85647 103.094 7.39063 104.869 8.54297C102.03 9.99709 99.2827 12.0869 96.7063 14.8121C90.0284 21.8766 84.9132 32.8458 82.8734 43.4233C76.5075 45.3673 70.2818 47.2686 64.5542 49.0178ZM112.868 34.2644C105.869 36.4014 98.2278 38.735 90.5624 41.0756C92.7206 32.9344 96.8054 24.8287 101.825 19.5184C103.693 17.5431 106.305 15.3387 109.398 14.0802C112.308 20.0601 112.938 28.5373 112.868 34.2644ZM119.857 32.1302C119.779 26.8801 119.144 19.5778 116.664 13.2652C124.641 14.7557 128.568 23.6567 130.226 28.9641C127.152 29.9024 123.65 30.9716 119.857 32.1302Z" fill="#95BF47"/>
<path d="M178.58 39.4647C177.788 39.3995 162.342 39.1679 162.342 39.1679C162.342 39.1679 149.423 26.7948 148.147 25.5355C147.671 25.0657 147.025 24.8253 146.353 24.7217L146.356 213.999L204.255 199.806C204.255 199.806 180.631 42.2885 180.481 41.208C180.33 40.1276 179.371 39.5299 178.58 39.4647Z" fill="#5E8E3E"/>
<path d="M114.261 68.8262L107.535 93.6372C107.535 93.6372 100.033 90.2684 91.1393 90.8222C78.0985 91.6343 77.9599 99.7466 78.09 101.78C78.8003 112.876 108.401 115.301 110.065 141.291C111.375 161.739 99.0674 175.726 81.334 176.83C60.054 178.155 48.3364 165.772 48.3364 165.772L52.8455 146.853C52.8455 146.853 64.6377 155.627 74.0772 155.039C80.2431 154.655 82.4461 149.709 82.2223 146.212C81.2954 131.737 57.1915 132.589 55.6687 108.806C54.387 88.7883 67.7155 68.5098 97.1258 66.6782C108.458 65.9731 114.261 68.8262 114.261 68.8262Z" fill="white"/>
</g>
<defs>
<clipPath id="clip0_568_354">
<rect width="217" height="214" fill="white"/>
</clipPath>
</defs>
</svg>
