<svg width="250" height="250" viewBox="0 0 250 250" fill="none" xmlns="http://www.w3.org/2000/svg">
<rect width="250" height="250" rx="10" fill="#BC3432"/>
<path d="M29.13 185V70.52H75.399C76.512 70.52 77.89 70.573 79.533 70.679C81.176 70.732 82.7395 70.891 84.2235 71.156C90.5835 72.163 95.8835 74.336 100.123 77.675C104.417 81.014 107.623 85.2275 109.743 90.3155C111.863 95.4035 112.923 101.021 112.923 107.169C112.923 113.37 111.863 119.015 109.743 124.103C107.623 129.191 104.417 133.404 100.123 136.743C95.8835 140.082 90.5835 142.255 84.2235 143.262C82.7395 143.474 81.1495 143.633 79.4535 143.739C77.8105 143.845 76.459 143.898 75.399 143.898H45.7455V185H29.13ZM45.7455 128.157H74.763C75.823 128.157 76.989 128.104 78.261 127.998C79.586 127.892 80.8315 127.707 81.9975 127.442C85.3895 126.647 88.119 125.189 90.186 123.069C92.253 120.896 93.737 118.405 94.638 115.596C95.539 112.787 95.9895 109.978 95.9895 107.169C95.9895 104.36 95.539 101.578 94.638 98.822C93.737 96.013 92.253 93.5485 90.186 91.4285C88.119 89.2555 85.3895 87.7715 81.9975 86.9765C80.8315 86.6585 79.586 86.4465 78.261 86.3405C76.989 86.2345 75.823 86.1815 74.763 86.1815H45.7455V128.157ZM174.449 187.385C165.492 187.385 157.568 185.557 150.678 181.899C143.841 178.189 138.488 173.022 134.619 166.397C130.75 159.719 128.816 151.875 128.816 142.865V70.5995L145.67 70.52V141.99C145.67 146.866 146.491 151.159 148.134 154.869C149.777 158.579 151.977 161.68 154.733 164.171C157.489 166.662 160.563 168.543 163.955 169.815C167.4 171.087 170.898 171.723 174.449 171.723C178.053 171.723 181.551 171.087 184.943 169.815C188.388 168.49 191.488 166.582 194.244 164.091C197 161.6 199.173 158.5 200.763 154.79C202.406 151.08 203.228 146.813 203.228 141.99V70.52H220.082V142.865C220.082 151.822 218.147 159.639 214.278 166.317C210.409 172.995 205.03 178.189 198.14 181.899C191.303 185.557 183.406 187.385 174.449 187.385Z" fill="white"/>
</svg>
