<svg width="40" height="40" viewBox="0 0 40 40" fill="none" xmlns="http://www.w3.org/2000/svg">
<path d="M22.4269 40L19.1976 32.4121C22.3081 31.263 25.2204 29.7177 27.9148 27.9148L22.4269 40M7.58791 20.8024L0 17.5731L12.0852 12.0852C10.2823 14.7796 8.737 17.6919 7.58791 20.8024ZM34.4923 3.96236C35.0471 3.96236 35.5423 3.96236 35.9584 4.06142C36.2952 6.81526 35.9188 12.4814 29.4205 18.9797C26.0525 22.3675 22.0307 24.9629 17.5136 26.6865L13.2541 22.526C15.0768 17.9495 17.6721 13.9277 21.0203 10.5795C26.4884 5.11144 31.3621 3.96236 34.4923 3.96236ZM34.4923 0C30.5696 0 24.6261 1.36701 18.207 7.78603C13.8683 12.1248 11.2729 16.8995 9.58891 21.0797C9.03418 22.5656 9.4106 24.1902 10.5002 25.2997L14.7202 29.4998C15.473 30.2526 16.4834 30.7083 17.5334 30.7083C17.9891 30.7083 18.4646 30.5894 18.9203 30.4111C23.91 28.5086 28.4405 25.5715 32.214 21.793C43.4274 10.5795 39.2273 0.77266 39.2273 0.77266C39.2273 0.77266 37.4245 0 34.4923 0ZM25.2204 14.7796C23.6751 13.2343 23.6751 10.7182 25.2204 9.17286C26.7657 7.62754 29.2818 7.62754 30.8271 9.17286C32.3527 10.7182 32.3725 13.2343 30.8271 14.7796C29.2818 16.3249 26.7657 16.3249 25.2204 14.7796M14.0069 28.7865L11.2135 25.9931L14.0069 28.7865ZM8.77662 39.6236L15.9881 32.4121C15.3145 32.2338 14.6607 31.9366 14.0664 31.5206L5.98316 39.6236H8.77662ZM0.376424 39.6236H3.16989L12.6201 30.1932L9.80684 27.3997L0.376424 36.8301V39.6236ZM0.376424 34.0168L8.47945 25.9336C8.0634 25.3393 7.76622 24.7053 7.58791 24.0119L0.376424 31.2234V34.0168Z" fill="#BC3432"/>
</svg>
