<svg width="40" height="40" viewBox="0 0 40 40" fill="none" xmlns="http://www.w3.org/2000/svg">
<g clip-path="url(#clip0_499_1200)">
<path d="M21.4665 33.2469H18.4927C16.9367 33.2469 15.6704 31.9807 15.6704 30.4251C15.6704 30.0242 15.4483 29.6616 15.0909 29.478C14.7853 29.3208 14.4832 29.1465 14.1939 28.9608C13.8567 28.7439 13.433 28.7329 13.087 28.9332C12.4341 29.3103 11.6732 29.4104 10.9452 29.215C10.2168 29.0201 9.60828 28.5529 9.23157 27.9L7.7449 25.3249C7.36775 24.672 7.26764 23.9116 7.46302 23.1832C7.65797 22.4548 8.12513 21.8462 8.77802 21.4695C9.124 21.2698 9.32684 20.8974 9.30796 20.4974C9.29128 20.1545 9.29128 19.8055 9.30796 19.4608C9.32728 19.0617 9.12707 18.6898 8.78416 18.4896C8.78197 18.4883 8.77977 18.487 8.77758 18.4857C8.12469 18.1085 7.65753 17.5 7.46258 16.772C7.2672 16.0436 7.36775 15.2831 7.74446 14.6302L9.23113 12.0551C10.0096 10.7077 11.7386 10.2449 13.0861 11.022C13.4325 11.2222 13.8685 11.2047 14.2233 10.9772C14.3581 10.8908 14.4964 10.8065 14.6369 10.7252C14.7787 10.6436 14.9201 10.5658 15.0628 10.4921C15.4373 10.2985 15.67 9.92965 15.67 9.52966C15.67 7.97362 16.9362 6.70737 18.4923 6.70737H21.466C23.0221 6.70737 24.2883 7.97362 24.2883 9.52966C24.2883 9.93053 24.5105 10.2928 24.8679 10.4763C25.1739 10.6335 25.4756 10.8078 25.7653 10.9944C26.1017 11.2113 26.5262 11.2209 26.8722 11.0216C28.2197 10.244 29.9496 10.7068 30.7272 12.0543L32.2143 14.6298C32.9923 15.9769 32.5291 17.7063 31.1812 18.4848C31.1768 18.4874 31.172 18.49 31.168 18.4927C30.8295 18.6942 30.6319 19.0621 30.6512 19.4569C30.6679 19.8015 30.6679 20.1501 30.6512 20.4935C30.6315 20.8948 30.8343 21.268 31.1803 21.4678C31.1886 21.4726 31.1965 21.477 31.2044 21.4823C31.845 21.8599 32.3039 22.4627 32.4962 23.1823C32.6916 23.9107 32.5914 24.6712 32.2147 25.3241L30.7281 27.8992C29.9492 29.2466 28.2197 29.7103 26.8727 28.9327C26.5262 28.7325 26.0916 28.7496 25.7355 28.9775C25.6007 29.064 25.4628 29.1483 25.3232 29.2291C25.1814 29.3107 25.0391 29.388 24.8964 29.4618C24.5215 29.6558 24.2888 30.0251 24.2888 30.4242C24.2888 31.9807 23.023 33.2469 21.4665 33.2469ZM13.6182 27.0329C14.1486 27.0329 14.6781 27.1839 15.144 27.4838C15.3859 27.6392 15.6388 27.785 15.8943 27.9167C16.8392 28.4023 17.4267 29.3634 17.4267 30.4238C17.4267 31.013 17.9052 31.4916 18.4932 31.4916H21.4669C22.0548 31.4916 22.5338 31.013 22.5338 30.4246C22.5338 29.3665 23.1301 28.4001 24.0899 27.9031C24.208 27.8416 24.3265 27.7775 24.4438 27.7099C24.5606 27.6423 24.676 27.5721 24.7893 27.4996C25.6982 26.9161 26.8336 26.8827 27.7508 27.4131C28.2597 27.7064 28.9134 27.5317 29.2076 27.0223L30.6943 24.4472C30.837 24.2005 30.8747 23.9133 30.801 23.6376C30.7272 23.3623 30.5507 23.1327 30.3044 22.9904C30.2965 22.9856 30.289 22.9812 30.2807 22.9764C29.3758 22.4434 28.8467 21.4621 28.8981 20.4092C28.9121 20.1225 28.9121 19.8314 28.8981 19.5434C28.8471 18.4839 29.3854 17.4964 30.3035 16.9661C30.3079 16.9634 30.3127 16.9608 30.3171 16.9582C30.8163 16.6605 30.9862 16.0137 30.6947 15.5088L29.2076 12.9333C28.9139 12.4244 28.2605 12.2492 27.7508 12.5429C26.8314 13.0733 25.7074 13.0457 24.8157 12.4718C24.5733 12.316 24.3208 12.1702 24.0657 12.0389C23.1209 11.5533 22.5334 10.5926 22.5334 9.53186C22.5334 8.94263 22.0548 8.46406 21.4665 8.46406H18.4927C17.9048 8.46406 17.4262 8.94263 17.4262 9.53054C17.4262 10.5896 16.83 11.5559 15.8698 12.0521C15.7508 12.1135 15.6327 12.1781 15.515 12.2461C15.3986 12.3133 15.2836 12.3831 15.1708 12.4556C14.2601 13.0386 13.1252 13.0716 12.2088 12.5425C11.6995 12.2483 11.0458 12.4235 10.7516 12.9333L9.26494 15.5084C9.12224 15.7551 9.08492 16.0423 9.15824 16.3176C9.23113 16.5907 9.40544 16.8194 9.64912 16.9621C9.65131 16.9634 9.65395 16.9647 9.65614 16.9661C10.5742 17.4964 11.1125 18.4852 11.0607 19.5469C11.0467 19.8349 11.0467 20.1264 11.0607 20.4127C11.1121 21.4726 10.5738 22.4601 9.6557 22.99C9.40851 23.1323 9.23201 23.3623 9.15824 23.6376C9.08448 23.9129 9.12224 24.2005 9.26494 24.4472L10.7516 27.0223C10.8943 27.2691 11.1244 27.4456 11.3992 27.5194C11.6745 27.5931 11.9617 27.5554 12.2084 27.4131C12.6475 27.1589 13.1331 27.0329 13.6182 27.0329ZM19.9904 26.3607C17.7819 26.3607 15.6318 25.2156 14.4507 23.1696C12.6905 20.1207 13.739 16.2082 16.7874 14.4485C18.264 13.5958 19.9855 13.3693 21.632 13.8105C23.2794 14.2518 24.6563 15.3082 25.5085 16.7852C26.3607 18.2622 26.5877 19.9824 26.1465 21.6298C25.7052 23.2771 24.6488 24.654 23.1718 25.5063C22.169 26.0854 21.0726 26.3607 19.9904 26.3607ZM15.9712 22.2919C16.5894 23.3623 17.5878 24.1285 18.7821 24.4486C19.9763 24.7686 21.2237 24.6036 22.2946 23.9858C23.3654 23.368 24.1312 22.37 24.4512 21.1754C24.7709 19.9811 24.6067 18.7337 23.9885 17.6629C23.3703 16.5924 22.3727 15.8263 21.178 15.5062C19.9851 15.1865 18.7368 15.3508 17.6655 15.9685C15.4548 17.2449 14.6953 20.0816 15.9712 22.2919Z" fill="black"/>
<path d="M4.12705 31.0955C3.83859 31.0955 3.55627 30.9537 3.38855 30.6933C-0.645557 24.4358 -0.84094 16.5463 2.8788 10.1039C5.51581 5.53593 9.77427 2.26887 14.8687 0.903385C19.964 -0.46166 25.2859 0.239084 29.853 2.87609C30.2732 3.11846 30.4168 3.65543 30.1744 4.07517C29.9316 4.49448 29.396 4.63937 28.9754 4.39657C24.813 1.99402 19.9649 1.35606 15.3231 2.59904C10.6814 3.84291 6.80182 6.82019 4.39883 10.9816C1.00971 16.8519 1.18797 24.0402 4.86424 29.7419C5.1268 30.1493 5.00957 30.6925 4.60212 30.9555C4.45459 31.0503 4.28994 31.0955 4.12705 31.0955Z" fill="black"/>
<path d="M19.9478 39.7332C16.5257 39.7332 13.1489 38.8357 10.1062 37.0791C9.68645 36.8363 9.54244 36.2993 9.7848 35.88C10.0272 35.4598 10.5641 35.3162 10.9839 35.5586C15.1458 37.9616 19.9943 38.6004 24.6361 37.3561C29.2779 36.1122 33.1574 33.1354 35.5604 28.9735C38.6255 23.6653 38.7866 17.2339 35.992 11.7689C35.7712 11.3373 35.9419 10.8082 36.3735 10.5878C36.8065 10.3669 37.3347 10.5386 37.5546 10.9698C40.6219 16.9669 40.4445 24.0253 37.0809 29.8512C34.4434 34.4192 30.185 37.6867 25.0905 39.0522C23.3896 39.5071 21.6628 39.7332 19.9478 39.7332Z" fill="black"/>
<path d="M31.3687 7.90819C30.8365 7.90819 30.2974 7.77296 29.8039 7.48801C28.304 6.62218 27.7881 4.69733 28.6539 3.19749C29.0737 2.47085 29.7507 1.95143 30.5612 1.7341C31.3726 1.51764 32.2183 1.62828 32.9449 2.04803C34.4447 2.91386 34.9606 4.83871 34.0948 6.33855C33.5131 7.34444 32.4545 7.90819 31.3687 7.90819ZM31.3761 3.3819C31.2558 3.3819 31.1347 3.39771 31.0152 3.42976C30.6578 3.52547 30.3588 3.75466 30.1744 4.07518C29.7924 4.73641 30.0203 5.58555 30.6815 5.96754C31.3436 6.34908 32.1915 6.12165 32.5743 5.46042C32.9559 4.79919 32.728 3.95049 32.0668 3.5685C31.8534 3.44512 31.6163 3.3819 31.3761 3.3819Z" fill="black"/>
<path d="M31.3687 7.90819C30.8365 7.90819 30.2974 7.77296 29.8039 7.48801C28.304 6.62218 27.7881 4.69733 28.6539 3.19749C29.0737 2.47085 29.7507 1.95143 30.5612 1.7341C31.3726 1.51764 32.2183 1.62828 32.9449 2.04803C34.4447 2.91386 34.9606 4.83871 34.0948 6.33855C33.5131 7.34444 32.4545 7.90819 31.3687 7.90819ZM31.3761 3.3819C31.2558 3.3819 31.1347 3.39771 31.0152 3.42976C30.6578 3.52547 30.3588 3.75466 30.1744 4.07518C29.7924 4.73641 30.0203 5.58555 30.6815 5.96754C31.3436 6.34908 32.1915 6.12165 32.5743 5.46042C32.9559 4.79919 32.728 3.95049 32.0668 3.5685C31.8534 3.44512 31.6163 3.3819 31.3761 3.3819Z" fill="black"/>
<path d="M8.57996 38.3295C8.03597 38.3295 7.49899 38.1868 7.01471 37.9071C5.51487 37.0413 4.99941 35.1165 5.86524 33.6166C6.73107 32.1163 8.65636 31.6022 10.1558 32.4671C10.8824 32.8869 11.4018 33.5639 11.6192 34.3744C11.8361 35.1845 11.725 36.031 11.3052 36.7577C10.8859 37.4843 10.2084 38.0042 9.39838 38.2215C9.12792 38.2935 8.85306 38.3295 8.57996 38.3295ZM7.38571 34.4943C7.00373 35.156 7.23116 36.0047 7.89283 36.3867C8.21335 36.5719 8.58611 36.6216 8.94395 36.525C9.30134 36.4293 9.59991 36.2001 9.78519 35.8795C9.97004 35.559 10.0192 35.1863 9.9235 34.8284C9.82778 34.471 9.59859 34.172 9.27807 33.9876C8.61685 33.6061 7.76814 33.8331 7.38571 34.4943Z" fill="black"/>
</g>
<defs>
<clipPath id="clip0_499_1200">
<rect width="40" height="40" fill="white"/>
</clipPath>
</defs>
</svg>
