<svg width="37" height="40" viewBox="0 0 37 40" fill="none" xmlns="http://www.w3.org/2000/svg">
<path d="M20.416 23.3905C20.7354 23.3383 20.9519 23.037 20.8996 22.7177C20.6259 21.0452 19.7633 19.5136 18.4707 18.4048C17.1635 17.2835 15.494 16.666 13.7695 16.666C9.78477 16.666 6.54297 19.9078 6.54297 23.8926C6.54297 27.8773 9.78477 31.1191 13.7695 31.1191C17.072 31.1191 19.9508 28.8875 20.7699 25.6922C20.8503 25.3787 20.6613 25.0595 20.3479 24.9791C20.0344 24.8987 19.7151 25.0877 19.6348 25.4011C18.9485 28.0778 16.5366 29.9472 13.7695 29.9472C10.4309 29.9472 7.71484 27.231 7.71484 23.8925C7.71484 20.554 10.4309 17.8378 13.7695 17.8378C15.2142 17.8378 16.6129 18.3551 17.7077 19.2942C18.7911 20.2235 19.5139 21.5065 19.7431 22.9069C19.7953 23.2263 20.0964 23.4429 20.416 23.3905Z" fill="black"/>
<path d="M13.7698 19.2754C11.2238 19.2754 9.15234 21.3468 9.15234 23.893C9.15234 26.4391 11.2238 28.5105 13.7698 28.5105C16.316 28.5105 18.3874 26.4391 18.3874 23.893C18.3874 21.3468 16.316 19.2754 13.7698 19.2754ZM13.7698 27.3386C11.8699 27.3386 10.3242 25.7929 10.3242 23.893C10.3242 21.993 11.8699 20.4473 13.7698 20.4473C15.6698 20.4473 17.2155 21.993 17.2155 23.893C17.2155 25.7929 15.6698 27.3386 13.7698 27.3386Z" fill="black"/>
<path d="M13.7699 21.6113C12.5118 21.6113 11.4883 22.6349 11.4883 23.893C11.4883 25.151 12.5118 26.1746 13.7699 26.1746C15.028 26.1746 16.0516 25.151 16.0516 23.893C16.0516 22.6349 15.028 21.6113 13.7699 21.6113ZM13.7699 25.0027C13.158 25.0027 12.6602 24.5048 12.6602 23.893C12.6602 23.2811 13.158 22.7832 13.7699 22.7832C14.3819 22.7832 14.8797 23.2811 14.8797 23.893C14.8797 24.5048 14.3819 25.0027 13.7699 25.0027Z" fill="black"/>
<path d="M33.2905 24.7236V21.0156C33.2905 20.692 33.0281 20.4297 32.7045 20.4297C32.3809 20.4297 32.1186 20.692 32.1186 21.0156V23.9903C31.3578 23.5965 30.5302 23.3149 29.6575 23.1669V14.2266C29.6575 13.7742 29.2895 13.4062 28.8372 13.4062H27.4915L30.8839 8.79523L34.2184 13.4062H32.9389C32.4866 13.4062 32.1186 13.7742 32.1186 14.2266V18.2812C32.1186 18.6048 32.3809 18.8672 32.7045 18.8672C33.0281 18.8672 33.2905 18.6048 33.2905 18.2812V14.5781H34.9065C35.2161 14.5781 35.496 14.4069 35.637 14.1311C35.7779 13.8553 35.7527 13.5281 35.5713 13.277L31.5511 7.71805C31.3981 7.50641 31.1509 7.37945 30.8897 7.37836C30.8886 7.37836 30.8875 7.37836 30.8864 7.37836C30.6265 7.37836 30.3797 7.50313 30.2256 7.7125L26.1355 13.2717C25.9512 13.5223 25.9239 13.8505 26.0642 14.128C26.2046 14.4057 26.4852 14.5781 26.7962 14.5781H28.4855V23.0509C28.4023 23.0484 28.3188 23.0469 28.2349 23.0469C27.9924 23.0469 27.7524 23.0577 27.515 23.0777C27.4961 22.748 27.4671 22.4189 27.4245 22.0933C27.3466 21.4987 26.834 21.0502 26.2321 21.0502H23.3357C23.3227 21.0502 23.3115 21.0408 23.3071 21.0262C23.1152 20.3862 22.8576 19.7639 22.5413 19.1766C22.534 19.163 22.5352 19.1482 22.5445 19.139L24.5916 17.0918C25.0172 16.6663 25.0625 15.9866 24.6971 15.5109C24.4966 15.2499 24.2861 14.997 24.0677 14.7512V7.19984H25.6837C25.9934 7.19984 26.2733 7.02852 26.4142 6.75273C26.5551 6.47695 26.5299 6.14977 26.3484 5.89883L22.3286 0.339687C22.1756 0.128125 21.9284 0.00109375 21.6673 0C21.6661 0 21.665 0 21.6638 0C21.404 0 21.1572 0.124766 21.003 0.334141L16.913 5.89336C16.7286 6.14398 16.7013 6.47211 16.8416 6.74969C16.982 7.02734 17.2626 7.19977 17.5737 7.19977H19.263V14.3806L18.5246 15.119C18.5154 15.1281 18.5006 15.1294 18.487 15.1221C17.8998 14.8059 17.2775 14.5483 16.6373 14.3563C16.6227 14.352 16.6134 14.3408 16.6134 14.3277V11.4313C16.6134 10.8295 16.1649 10.3169 15.5703 10.239C14.3821 10.0834 13.1594 10.0834 11.9712 10.239C11.3766 10.3168 10.9282 10.8294 10.9282 11.4313V14.3277C10.9282 14.3408 10.9188 14.352 10.9042 14.3563C10.2642 14.5483 9.64188 14.8059 9.05453 15.1221C9.04094 15.1294 9.02609 15.1282 9.01703 15.119L6.96984 13.0718C6.5443 12.6462 5.86461 12.6009 5.38898 12.9663C4.43422 13.6998 3.57805 14.5559 2.84445 15.5109C2.47906 15.9866 2.52438 16.6662 2.94992 17.0917L4.99711 19.1389C5.00633 19.1481 5.00758 19.1629 5.00023 19.1765C4.68406 19.7638 4.42641 20.3861 4.23453 21.0262C4.23016 21.0407 4.21899 21.0502 4.20594 21.0502H1.30953C0.707656 21.0502 0.195 21.4986 0.117188 22.0932C0.039375 22.6873 0 23.2927 0 23.8927C0 24.4927 0.0394531 25.0982 0.117188 25.6923C0.195 26.2869 0.707656 26.7353 1.30953 26.7353H4.20594C4.21899 26.7353 4.23016 26.7448 4.23453 26.7593C4.42648 27.3993 4.68406 28.0216 5.00031 28.609C5.00766 28.6226 5.00641 28.6373 4.99719 28.6465L2.94992 30.6938C2.52438 31.1193 2.47906 31.7989 2.84453 32.2746C3.57813 33.2295 4.4343 34.0856 5.38906 34.8191C5.86469 35.1846 6.54438 35.1392 6.96992 34.7137L9.01711 32.6665C9.02641 32.6573 9.04109 32.656 9.05469 32.6634C9.64219 32.9796 10.2645 33.2373 10.9044 33.4291C10.919 33.4334 10.9284 33.4446 10.9284 33.4577V36.3541C10.9284 36.9559 11.3767 37.4685 11.9714 37.5464C12.5655 37.6242 13.171 37.6636 13.7709 37.6636C14.3707 37.6636 14.9762 37.6242 15.5705 37.5464C16.165 37.4684 16.6134 36.9559 16.6134 36.3541V33.4577C16.6134 33.4446 16.6229 33.4334 16.6373 33.4291C17.2773 33.2372 17.8997 32.9796 18.487 32.6634C18.5007 32.656 18.5154 32.6572 18.5247 32.6665L20.263 34.4048C21.4449 37.6647 24.5722 40 28.235 40C32.909 40 36.7116 36.1974 36.7116 31.5234C36.7116 28.7425 35.3653 26.2702 33.2905 24.7236ZM18.2689 6.02797L21.6614 1.41695L24.9959 6.02797H23.7164C23.2641 6.02797 22.8961 6.39594 22.8961 6.84828V13.5809C22.6555 13.3679 22.408 13.1624 22.1528 12.9664C21.6772 12.6009 20.9975 12.6463 20.572 13.0719L20.435 13.2088V6.84828C20.435 6.39594 20.067 6.02797 19.6147 6.02797H18.2689ZM19.7923 32.277L19.3533 31.8379C18.9755 31.4602 18.4043 31.3772 17.9316 31.6316C17.4137 31.9103 16.8651 32.1374 16.3008 32.3066C15.7868 32.4608 15.4416 32.9234 15.4416 33.4577V36.3541C15.4416 36.3692 15.4311 36.3829 15.4184 36.3845C14.3304 36.5269 13.2113 36.5269 12.1236 36.3845C12.1107 36.3829 12.1003 36.3692 12.1003 36.3541V33.4577C12.1003 32.9234 11.755 32.4608 11.241 32.3066C10.6768 32.1375 10.1281 31.9104 9.61024 31.6316C9.42758 31.5332 9.23023 31.4853 9.03492 31.4853C8.72492 31.4853 8.42023 31.6061 8.18852 31.8379L6.14133 33.8851C6.13063 33.8958 6.11336 33.8979 6.10289 33.8899C5.22891 33.2185 4.44531 32.4349 3.77375 31.5608C3.7657 31.5503 3.76789 31.5331 3.77852 31.5224L5.8257 29.4752C6.20352 29.0974 6.28641 28.526 6.03203 28.0535C5.75328 27.5358 5.52617 26.9871 5.35695 26.4227C5.20281 25.9088 4.74023 25.5634 4.20586 25.5634H1.30953C1.29445 25.5634 1.28086 25.553 1.27914 25.5402C1.20789 24.9963 1.1718 24.4421 1.1718 23.8928C1.1718 23.3435 1.20789 22.7893 1.27914 22.2455C1.28078 22.2326 1.29445 22.2222 1.30953 22.2222H4.20594C4.74031 22.2222 5.20289 21.8769 5.35703 21.363C5.52625 20.7986 5.75336 20.2499 6.03211 19.7322C6.28648 19.2596 6.20359 18.6883 5.82578 18.3105L3.77859 16.2633C3.76789 16.2526 3.76578 16.2354 3.77383 16.225C4.44539 15.3509 5.22898 14.5672 6.10297 13.8959C6.11344 13.8878 6.13063 13.89 6.14133 13.9006L8.18852 15.9478C8.56633 16.3256 9.13774 16.4084 9.61024 16.1541C10.128 15.8754 10.6766 15.6483 11.2409 15.4791C11.7549 15.325 12.1003 14.8624 12.1003 14.328V11.4316C12.1003 11.4165 12.1107 11.4029 12.1236 11.4012C13.2112 11.2587 14.3306 11.2587 15.4184 11.4012C15.4312 11.4028 15.4416 11.4165 15.4416 11.4316V14.328C15.4416 14.8624 15.787 15.325 16.3009 15.4791C16.8653 15.6484 17.414 15.8755 17.9316 16.1541C18.4041 16.4086 18.9755 16.3257 19.3534 15.9479L21.4006 13.9006C21.4113 13.89 21.4284 13.8879 21.4389 13.8959C22.313 14.5673 23.0966 15.3509 23.768 16.225C23.7761 16.2355 23.774 16.2527 23.7633 16.2634L21.7161 18.3105C21.3383 18.6884 21.2554 19.2597 21.5098 19.7323C21.7885 20.25 22.0156 20.7987 22.1848 21.363C22.339 21.877 22.8016 22.2223 23.3359 22.2223H26.2323C26.2474 22.2223 26.261 22.2327 26.2627 22.2455C26.3066 22.5803 26.3353 22.9191 26.3521 23.2581C22.5814 24.1167 19.7586 27.4966 19.7586 31.5236C19.7584 31.7773 19.7703 32.0286 19.7923 32.277ZM28.235 38.8281C24.2072 38.8281 20.9303 35.5513 20.9303 31.5234C20.9303 27.4956 24.2072 24.2188 28.235 24.2188C32.2628 24.2188 35.5397 27.4956 35.5397 31.5234C35.5397 35.5513 32.2628 38.8281 28.235 38.8281Z" fill="black"/>
<path d="M33.5122 30.643C33.5652 30.9622 33.8668 31.178 34.1862 31.1248C34.5055 31.0718 34.7212 30.77 34.6681 30.4508C34.4179 28.9455 33.6377 27.5664 32.4711 26.5673C31.2911 25.5566 29.7864 25 28.2344 25C24.6373 25 21.7109 27.9264 21.7109 31.5234C21.7109 35.1205 24.6373 38.0469 28.2344 38.0469C29.6531 38.0469 31.003 37.5973 32.1383 36.747C33.2351 35.9253 34.0616 34.7563 34.4658 33.4551C34.5618 33.146 34.3891 32.8177 34.08 32.7217C33.771 32.6258 33.4426 32.7985 33.3466 33.1075C33.0152 34.1748 32.3365 35.1342 31.4357 35.8091C30.5048 36.5064 29.3978 36.875 28.2344 36.875C25.2835 36.875 22.8828 34.4743 22.8828 31.5234C22.8828 28.5726 25.2835 26.1719 28.2344 26.1719C29.507 26.1719 30.7409 26.6284 31.7089 27.4574C32.6666 28.2777 33.307 29.409 33.5122 30.643Z" fill="black"/>
<path d="M28.2344 26.7578C27.9108 26.7578 27.6484 27.0202 27.6484 27.3438V31.5234C27.6484 31.7382 27.7659 31.9358 27.9547 32.0383C28.0421 32.0857 28.1384 32.1093 28.2343 32.1093C28.3456 32.1093 28.4566 32.0777 28.5534 32.0148L31.2168 30.2859C31.4883 30.1098 31.5654 29.7469 31.3893 29.4754C31.213 29.204 30.8501 29.1269 30.5787 29.3029L28.8202 30.4444V27.3438C28.8203 27.0202 28.558 26.7578 28.2344 26.7578Z" fill="black"/>
</svg>
