<svg width="40" height="40" viewBox="0 0 40 40" fill="none" xmlns="http://www.w3.org/2000/svg">
<g clip-path="url(#clip0_494_1017)">
<path d="M31.9787 36.0432V36.0429V23.3878C31.9787 21.1843 30.1865 19.3925 27.983 19.3925H26.5508C24.3478 19.3925 22.5556 21.1843 22.5556 23.3878V36.0429C22.5556 36.3961 22.8414 36.6819 23.1946 36.6819H31.3392C31.6926 36.6819 31.9781 36.3962 31.9787 36.0432ZM30.7002 35.4038H23.8337L23.8332 23.3878C23.8332 23.3878 23.8332 23.3878 23.8332 23.3878C23.8332 21.8895 25.0526 20.6702 26.5504 20.6702H27.9826C29.4813 20.6702 30.7002 21.8899 30.7002 23.3878V35.4038Z" fill="black" stroke="black" stroke-width="0.4"/>
<path d="M8.616 31.7983H19.305C19.6582 31.7983 19.944 31.5125 19.944 31.1592V20.4698C19.944 20.117 19.6578 19.8307 19.305 19.8307H8.616C8.26318 19.8307 7.97694 20.117 7.97694 20.4698V31.1592C7.97694 31.5126 8.26331 31.7983 8.616 31.7983ZM18.6659 21.1089V30.5201H9.25507V21.1089H18.6659Z" fill="black" stroke="black" stroke-width="0.4"/>
<path d="M39.9301 9.81506C39.9262 9.75848 39.9157 9.6975 39.8926 9.63575L39.6353 9.58411L39.7898 9.45712L39.7897 9.45702C39.7896 9.45691 39.7896 9.45679 39.7895 9.45668L34.8991 3.5065L34.8991 3.50645C34.7776 3.3588 34.5962 3.27324 34.4052 3.27324H29.3257H23.8414H16.1139H15.9909H10.6295H5.55001C5.35914 3.27324 5.17757 3.35868 5.0564 3.50667C5.05635 3.50673 5.05631 3.50679 5.05626 3.50685L0.165745 9.45712C0.165677 9.4572 0.165609 9.45728 0.165541 9.45737C0.126094 9.50513 0.0950174 9.55709 0.0716622 9.61154C0.0676226 9.62074 0.0648597 9.62885 0.0629829 9.63507C0.0369902 9.70419 0.0266819 9.77256 0.0239312 9.83527L0.223729 9.84403L0.0241821 9.83073C0.025113 9.81677 0.0274898 9.806 0.0289082 9.80033L0.0304402 9.79467C0.0305284 9.79437 0.0307723 9.79357 0.030223 9.79538L0.0301409 9.79565C0.0294678 9.79785 0.0269556 9.80609 0.0248081 9.81609C0.0223963 9.82731 0.0197876 9.84345 0.0197876 9.86291V11.0883C0.0197876 13.3545 1.702 15.2347 3.88354 15.5458V36.0429C3.88354 36.3963 4.16991 36.682 4.5226 36.682H35.4326C35.7859 36.682 36.0717 36.3961 36.0717 36.0429V15.5462C38.2527 15.2347 39.9354 13.355 39.9354 11.0888V9.86335C39.9354 9.84478 39.9331 9.82919 39.9307 9.81779C39.9305 9.81686 39.9303 9.81596 39.9301 9.81506ZM34.103 4.55136L37.944 9.22385H32.011L30.2493 4.55136H34.103ZM30.9298 11.0883C30.9298 12.8663 29.4831 14.313 27.7047 14.313C25.9267 14.313 24.48 12.8663 24.48 11.0883V10.502H30.9298V11.0883ZM23.2023 11.0883C23.2023 12.8663 21.7556 14.313 19.9776 14.313C18.1996 14.313 16.7529 12.8663 16.7529 11.0883V10.502H23.2023V11.0883ZM15.3518 9.22385H9.31036L11.0717 4.55136H15.3518V9.22385ZM9.02541 10.502H15.4748V11.0883C15.4748 12.8663 14.0281 14.313 12.2501 14.313C10.4721 14.313 9.02541 12.8663 9.02541 11.0883V10.502ZM24.4804 4.55136H28.8839L30.6453 9.22385H24.4804V4.55136ZM23.2023 9.22385H16.7529V4.55136H23.2023V9.22385ZM5.85174 4.55136H9.70551L7.94417 9.22385H2.01119L5.85174 4.55136ZM1.29791 11.0883V10.502H7.74729V11.0883C7.74729 12.8663 6.30055 14.313 4.5226 14.313C2.74465 14.313 1.29791 12.8663 1.29791 11.0883ZM5.16166 35.4038V15.5462C6.53419 15.3502 7.70479 14.5314 8.38639 13.3896C9.17213 14.7054 10.6072 15.5916 12.2501 15.5916C13.893 15.5916 15.3281 14.7053 16.1139 13.3895C16.8996 14.7053 18.3347 15.5916 19.9776 15.5916C21.6205 15.5916 23.0556 14.7053 23.8414 13.3895C24.6271 14.7053 26.0622 15.5916 27.7051 15.5916C29.348 15.5916 30.7835 14.7054 31.5693 13.3896C32.2511 14.5317 33.4214 15.3502 34.794 15.5462V35.4038H5.16166ZM38.6573 11.0883C38.6573 12.8663 37.2105 14.313 35.4326 14.313C33.6546 14.313 32.2079 12.8663 32.2079 11.0883V10.502H38.6573V11.0883Z" fill="black" stroke="black" stroke-width="0.4"/>
</g>
<defs>
<clipPath id="clip0_494_1017">
<rect width="40" height="40" fill="white"/>
</clipPath>
</defs>
</svg>
