<svg width="42" height="42" viewBox="0 0 42 42" fill="none" xmlns="http://www.w3.org/2000/svg">
<path d="M38.1775 6.52888L12.7741 1.55289C11.2153 1.24754 9.72042 2.35349 9.43532 4.02311L6.33803 22.1618C6.05293 23.8314 7.08553 25.4324 8.64441 25.7378L34.0477 30.7138C35.6066 31.0191 37.1015 29.9132 37.3865 28.2436L40.4838 10.1049C40.7689 8.43526 39.7363 6.83423 38.1775 6.52888Z" stroke="black" stroke-width="1.5" stroke-linecap="round" stroke-linejoin="round"/>
<path d="M8.40295 10.0693L39.4515 16.1511" stroke="black" stroke-width="1.5" stroke-linecap="round" stroke-linejoin="round"/>
<path d="M29.6941 16.4139H3.86941C2.28468 16.4139 1 17.7899 1 19.4872V37.9267C1 39.6241 2.28468 41 3.86941 41H29.6941C31.2788 41 32.5635 39.6241 32.5635 37.9267V19.4872C32.5635 17.7899 31.2788 16.4139 29.6941 16.4139Z" fill="white" stroke="black" stroke-width="1.5" stroke-linecap="round" stroke-linejoin="round"/>
<path d="M1 25.6337H32.5635" stroke="black" stroke-width="1.5" stroke-linecap="round" stroke-linejoin="round"/>
</svg>
