<svg width="40" height="40" viewBox="0 0 40 40" fill="none" xmlns="http://www.w3.org/2000/svg">
<path d="M17.5 32.5H3.125C2.2965 32.499 1.50222 32.1694 0.916387 31.5836C0.330551 30.9978 0.000992411 30.2035 0 29.375L0 3.125C0.000992411 2.2965 0.330551 1.50222 0.916387 0.916387C1.50222 0.330551 2.2965 0.000992411 3.125 0L4.375 0V1.25H3.125C2.62772 1.25 2.15081 1.44754 1.79917 1.79917C1.44754 2.15081 1.25 2.62772 1.25 3.125V29.375C1.25 29.8723 1.44754 30.3492 1.79917 30.7008C2.15081 31.0525 2.62772 31.25 3.125 31.25H17.5V32.5Z" fill="black"/>
<path d="M5.625 0H6.87563V1.25H5.625V0Z" fill="black"/>
<path d="M36.875 32.5V31.25C37.3723 31.25 37.8492 31.0525 38.2008 30.7008C38.5525 30.3492 38.75 29.8723 38.75 29.375V3.125C38.75 2.62772 38.5525 2.15081 38.2008 1.79917C37.8492 1.44754 37.3723 1.25 36.875 1.25H8.125V0H36.875C37.7035 0.000992411 38.4978 0.330551 39.0836 0.916387C39.6694 1.50222 39.999 2.2965 40 3.125V29.375C39.999 30.2035 39.6694 30.9978 39.0836 31.5836C38.4978 32.1694 37.7035 32.499 36.875 32.5Z" fill="black"/>
<path d="M11.8945 34.2363L12.5207 31.7368L13.7332 32.0405L13.107 34.5401L11.8945 34.2363Z" fill="black"/>
<path d="M17.5 37.5H11.25C11.0842 37.5 10.9253 37.4342 10.8081 37.3169C10.6908 37.1997 10.625 37.0408 10.625 36.875V35.625C10.625 35.1277 10.8225 34.6508 11.1742 34.2992C11.5258 33.9475 12.0027 33.75 12.5 33.75H17.5V35H12.5C12.3342 35 12.1753 35.0658 12.0581 35.1831C11.9408 35.3003 11.875 35.4592 11.875 35.625V36.25H17.5V37.5Z" fill="black"/>
<path d="M0.625 26.25H17.5V27.5H0.625V26.25Z" fill="black"/>
<path d="M2.5 28.75H3.75V30H2.5V28.75Z" fill="black"/>
<path d="M5 28.75H8.75V30H5V28.75Z" fill="black"/>
<path d="M34.375 40H21.875C21.0465 39.999 20.2522 39.6694 19.6664 39.0836C19.0806 38.4978 18.751 37.7035 18.75 36.875V11.875C18.751 11.0465 19.0806 10.2522 19.6664 9.66639C20.2522 9.08055 21.0465 8.75099 21.875 8.75H34.375C35.2035 8.75099 35.9978 9.08055 36.5836 9.66639C37.1694 10.2522 37.499 11.0465 37.5 11.875V36.875C37.499 37.7035 37.1694 38.4978 36.5836 39.0836C35.9978 39.6694 35.2035 39.999 34.375 40ZM21.875 10C21.3777 10 20.9008 10.1975 20.5492 10.5492C20.1975 10.9008 20 11.3777 20 11.875V36.875C20 37.3723 20.1975 37.8492 20.5492 38.2008C20.9008 38.5525 21.3777 38.75 21.875 38.75H34.375C34.8723 38.75 35.3492 38.5525 35.7008 38.2008C36.0525 37.8492 36.25 37.3723 36.25 36.875V11.875C36.25 11.3777 36.0525 10.9008 35.7008 10.5492C35.3492 10.1975 34.8723 10 34.375 10H21.875Z" fill="black"/>
<path d="M31.25 15H25C23.8288 15 23.3381 13.98 23.1831 13.125H19.375V11.875H23.75C23.9158 11.875 24.0747 11.9408 24.1919 12.0581C24.3092 12.1753 24.375 12.3342 24.375 12.5C24.375 12.5106 24.41 13.75 25 13.75H31.25C31.84 13.75 31.875 12.5106 31.875 12.5C31.875 12.3342 31.9408 12.1753 32.0581 12.0581C32.1753 11.9408 32.3342 11.875 32.5 11.875H36.875V13.125H33.0669C32.9119 13.98 32.4213 15 31.25 15Z" fill="black"/>
<path d="M25.625 11.25H30.625V12.5H25.625V11.25Z" fill="black"/>
<path d="M25.625 36.875H30.625V38.125H25.625V36.875Z" fill="black"/>
<path d="M19.375 35H36.875V36.25H19.375V35Z" fill="black"/>
<path d="M11.25 17.5H8.75C8.58424 17.5 8.42527 17.4342 8.30806 17.3169C8.19085 17.1997 8.125 17.0408 8.125 16.875V15.9587C7.776 15.8488 7.43739 15.7083 7.11312 15.5387L6.46438 16.1875C6.34717 16.3047 6.18823 16.3705 6.0225 16.3705C5.85677 16.3705 5.69783 16.3047 5.58063 16.1875L3.8125 14.4194C3.69533 14.3022 3.62951 14.1432 3.62951 13.9775C3.62951 13.8118 3.69533 13.6528 3.8125 13.5356L4.46063 12.8869C4.29132 12.5626 4.15098 12.224 4.04125 11.875H3.125C2.95924 11.875 2.80027 11.8092 2.68306 11.6919C2.56585 11.5747 2.5 11.4158 2.5 11.25V8.75C2.5 8.58424 2.56585 8.42527 2.68306 8.30806C2.80027 8.19085 2.95924 8.125 3.125 8.125H4.04125C4.15118 7.776 4.29173 7.43739 4.46125 7.11312L3.8125 6.46438C3.69533 6.34717 3.62951 6.18823 3.62951 6.0225C3.62951 5.85677 3.69533 5.69783 3.8125 5.58063L5.58063 3.8125C5.69783 3.69533 5.85677 3.62951 6.0225 3.62951C6.18823 3.62951 6.34717 3.69533 6.46438 3.8125L7.11312 4.46063C7.43741 4.29132 7.77602 4.15098 8.125 4.04125V3.125C8.125 2.95924 8.19085 2.80027 8.30806 2.68306C8.42527 2.56585 8.58424 2.5 8.75 2.5H11.25C11.4158 2.5 11.5747 2.56585 11.6919 2.68306C11.8092 2.80027 11.875 2.95924 11.875 3.125V4.04125C12.224 4.15118 12.5626 4.29173 12.8869 4.46125L13.5356 3.8125C13.6528 3.69533 13.8118 3.62951 13.9775 3.62951C14.1432 3.62951 14.3022 3.69533 14.4194 3.8125L16.1875 5.58063C16.3047 5.69783 16.3705 5.85677 16.3705 6.0225C16.3705 6.18823 16.3047 6.34717 16.1875 6.46438L15.5394 7.11312C15.7087 7.43741 15.849 7.77602 15.9587 8.125H16.875C17.0408 8.125 17.1997 8.19085 17.3169 8.30806C17.4342 8.42527 17.5 8.58424 17.5 8.75V11.25C17.5 11.4158 17.4342 11.5747 17.3169 11.6919C17.1997 11.8092 17.0408 11.875 16.875 11.875H15.9587C15.8488 12.224 15.7083 12.5626 15.5387 12.8869L16.1875 13.5356C16.3047 13.6528 16.3705 13.8118 16.3705 13.9775C16.3705 14.1432 16.3047 14.3022 16.1875 14.4194L14.4194 16.1875C14.3022 16.3047 14.1432 16.3705 13.9775 16.3705C13.8118 16.3705 13.6528 16.3047 13.5356 16.1875L12.8869 15.5394C12.5626 15.7087 12.224 15.849 11.875 15.9587V16.875C11.875 17.0408 11.8092 17.1997 11.6919 17.3169C11.5747 17.4342 11.4158 17.5 11.25 17.5ZM9.375 16.25H10.625V15.4813C10.6249 15.3395 10.6729 15.2019 10.7613 15.0911C10.8496 14.9802 10.973 14.9027 11.1112 14.8713C11.6592 14.7466 12.1818 14.5295 12.6569 14.2294C12.7768 14.1537 12.919 14.1211 13.0599 14.1369C13.2009 14.1526 13.3323 14.2159 13.4325 14.3162L13.9775 14.8612L14.8612 13.9775L14.3162 13.4325C14.2159 13.3323 14.1526 13.2009 14.1369 13.0599C14.1211 12.919 14.1537 12.7768 14.2294 12.6569C14.5295 12.1818 14.7466 11.6592 14.8713 11.1112C14.9027 10.973 14.9802 10.8496 15.0911 10.7613C15.2019 10.6729 15.3395 10.6249 15.4813 10.625H16.25V9.375H15.4813C15.3395 9.37513 15.2019 9.32708 15.0911 9.23873C14.9802 9.15037 14.9027 9.02696 14.8713 8.88875C14.7466 8.34083 14.5295 7.81815 14.2294 7.34312C14.1537 7.22317 14.1211 7.08104 14.1369 6.94009C14.1526 6.79913 14.2159 6.66774 14.3162 6.5675L14.8612 6.0225L13.9775 5.13875L13.4325 5.68375C13.3323 5.78409 13.2009 5.84735 13.0599 5.86314C12.919 5.87892 12.7768 5.8463 12.6569 5.77062C12.1818 5.47046 11.6592 5.25339 11.1112 5.12875C10.973 5.09728 10.8496 5.01977 10.7613 4.90892C10.6729 4.79808 10.6249 4.6605 10.625 4.51875V3.75H9.375V4.51875C9.37513 4.6605 9.32708 4.79808 9.23873 4.90892C9.15037 5.01977 9.02696 5.09728 8.88875 5.12875C8.34083 5.25339 7.81815 5.47046 7.34312 5.77062C7.22317 5.8463 7.08104 5.87892 6.94009 5.86314C6.79913 5.84735 6.66774 5.78409 6.5675 5.68375L6.0225 5.13875L5.13875 6.0225L5.68375 6.5675C5.78409 6.66774 5.84735 6.79913 5.86314 6.94009C5.87892 7.08104 5.8463 7.22317 5.77062 7.34312C5.47046 7.81815 5.25339 8.34083 5.12875 8.88875C5.09728 9.02696 5.01977 9.15037 4.90892 9.23873C4.79808 9.32708 4.6605 9.37513 4.51875 9.375H3.75V10.625H4.51875C4.6605 10.6249 4.79808 10.6729 4.90892 10.7613C5.01977 10.8496 5.09728 10.973 5.12875 11.1112C5.25339 11.6592 5.47046 12.1818 5.77062 12.6569C5.8463 12.7768 5.87892 12.919 5.86314 13.0599C5.84735 13.2009 5.78409 13.3323 5.68375 13.4325L5.13875 13.9775L6.0225 14.8612L6.5675 14.3162C6.66774 14.2159 6.79913 14.1526 6.94009 14.1369C7.08104 14.1211 7.22317 14.1537 7.34312 14.2294C7.81815 14.5295 8.34083 14.7466 8.88875 14.8713C9.02696 14.9027 9.15037 14.9802 9.23873 15.0911C9.32708 15.2019 9.37513 15.3395 9.375 15.4813V16.25Z" fill="black"/>
<path d="M10 13.125C9.38194 13.125 8.77775 12.9417 8.26384 12.5983C7.74994 12.255 7.3494 11.7669 7.11288 11.1959C6.87635 10.6249 6.81447 9.99654 6.93505 9.39034C7.05563 8.78415 7.35325 8.22733 7.79029 7.79029C8.22733 7.35325 8.78415 7.05563 9.39034 6.93505C9.99654 6.81447 10.6249 6.87635 11.1959 7.11288C11.7669 7.3494 12.255 7.74994 12.5983 8.26384C12.9417 8.77775 13.125 9.38194 13.125 10C13.124 10.8285 12.7945 11.6228 12.2086 12.2086C11.6228 12.7945 10.8285 13.124 10 13.125ZM10 8.125C9.62916 8.125 9.26665 8.23497 8.95831 8.441C8.64997 8.64702 8.40964 8.93986 8.26773 9.28247C8.12581 9.62508 8.08868 10.0021 8.16103 10.3658C8.23338 10.7295 8.41195 11.0636 8.67418 11.3258C8.9364 11.5881 9.27049 11.7666 9.63421 11.839C9.99792 11.9113 10.3749 11.8742 10.7175 11.7323C11.0601 11.5904 11.353 11.35 11.559 11.0417C11.765 10.7334 11.875 10.3708 11.875 10C11.875 9.50272 11.6775 9.02581 11.3258 8.67418C10.9742 8.32255 10.4973 8.125 10 8.125Z" fill="black"/>
<path d="M10.625 25.625H9.375V23.125C9.375 22.9592 9.44085 22.8003 9.55806 22.6831C9.67527 22.5658 9.83424 22.5 10 22.5H10.9162C11.0262 22.151 11.1667 21.8124 11.3363 21.4881L10.6875 20.8394C10.5703 20.7222 10.5045 20.5632 10.5045 20.3975C10.5045 20.2318 10.5703 20.0728 10.6875 19.9556L12.4556 18.1875C12.5728 18.0703 12.7318 18.0045 12.8975 18.0045C13.0632 18.0045 13.2222 18.0703 13.3394 18.1875L13.9881 18.8356C14.3124 18.6663 14.651 18.526 15 18.4162V17.5C15 17.3342 15.0658 17.1753 15.1831 17.0581C15.3003 16.9408 15.4592 16.875 15.625 16.875H18.125V18.125H16.25V18.8937C16.2501 19.0355 16.2021 19.1731 16.1137 19.2839C16.0254 19.3948 15.902 19.4723 15.7638 19.5037C15.2158 19.6284 14.6932 19.8455 14.2181 20.1456C14.0982 20.2213 13.956 20.2539 13.8151 20.2381C13.6741 20.2223 13.5427 20.1591 13.4425 20.0588L12.8975 19.5138L12.0138 20.3975L12.5587 20.9425C12.6591 21.0427 12.7223 21.1741 12.7381 21.3151C12.7539 21.456 12.7213 21.5982 12.6456 21.7181C12.3455 22.1932 12.1284 22.7158 12.0037 23.2638C11.9723 23.402 11.8948 23.5254 11.7839 23.6137C11.6731 23.7021 11.5355 23.7501 11.3937 23.75H10.625V25.625Z" fill="black"/>
<path d="M15 24.375H13.75C13.751 23.5465 14.0806 22.7522 14.6664 22.1664C15.2522 21.5806 16.0465 21.251 16.875 21.25V22.5C16.3777 22.5 15.9008 22.6975 15.5492 23.0492C15.1975 23.4008 15 23.8777 15 24.375Z" fill="black"/>
<path d="M28.125 31.25C26.7653 31.25 25.436 30.8468 24.3055 30.0914C23.1749 29.3359 22.2937 28.2622 21.7733 27.006C21.253 25.7497 21.1168 24.3674 21.3821 23.0338C21.6474 21.7001 22.3022 20.4751 23.2636 19.5136C24.2251 18.5522 25.4501 17.8974 26.7838 17.6321C28.1174 17.3668 29.4997 17.503 30.756 18.0233C32.0122 18.5437 33.0859 19.4249 33.8414 20.5555C34.5968 21.686 35 23.0153 35 24.375C34.9979 26.1977 34.2728 27.9451 32.984 29.234C31.6951 30.5228 29.9477 31.2479 28.125 31.25ZM28.125 18.75C27.0125 18.75 25.9249 19.0799 24.9999 19.698C24.0749 20.3161 23.3539 21.1946 22.9282 22.2224C22.5024 23.2502 22.391 24.3812 22.6081 25.4724C22.8251 26.5635 23.3609 27.5658 24.1475 28.3525C24.9342 29.1391 25.9365 29.6749 27.0276 29.8919C28.1188 30.109 29.2498 29.9976 30.2776 29.5718C31.3054 29.1461 32.1839 28.4251 32.802 27.5001C33.4201 26.5751 33.75 25.4875 33.75 24.375C33.7482 22.8837 33.155 21.454 32.1005 20.3995C31.046 19.345 29.6163 18.7518 28.125 18.75Z" fill="black"/>
<path d="M26.8749 28.7499C26.7091 28.7498 26.5502 28.684 26.433 28.5667L23.308 25.4417C23.1908 25.3245 23.125 25.1656 23.125 24.9999C23.125 24.8341 23.1908 24.6752 23.308 24.558L25.183 22.683C25.3002 22.5658 25.4591 22.5 25.6249 22.5C25.7906 22.5 25.9495 22.5658 26.0667 22.683L26.8749 23.4911L30.183 20.183C30.3002 20.0658 30.4591 20 30.6249 20C30.7906 20 30.9495 20.0658 31.0667 20.183L32.9417 22.058C33.0589 22.1752 33.1247 22.3341 33.1247 22.4999C33.1247 22.6656 33.0589 22.8245 32.9417 22.9417L27.3167 28.5667C27.1996 28.684 27.0406 28.7498 26.8749 28.7499ZM24.6336 24.9999L26.8749 27.2411L31.6161 22.4999L30.6249 21.5086L27.3167 24.8167C27.1995 24.9339 27.0406 24.9997 26.8749 24.9997C26.7091 24.9997 26.5502 24.9339 26.433 24.8167L25.6249 24.0086L24.6336 24.9999Z" fill="black"/>
<path d="M35.625 2.5H36.875V3.75H35.625V2.5Z" fill="black"/>
<path d="M26.25 2.5H34.375V3.75H26.25V2.5Z" fill="black"/>
</svg>
