<svg width="40" height="40" viewBox="0 0 40 40" fill="none" xmlns="http://www.w3.org/2000/svg">
<g clip-path="url(#clip0_494_1050)">
<path d="M38.7385 38.2629V38.2628V1.6924C38.7385 0.76968 37.9886 0.0197876 37.0659 0.0197876H2.88924C1.96652 0.0197876 1.21663 0.769681 1.21663 1.6924V38.2628C1.21663 39.185 1.96648 39.9354 2.88924 39.9354H37.0659C37.9887 39.9354 38.738 39.185 38.7385 38.2629ZM2.49475 1.6924C2.49475 1.47488 2.67172 1.29791 2.88924 1.29791H37.0659C37.2828 1.29791 37.4601 1.47479 37.4604 1.69267V38.2628C37.4604 38.4802 37.283 38.6573 37.0659 38.6573H2.88924C2.67172 38.6573 2.49475 38.4803 2.49475 38.2628V1.6924Z" fill="black" stroke="black" stroke-width="0.4"/>
<path d="M38.7385 6.66866V6.6683V1.6924C38.7385 0.76968 37.9886 0.0197876 37.0659 0.0197876H2.88924C1.96652 0.0197876 1.21663 0.769681 1.21663 1.6924V6.66874C1.21663 7.02156 1.50287 7.3078 1.85569 7.3078H38.099C38.4526 7.3078 38.7378 7.02131 38.7385 6.66866ZM37.4599 1.6924V6.02968H2.49475V1.6924C2.49475 1.47488 2.67172 1.29791 2.88924 1.29791H37.0659C37.2829 1.29791 37.4599 1.47479 37.4599 1.6924Z" fill="black" stroke="black" stroke-width="0.4"/>
<path d="M17.4153 4.30286H31.7195C32.0729 4.30286 32.3585 4.01648 32.3585 3.66379C32.3585 3.3111 32.0729 3.02473 31.7195 3.02473H17.4153C17.0624 3.02473 16.7762 3.31097 16.7762 3.66379C16.7762 4.01661 17.0624 4.30286 17.4153 4.30286Z" fill="black" stroke="black" stroke-width="0.4"/>
<path d="M12.1008 4.30286H13.3811C13.7339 4.30286 14.0202 4.01661 14.0202 3.66379C14.0202 3.31097 13.7339 3.02473 13.3811 3.02473H12.1008C11.748 3.02473 11.4617 3.31097 11.4617 3.66379C11.4617 4.01661 11.748 4.30286 12.1008 4.30286Z" fill="black" stroke="black" stroke-width="0.4"/>
<path d="M8.26609 4.30286H9.54596C9.89878 4.30286 10.185 4.01661 10.185 3.66379C10.185 3.31097 9.89878 3.02473 9.54596 3.02473H8.26609C7.91327 3.02473 7.62703 3.31097 7.62703 3.66379C7.62703 4.01661 7.91327 4.30286 8.26609 4.30286Z" fill="black" stroke="black" stroke-width="0.4"/>
<path d="M4.4304 4.30286H5.7107C6.06352 4.30286 6.34976 4.01661 6.34976 3.66379C6.34976 3.31097 6.06352 3.02473 5.7107 3.02473H4.4304C4.07758 3.02473 3.79133 3.31097 3.79133 3.66379C3.79133 4.01661 4.07758 4.30286 4.4304 4.30286Z" fill="black" stroke="black" stroke-width="0.4"/>
<path d="M33.9406 4.30286H35.2205C35.5739 4.30286 35.8596 4.01648 35.8596 3.66379C35.8596 3.3111 35.5739 3.02473 35.2205 3.02473H33.9406C33.5873 3.02473 33.3016 3.3111 33.3016 3.66379C33.3016 4.01648 33.5873 4.30286 33.9406 4.30286Z" fill="black" stroke="black" stroke-width="0.4"/>
<path d="M6.03127 21.3617H19.3041C20.3717 21.3617 21.2397 20.4937 21.2393 19.4257C21.2393 19.4256 21.2393 19.4256 21.2393 19.4256V12.1346C21.2393 11.067 20.3713 10.199 19.3037 10.199H6.03127C4.96366 10.199 4.09565 11.067 4.09565 12.1346V19.4257C4.09565 20.4937 4.96362 21.3617 6.03127 21.3617ZM5.37378 12.1346C5.37378 11.7722 5.66885 11.4771 6.03127 11.4771H19.3037C19.6661 11.4771 19.9612 11.7722 19.9612 12.1346V19.4257C19.9612 19.7886 19.666 20.0836 19.3037 20.0836H6.03127C5.66899 20.0836 5.37378 19.7882 5.37378 19.4257V12.1346Z" fill="black" stroke="black" stroke-width="0.4"/>
<path d="M23.9432 14.7719H35.2205C35.5739 14.7719 35.8596 14.4855 35.8596 14.1328C35.8596 13.7801 35.5739 13.4937 35.2205 13.4937H23.9432C23.5898 13.4937 23.3042 13.7801 23.3042 14.1328C23.3042 14.4855 23.5898 14.7719 23.9432 14.7719Z" fill="black" stroke="black" stroke-width="0.4"/>
<path d="M23.9432 11.4771H35.2205C35.5739 11.4771 35.8596 11.1907 35.8596 10.838C35.8596 10.4854 35.5739 10.199 35.2205 10.199H23.9432C23.5898 10.199 23.3042 10.4854 23.3042 10.838C23.3042 11.1907 23.5898 11.4771 23.9432 11.4771Z" fill="black" stroke="black" stroke-width="0.4"/>
<path d="M23.9432 18.067H35.2205C35.5739 18.067 35.8596 17.7806 35.8596 17.428C35.8596 17.0753 35.5739 16.7889 35.2205 16.7889H23.9432C23.5898 16.7889 23.3042 17.0753 23.3042 17.428C23.3042 17.7806 23.5898 18.067 23.9432 18.067Z" fill="black" stroke="black" stroke-width="0.4"/>
<path d="M23.9432 21.3618H30.8299C31.1832 21.3618 31.469 21.076 31.469 20.7227C31.469 20.3694 31.1832 20.0836 30.8299 20.0836H23.9432C23.59 20.0836 23.3042 20.3694 23.3042 20.7227C23.3042 21.076 23.59 21.3618 23.9432 21.3618Z" fill="black" stroke="black" stroke-width="0.4"/>
<path d="M6.03127 36.1889H19.3041C20.3718 36.1889 21.2397 35.3204 21.2393 34.2528C21.2393 34.2528 21.2393 34.2528 21.2393 34.2527V26.9618C21.2393 25.8941 20.3713 25.0261 19.3037 25.0261H6.03127C4.96366 25.0261 4.09565 25.8941 4.09565 26.9618V34.2533C4.09565 35.3209 4.96366 36.1889 6.03127 36.1889ZM5.37378 26.9618C5.37378 26.5993 5.66886 26.3043 6.03127 26.3043H19.3037C19.6661 26.3043 19.9612 26.5993 19.9612 26.9618V34.2528C19.9612 34.6152 19.6661 34.9103 19.3037 34.9103H6.03127C5.66886 34.9103 5.37378 34.6152 5.37378 34.2528V26.9618Z" fill="black" stroke="black" stroke-width="0.4"/>
<path d="M23.9432 29.599H35.2205C35.5738 29.599 35.8596 29.3132 35.8596 28.9599C35.8596 28.6067 35.5738 28.3209 35.2205 28.3209H23.9432C23.59 28.3209 23.3042 28.6067 23.3042 28.9599C23.3042 29.3132 23.59 29.599 23.9432 29.599Z" fill="black" stroke="black" stroke-width="0.4"/>
<path d="M23.9432 26.3043H35.2205C35.5738 26.3043 35.8596 26.0185 35.8596 25.6652C35.8596 25.3119 35.5738 25.0261 35.2205 25.0261H23.9432C23.59 25.0261 23.3042 25.3119 23.3042 25.6652C23.3042 26.0185 23.59 26.3043 23.9432 26.3043Z" fill="black" stroke="black" stroke-width="0.4"/>
<path d="M23.9432 32.8937H35.2205C35.5738 32.8937 35.8596 32.6079 35.8596 32.2547C35.8596 31.9014 35.5738 31.6156 35.2205 31.6156H23.9432C23.59 31.6156 23.3042 31.9014 23.3042 32.2547C23.3042 32.6079 23.59 32.8937 23.9432 32.8937Z" fill="black" stroke="black" stroke-width="0.4"/>
<path d="M23.9432 36.1889H30.8299C31.1832 36.1889 31.469 35.9031 31.469 35.5498C31.469 35.1966 31.1832 34.9108 30.8299 34.9108H23.9432C23.59 34.9108 23.3042 35.1966 23.3042 35.5498C23.3042 35.9031 23.59 36.1889 23.9432 36.1889Z" fill="black" stroke="black" stroke-width="0.4"/>
</g>
<defs>
<clipPath id="clip0_494_1050">
<rect width="40" height="40" fill="white"/>
</clipPath>
</defs>
</svg>
