<svg width="50" height="50" viewBox="0 0 50 50" fill="none" xmlns="http://www.w3.org/2000/svg">
<mask id="mask0_708_430" style="mask-type:luminance" maskUnits="userSpaceOnUse" x="5" y="0" width="43" height="50">
<path d="M47.1 0H5V50H47.1V0Z" fill="white"/>
</mask>
<g mask="url(#mask0_708_430)">
<path d="M7.15499 47.2482C6.29918 47.2482 6.05036 46.75 6.05036 46.0035C6.05036 45.7547 6.08161 45.474 6.12009 45.1783C6.30757 43.887 6.76524 43.1485 7.86988 43.1485C8.61698 43.1485 8.98125 43.4825 8.98125 44.0895V44.3853H9.72243C9.73065 44.3853 9.73065 44.113 9.73065 44.051C9.73065 43.1642 9.19372 42.3233 7.87102 42.3233C6.07371 42.3233 5.33466 43.2995 5.06233 45.2135C5.02335 45.4705 5 45.7103 5 45.966C5 47.0943 5.44386 48.1205 7.03083 48.1205C8.2366 48.1205 8.9528 47.5325 9.37265 46.809L8.6645 46.332C8.20568 47.0558 7.7074 47.2482 7.15499 47.2482ZM12.0179 43.685C10.5782 43.685 9.9563 44.4237 9.74627 45.894C9.72162 46.064 9.70845 46.2358 9.70683 46.4078C9.70683 47.3565 10.1503 48.1117 11.3793 48.1117C12.8189 48.1117 13.4493 47.3412 13.6593 45.894C13.6826 45.7075 13.6983 45.5362 13.6983 45.3652C13.6986 44.4007 13.2397 43.685 12.0179 43.685ZM12.617 45.8945C12.4612 46.9605 12.1271 47.2872 11.4964 47.2872C10.991 47.2872 10.7422 47.0773 10.7422 46.447C10.7422 46.2913 10.758 46.1047 10.7889 45.8945C10.9447 44.8365 11.2558 44.5097 11.8937 44.5097C12.4073 44.5097 12.6637 44.7198 12.6637 45.3578C12.6637 45.5133 12.6479 45.6922 12.617 45.8945ZM17.317 42.4005L17.0761 43.8287C17.0607 43.953 17.0686 43.9115 17.1156 44.0282C16.89 43.8572 16.4851 43.7442 16.2127 43.7442C14.9211 43.7442 14.1979 44.3287 13.9647 45.9627C13.9375 46.1352 13.9244 46.3095 13.9257 46.4843C13.9257 47.675 14.6258 48.1187 15.5669 48.1187C15.9642 48.1187 16.353 48.127 16.6561 47.8708L16.7336 48.3547H17.4807L18.3519 42.4005H17.317ZM16.578 47.0615C16.2282 47.271 15.8862 47.3182 15.6761 47.3182C15.1081 47.3182 14.9525 47.0225 14.9525 46.548C14.9525 46.369 14.9759 46.1595 15.0073 45.9333C15.1859 44.6965 15.5829 44.4782 16.0965 44.4782C16.4307 44.4782 16.6872 44.533 16.9289 44.6655L16.578 47.0615ZM20.624 43.685C19.1999 43.685 18.5314 44.3615 18.3054 45.894C18.2817 46.081 18.2661 46.26 18.2661 46.431C18.2661 47.4815 18.8032 48.1117 19.9853 48.1117C20.9035 48.1117 21.5887 47.7303 21.9541 47.03L21.1682 46.711C20.9429 47.053 20.6395 47.2865 20.1025 47.2865C19.527 47.2865 19.2935 47.1315 19.2935 46.618C19.2935 46.5167 19.3013 46.3695 19.3169 46.3695H22.1251C22.1646 45.9725 22.2107 45.692 22.2107 45.4593C22.2107 44.6818 21.9153 43.685 20.624 43.685ZM21.1607 45.576H19.449C19.6206 45.179 19.9078 44.5647 20.4994 44.5647C20.9582 44.5647 21.1841 44.833 21.1841 45.2917C21.1837 45.3697 21.1766 45.576 21.1607 45.576ZM25.2047 43.5913L25.2979 42.7975H23.1036L23.0107 43.5913H23.5863L22.9644 47.5607H22.388L22.2952 48.3547H24.489L24.5827 47.5607H24.0067L24.6288 43.5913H25.2047ZM29.663 44.782L29.9434 43.9883H29.1887L28.6446 44.1005C28.341 43.9065 27.9285 43.7607 27.5399 43.7607C26.4269 43.7607 25.4782 44.2983 25.4782 45.52C25.4782 45.8628 25.6025 46.1393 25.7501 46.3263C25.5172 46.4505 25.3147 46.6585 25.3147 46.939C25.3147 47.0633 25.3611 47.1908 25.4549 47.307C24.9876 47.5878 24.7006 48.0525 24.7006 48.5967C24.7006 49.6475 25.7974 49.8717 26.6376 49.8717C27.6955 49.8717 28.9562 49.63 28.9562 48.284C28.9562 47.825 28.6684 47.4665 27.836 47.311L26.3345 47.0305C26.1635 46.999 26.1245 46.9445 26.1245 46.8668C26.1245 46.75 26.1952 46.6883 26.3113 46.6883L26.4126 46.7037C26.6149 46.7502 26.8484 46.774 27.0894 46.774C28.1711 46.774 29.1356 46.3068 29.1356 45.0933C29.1356 44.9218 29.1047 44.806 29.0269 44.619C29.159 44.6815 29.3305 44.7825 29.3999 44.7825L29.663 44.782ZM27.524 48.0025C27.8193 48.0573 27.9203 48.166 27.9203 48.3605C27.9203 48.991 27.2434 49.0688 26.7535 49.0688C26.0066 49.0688 25.7267 48.89 25.7267 48.4928C25.7267 48.1425 25.8275 47.9795 26.0613 47.7303L27.524 48.0025ZM27.2044 45.9648C26.7532 45.9648 26.5042 45.8015 26.5042 45.412C26.5042 44.8365 26.8389 44.5017 27.4223 44.5017C27.8892 44.5017 28.1151 44.6965 28.1151 45.077C28.1151 45.653 27.7879 45.9648 27.2044 45.9648ZM32.427 43.685C31.9913 43.685 31.6025 43.8988 31.12 44.2798L31.05 43.9883H30.194L29.595 48.3545H30.6297L31.081 45.0435C31.3847 44.8568 31.7578 44.5857 32.077 44.5857C32.4658 44.5857 32.606 44.7733 32.606 45.131C32.606 45.2168 32.5977 45.4705 32.5822 45.5638L32.2015 48.3545H33.2365L33.6173 45.541C33.633 45.4095 33.6485 45.1925 33.6485 45.0682C33.649 44.3282 33.2983 43.685 32.427 43.685ZM35.614 47.2608L35.622 47.1537L36.073 43.9883H34.3535L34.245 44.782H34.9992C34.937 44.782 34.898 44.8518 34.8905 44.9143L34.5793 47.0225C34.5638 47.124 34.5563 47.3352 34.5563 47.4202C34.5563 47.9647 34.8515 48.3547 35.458 48.3547H35.9873L36.104 47.5607H35.7698C35.6525 47.5607 35.614 47.354 35.614 47.2608ZM36.283 42.4005H35.2715C35.2092 42.4005 35.2092 42.1713 35.2017 42.2493L35.0612 43.3677C35.0532 43.4382 35.0532 43.5915 35.1155 43.5915H36.1273C36.1898 43.5915 36.1897 43.3195 36.1972 43.2487L36.3377 42.3852C36.3455 42.3075 36.3455 42.4005 36.283 42.4005ZM38.393 47.2872C38.1367 47.2872 38.012 47.1782 38.012 46.945L38.02 46.9292L38.3468 44.782H39.529L39.8868 43.9883H38.4553L38.6963 42.2412L37.6075 42.5895L37.4128 43.9883H36.7828L36.674 44.782H37.4053C37.3353 45.179 37.265 44.9215 37.2575 44.9998L36.9773 46.8822C36.9618 46.9682 36.9618 47.0302 36.9618 47.1077C36.9618 47.847 37.5063 48.1235 38.1605 48.1235C38.767 48.1235 39.2573 47.9465 39.6388 47.627L39.156 47.0332C38.9143 47.1807 38.7512 47.2872 38.393 47.2872ZM42.1898 43.685C40.766 43.685 40.097 44.3615 39.8712 45.894C39.848 46.081 39.8323 46.26 39.8323 46.431C39.8323 47.4815 40.369 48.1117 41.5515 48.1117C42.4697 48.1117 43.155 47.7303 43.52 47.03L42.7345 46.711C42.5092 47.053 42.2055 47.2865 41.6683 47.2865C41.093 47.2865 40.8593 47.1315 40.8593 46.618C40.8593 46.5167 40.8675 46.3695 40.8833 46.3695H43.6915C43.7302 45.9725 43.777 45.692 43.777 45.4593C43.777 44.6818 43.4815 43.685 42.1898 43.685ZM42.7268 45.576H41.0153C41.1863 45.179 41.4737 44.5647 42.0655 44.5647C42.5245 44.5647 42.7505 44.833 42.7505 45.2917C42.75 45.3697 42.7423 45.576 42.7268 45.576ZM46.6402 43.6847C46.267 43.6847 45.9168 43.899 45.5665 44.2327L45.5043 43.9883H44.6487L44.0495 48.3545H45.0922L45.551 44.9732C45.8235 44.8102 46.1347 44.671 46.4302 44.671C46.6172 44.671 46.796 44.6413 46.967 44.6645L47.1 43.7625C46.9435 43.7312 46.788 43.6847 46.6402 43.6847ZM20.2185 39.273C17.8635 38.255 15.6598 35.668 15.6546 33.0207C15.6482 30.1345 17.4772 27.6842 19.7521 26.074C19.4786 27.1072 19.3294 28.0522 20.007 28.9765C20.6368 29.8358 21.74 30.2533 22.7816 30.0268C25.2156 29.4938 25.3272 26.8182 23.8843 25.2592C22.4577 23.7156 21.0776 21.9719 21.6206 19.7332C21.8925 18.611 22.5815 17.5598 23.4544 16.8084C22.7835 18.5717 24.6902 20.3106 25.9464 21.1768C28.1256 22.6796 30.5165 23.8153 32.5202 25.577C34.6277 27.4282 36.1842 29.9315 35.87 32.835C35.5295 35.982 33.0288 38.1708 30.2238 39.2758C36.151 37.9675 42.2755 33.3672 42.401 26.7937C42.5047 21.3856 38.795 17.2237 34.1992 14.8409L33.9593 14.7098C34.0853 15.0159 34.1265 15.2762 34.1217 15.5093C34.163 15.3374 34.191 15.1608 34.1987 14.9785C34.1977 15.195 34.1695 15.4105 34.1145 15.6199L34.1217 15.5093C34.0535 15.7964 33.9387 16.0703 33.7815 16.3201L33.849 16.2476C32.9323 17.7683 30.45 18.0985 29.2239 16.5239C27.2528 13.991 29.2652 11.2601 29.5468 8.57787C29.8992 5.2163 27.7911 1.95288 25.1772 0C26.6169 2.32882 24.7202 5.40985 23.2028 7.13233C21.7314 8.80203 19.942 10.1961 18.3177 11.7132C16.5729 13.3426 14.8955 15.059 13.4613 16.9714C10.5929 20.7992 8.83685 25.6135 10.1273 30.3888C11.417 35.161 15.5505 38.1987 20.2185 39.273Z" fill="#EE4323"/>
</g>
</svg>
