<svg width="50" height="50" viewBox="0 0 50 50" fill="none" xmlns="http://www.w3.org/2000/svg">
<g opacity="0.5">
<mask id="mask0_700_403" style="mask-type:luminance" maskUnits="userSpaceOnUse" x="1" y="0" width="49" height="50">
<path d="M49.077 0H1V50H49.077V0Z" fill="white"/>
</mask>
<g mask="url(#mask0_700_403)">
<path fill-rule="evenodd" clip-rule="evenodd" d="M48.7173 11.1191C48.7351 11.1846 48.7441 11.2522 48.7443 11.3201V21.8701C48.7443 22.0055 48.7086 22.1385 48.6406 22.2556C48.5728 22.3728 48.4751 22.47 48.3576 22.5374L39.5028 27.6355V37.7402C39.5028 38.0152 39.3568 38.269 39.1183 38.4075L20.6346 49.048C20.5923 49.072 20.5461 49.0873 20.5 49.1038C20.4827 49.1095 20.4663 49.12 20.4481 49.1248C20.3189 49.159 20.183 49.159 20.0538 49.1248C20.0327 49.119 20.0135 49.1075 19.9933 49.0998C19.951 49.0845 19.9067 49.071 19.8663 49.048L1.38654 38.4075C1.26914 38.3402 1.1716 38.243 1.10374 38.1258C1.03587 38.0085 1.00009 37.8757 1 37.7402V6.09025C1 6.02103 1.00962 5.95372 1.02692 5.88832C1.03269 5.86622 1.04615 5.84603 1.05385 5.82393C1.06827 5.78353 1.08173 5.74217 1.10288 5.70467C1.11731 5.67967 1.13846 5.6595 1.15577 5.63643C1.17788 5.60565 1.19808 5.57393 1.22404 5.547C1.24615 5.52488 1.275 5.50852 1.3 5.4893C1.32788 5.46622 1.35288 5.44122 1.38461 5.42295L10.626 0.102761C10.743 0.0354345 10.8756 0 11.0106 0C11.1456 0 11.2782 0.0354345 11.3952 0.102761L20.6356 5.42295C20.6663 5.44217 20.6942 5.46622 20.7221 5.48835C20.7471 5.50757 20.775 5.52488 20.7971 5.54603C20.824 5.57393 20.8433 5.60565 20.8663 5.63643C20.8827 5.6595 20.9048 5.67967 20.9183 5.70467C20.9404 5.74315 20.9529 5.78353 20.9683 5.82393C20.976 5.84603 20.9894 5.86623 20.9952 5.8893C21.0129 5.95483 21.0219 6.02238 21.0221 6.09025V25.8585L28.7221 21.4249V11.3191C28.7221 11.2518 28.7318 11.1835 28.7491 11.1191C28.7558 11.096 28.7683 11.0759 28.7758 11.0537C28.7913 11.0133 28.8048 10.972 28.8258 10.9345C28.8403 10.9095 28.8616 10.8893 28.8778 10.8662C28.9008 10.8354 28.9201 10.8037 28.9471 10.7768C28.9693 10.7547 28.9971 10.7383 29.0221 10.7191C29.0508 10.696 29.0758 10.671 29.1068 10.6527L38.3491 5.33257C38.4661 5.26515 38.5986 5.22965 38.7336 5.22965C38.8686 5.22965 39.0013 5.26515 39.1183 5.33257L48.3586 10.6527C48.3913 10.672 48.4163 10.696 48.4451 10.7182C48.4693 10.7374 48.4971 10.7547 48.5193 10.7758C48.5461 10.8037 48.5653 10.8354 48.5883 10.8662C48.6058 10.8893 48.6268 10.9095 48.6403 10.9345C48.6626 10.972 48.6751 11.0133 48.6903 11.0537C48.6991 11.0759 48.7116 11.096 48.7173 11.1191ZM47.2038 21.4249V12.6518L43.9701 14.5133L39.5028 17.0854V25.8585L47.2038 21.4249ZM37.9633 37.295V28.5162L33.5693 31.0258L21.0211 38.1873V47.049L37.9633 37.295ZM2.54038 7.422V37.295L19.4808 47.048V38.1883L10.6308 33.1798L10.6279 33.1778L10.624 33.1757C10.5942 33.1585 10.5692 33.1335 10.5413 33.1122C10.5173 33.0932 10.4894 33.0777 10.4683 33.0565L10.4663 33.0538C10.4413 33.0298 10.424 32.9998 10.4029 32.973C10.3836 32.947 10.3606 32.9247 10.3452 32.898L10.3442 32.895C10.3269 32.8662 10.3163 32.8315 10.3038 32.799C10.2913 32.77 10.275 32.7432 10.2673 32.7122C10.2577 32.6755 10.2558 32.6365 10.2519 32.599C10.2481 32.57 10.2404 32.5412 10.2404 32.5122V11.8556L5.77405 9.28258L2.54038 7.422ZM11.0115 1.65853L3.3125 6.09025L11.0096 10.522L18.7077 6.0893L11.0115 1.65853ZM15.0154 29.3162L19.4817 26.745V7.422L16.2481 9.28352L11.7808 11.8556V31.1788L15.0154 29.3162ZM38.7336 6.88833L31.0356 11.3201L38.7336 15.7518L46.4308 11.3191L38.7336 6.88833ZM37.9633 17.0854L33.4961 14.5133L30.2626 12.6518V21.4249L34.7288 23.996L37.9633 25.8585V17.0854ZM20.25 36.8558L31.5413 30.4095L37.1856 27.1883L29.4933 22.7595L20.6365 27.8585L12.5644 32.5058L20.25 36.8558Z" fill="#FF2D20"/>
</g>
</g>
</svg>
