<svg width="50" height="50" viewBox="0 0 50 50" fill="none" xmlns="http://www.w3.org/2000/svg">
<mask id="mask0_708_398" style="mask-type:luminance" maskUnits="userSpaceOnUse" x="2" y="0" width="46" height="50">
<path d="M47.4 0H2V50H47.4V0Z" fill="white"/>
</mask>
<g mask="url(#mask0_708_398)">
<path d="M22.6572 0.634877C23.8916 -0.0716828 25.4994 -0.0748743 26.7328 0.634877C32.9375 4.1409 39.1442 7.64145 45.348 11.1496C46.515 11.8069 47.2955 13.1055 47.2835 14.45V35.5435C47.2922 36.9437 46.4345 38.2733 45.2035 38.9158C39.0192 42.4025 32.838 45.8935 26.6546 49.38C25.3946 50.1005 23.7546 50.045 22.534 49.2655C20.6799 48.1907 18.8227 47.1213 16.9684 46.0475C16.5895 45.8215 16.1624 45.6418 15.8948 45.2745C16.1313 44.9555 16.5542 44.916 16.8978 44.7767C17.6718 44.5305 18.3826 44.1355 19.0936 43.7523C19.2734 43.6293 19.4929 43.6763 19.6652 43.7865C21.2507 44.6955 22.8221 45.631 24.4129 46.5312C24.7523 46.7272 25.0959 46.4672 25.3859 46.3055C31.4547 42.8755 37.531 39.4585 43.5987 36.0275C43.8235 35.9193 43.9477 35.6805 43.9295 35.4343C43.9337 28.476 43.9307 21.5164 43.9317 14.5581C43.9575 14.2787 43.7957 14.0218 43.543 13.9074C37.3802 10.4367 31.2205 6.96057 25.0585 3.48895C24.9517 3.41555 24.8252 3.37617 24.6957 3.376C24.5661 3.3758 24.4396 3.4148 24.3326 3.4879C18.1707 6.96057 12.012 10.4398 5.85013 13.9104C5.59836 14.0249 5.42938 14.2776 5.45936 14.5581C5.46041 21.5164 5.45936 28.476 5.45936 35.4355C5.44866 35.5555 5.47506 35.6762 5.53496 35.7807C5.59488 35.8855 5.68543 35.9692 5.79446 36.021C7.43878 36.9535 9.08523 37.8795 10.7306 38.8088C11.6576 39.3075 12.7957 39.604 13.817 39.2217C14.7182 38.8985 15.35 37.9787 15.3328 37.022C15.3413 30.1042 15.3285 23.1854 15.3391 16.2688C15.3166 15.9617 15.6079 15.7079 15.9065 15.7368C16.6966 15.7315 17.4877 15.7262 18.2778 15.7389C18.6076 15.7315 18.8345 16.0622 18.7937 16.3716C18.7906 23.3331 18.8023 30.2948 18.7884 37.2563C18.7906 39.1118 18.0283 41.1305 16.3122 42.0382C14.198 43.1335 11.5849 42.9013 9.49623 41.851C7.68808 40.9485 5.96253 39.8835 4.18648 38.9165C2.95226 38.2777 2.09889 36.9427 2.10757 35.5437V14.45C2.09463 13.0776 2.90616 11.7554 4.10935 11.1077C10.2927 7.6182 16.475 4.126 22.6572 0.634877Z" fill="#8CC84B"/>
<path d="M28.0515 15.2464C30.7483 15.0728 33.6353 15.1435 36.062 16.4721C37.941 17.4902 38.9825 19.6269 39.0158 21.7143C38.9633 21.9958 38.669 22.1512 38.4003 22.1318C37.6178 22.1308 36.835 22.1425 36.0525 22.1265C35.7208 22.1393 35.5278 21.8333 35.4863 21.5398C35.2613 20.5411 34.7168 19.5519 33.7765 19.0701C32.3335 18.3476 30.6603 18.384 29.0868 18.399C27.938 18.46 26.7026 18.5595 25.7294 19.235C24.9822 19.7467 24.7553 20.7797 25.022 21.6116C25.2734 22.209 25.9629 22.4017 26.5271 22.5794C29.777 23.4294 33.221 23.3448 36.409 24.4634C37.7288 24.9194 39.02 25.806 39.4718 27.1878C40.0628 29.04 39.8038 31.2538 38.486 32.7408C37.4173 33.9643 35.861 34.6303 34.3088 34.992C32.2435 35.4525 30.1005 35.464 28.0033 35.2598C26.0314 35.0348 23.9792 34.5168 22.4569 33.1733C21.1551 32.0428 20.5193 30.2818 20.5824 28.5818C20.5975 28.2948 20.8833 28.0945 21.1583 28.1183C21.9463 28.1118 22.7342 28.1098 23.5221 28.1193C23.8369 28.0968 24.0702 28.3688 24.0863 28.6653C24.2317 29.617 24.5893 30.6158 25.4191 31.18C27.0205 32.213 29.03 32.1423 30.8635 32.1713C32.3828 32.1038 34.088 32.0835 35.3278 31.0793C35.982 30.5068 36.1758 29.5485 35.999 28.7243C35.8075 28.0283 35.0795 27.704 34.4543 27.492C31.246 26.477 27.7635 26.8453 24.5861 25.6975C23.2963 25.2418 22.0489 24.3799 21.5533 23.0547C20.8619 21.1792 21.1787 18.8593 22.6345 17.4226C24.0541 15.9935 26.1032 15.4434 28.0515 15.2464Z" fill="#8CC84B"/>
</g>
</svg>
