<svg width="50" height="50" viewBox="0 0 50 50" fill="none" xmlns="http://www.w3.org/2000/svg">
<g clip-path="url(#clip0_708_405)">
<path d="M46.0489 11.5351C44.186 8.61768 40.1803 7.40575 34.7829 8.10135C34.5922 8.1237 34.3902 8.15745 34.1995 8.17981C34.121 8.00054 34.0426 7.82083 33.9527 7.64156C31.6301 2.71535 28.4545 0 24.9984 0C21.5423 0 18.3558 2.71535 16.0441 7.64156C15.9656 7.82083 15.8758 8.00054 15.7973 8.17981C15.5953 8.1465 15.4046 8.1237 15.2139 8.10135C9.80558 7.39435 5.81079 8.61768 3.94796 11.5351C2.08556 14.4525 2.65756 18.5928 5.55262 23.1934C5.93439 23.7995 6.34948 24.4053 6.79831 25.0001C6.34948 25.6058 5.93439 26.2006 5.55262 26.8064C2.65756 31.4069 2.08556 35.5586 3.94796 38.4651C5.46277 40.8438 8.40298 42.0895 12.3636 42.0895C13.313 42.0842 14.261 42.0207 15.2025 41.8984C15.3932 41.876 15.5953 41.8423 15.7859 41.8199C15.8648 41.9996 15.9433 42.1789 16.0331 42.3586C18.3558 47.2844 21.5313 50.0002 24.987 50.0002C28.4431 50.0002 31.6301 47.2844 33.9413 42.3586C34.0198 42.1789 34.1096 41.9996 34.1881 41.8199C34.3902 41.8537 34.5808 41.876 34.7719 41.8984C35.7125 42.0259 36.6611 42.0895 37.6104 42.0895C41.5715 42.0895 44.5112 40.8438 46.0261 38.4651C47.8889 35.5477 47.3165 31.4069 44.4218 26.8064C44.0401 26.2006 43.625 25.5949 43.1761 25.0001C43.625 24.3939 44.0401 23.7995 44.4218 23.1934C47.3502 18.5819 47.9226 14.4411 46.0489 11.5351ZM18.0752 8.59533C19.9714 4.55583 22.4961 2.24417 24.9984 2.24417C27.5007 2.24417 30.0254 4.55583 31.9216 8.59533C31.9229 8.60366 31.9268 8.61155 31.933 8.61768C29.5494 9.191 27.2246 9.98347 24.987 10.985C22.752 9.97865 20.4264 9.18574 18.0415 8.61768C18.0638 8.61768 18.0638 8.60629 18.0752 8.59533ZM35.1085 25.0001C35.109 26.7954 35.0117 28.5899 34.8166 30.3747C33.418 31.5033 31.9571 32.5522 30.4405 33.5165C28.6903 34.6404 26.8687 35.6489 24.987 36.5352C23.1093 35.6419 21.2876 34.6338 19.5339 33.5165C18.0191 32.5496 16.5582 31.5007 15.1578 30.3747C14.7686 26.802 14.7686 23.1977 15.1578 19.625C18.1822 17.1946 21.4814 15.1271 24.987 13.465C26.8652 14.3578 28.6864 15.366 30.4405 16.4832C31.9553 17.4501 33.4162 18.499 34.8166 19.625C35.0117 21.4103 35.109 23.2043 35.1085 25.0001ZM37.2515 21.7347C38.3503 22.7581 39.3847 23.8486 40.3486 25.0001C39.3847 26.1511 38.3503 27.2416 37.2515 28.2651C37.319 27.1881 37.3527 26.0998 37.3527 25.0001C37.3527 23.9004 37.319 22.812 37.2515 21.7347ZM34.3564 33.5617C34.0022 35.5043 33.4881 37.4144 32.8192 39.2729C31.0765 38.8793 29.3662 38.3542 27.7028 37.702C29.0265 37.0064 30.3507 36.2433 31.6634 35.4131C32.5839 34.8183 33.4815 34.2012 34.3564 33.5617ZM22.294 37.702C20.6337 38.3625 18.9225 38.8881 17.1776 39.2729C16.5087 37.4144 15.9946 35.5043 15.6404 33.5617C16.5043 34.2012 17.402 34.8183 18.3334 35.4017C19.6462 36.2433 20.9703 37.0064 22.294 37.702ZM12.7453 28.2651C11.6465 27.2416 10.6125 26.1511 9.64823 25.0001C10.6125 23.8486 11.6465 22.7581 12.7453 21.7347C12.6778 22.812 12.6441 23.9004 12.6441 25.0001C12.6441 26.0998 12.6778 27.1881 12.7453 28.2651ZM15.6404 16.4385C15.9946 14.4955 16.5087 12.5853 17.1776 10.7273C18.9203 11.1205 20.631 11.6456 22.294 12.2982C20.9703 12.9938 19.6462 13.7569 18.3334 14.5871C17.413 15.1819 16.5153 15.799 15.6404 16.4385ZM31.6524 14.5871C30.3507 13.7569 29.0265 12.9824 27.6914 12.2982C29.3517 11.6377 31.0629 11.1121 32.8083 10.7273C33.4767 12.5853 33.9908 14.4955 34.3454 16.4385C33.4815 15.799 32.5839 15.1819 31.6524 14.5871ZM7.44921 21.9928C5.07004 18.2224 4.48665 14.8452 5.83314 12.7356C6.91052 11.0525 9.24454 10.1435 12.3973 10.1435C13.2415 10.147 14.0848 10.2035 14.922 10.3118H14.9444C14.0366 12.9513 13.405 15.6776 13.0596 18.4469C11.3305 19.8894 9.72055 21.4695 8.24562 23.171C7.9651 22.7897 7.69598 22.3969 7.44921 21.9928ZM14.9111 39.677C14.0739 39.7857 13.2306 39.8418 12.3864 39.8453C9.23314 39.8453 6.89912 38.9477 5.82219 37.2531C4.47569 35.1435 5.05908 31.7663 7.43781 27.996C7.68458 27.6032 7.95414 27.1991 8.23466 26.8064C9.70915 28.5083 11.3191 30.088 13.0482 31.5305C13.3941 34.3002 14.0257 37.0265 14.9334 39.6656C14.9334 39.677 14.922 39.677 14.9111 39.677ZM31.9216 41.4048C30.0254 45.4443 27.5007 47.756 24.9984 47.756C22.4961 47.756 19.9714 45.4443 18.0752 41.4048C18.0739 41.3965 18.07 41.3886 18.0638 41.3825C20.4474 40.8092 22.7722 40.0167 25.0098 39.0147C27.2448 40.0215 29.5705 40.8144 31.9553 41.3825C31.933 41.3825 31.933 41.3935 31.9216 41.4048ZM42.5476 28.0074C44.9268 31.7773 45.5102 35.1549 44.1637 37.2645C42.8172 39.3737 39.507 40.2604 35.0858 39.677H35.0634C35.9711 37.0375 36.6032 34.3112 36.9486 31.5419C38.6777 30.0994 40.2877 28.5193 41.7621 26.8178C42.0317 27.2105 42.3008 27.6032 42.5476 28.0074ZM36.9372 18.4583C36.5918 15.6886 35.9602 12.9622 35.0524 10.3232H35.0748C39.4956 9.75072 42.8058 10.626 44.1523 12.7356C45.4988 14.8452 44.9154 18.2224 42.5366 21.9928C42.2899 22.3855 42.0203 22.7897 41.7398 23.1824C40.2719 21.4778 38.6655 19.8977 36.9372 18.4583Z" fill="url(#paint0_linear_708_405)"/>
<path d="M24.9983 20.5565C22.5442 20.5565 20.5547 22.546 20.5547 25.0001C20.5547 27.4542 22.5442 29.4433 24.9983 29.4433C27.4524 29.4433 29.4419 27.4542 29.4419 25.0001C29.4402 22.5464 27.4516 20.5582 24.9983 20.5565ZM24.9983 27.1991C23.7837 27.1991 22.7989 26.2146 22.7989 25.0001C22.7989 23.7855 23.7837 22.8006 24.9983 22.8006C26.2129 22.8006 27.1978 23.7855 27.1978 25.0001C27.1956 26.2138 26.212 27.1973 24.9983 27.1991Z" fill="url(#paint1_linear_708_405)"/>
</g>
<defs>
<linearGradient id="paint0_linear_708_405" x1="25.0018" y1="-1.92998" x2="25.0018" y2="52.4696" gradientUnits="userSpaceOnUse">
<stop stop-color="#00EFD1"/>
<stop offset="1" stop-color="#00ACEA"/>
</linearGradient>
<linearGradient id="paint1_linear_708_405" x1="24.9983" y1="-1.92999" x2="24.9983" y2="52.4696" gradientUnits="userSpaceOnUse">
<stop stop-color="#00EFD1"/>
<stop offset="1" stop-color="#00ACEA"/>
</linearGradient>
<clipPath id="clip0_708_405">
<rect width="50" height="50" fill="white"/>
</clipPath>
</defs>
</svg>
