<svg width="50" height="50" viewBox="0 0 50 50" fill="none" xmlns="http://www.w3.org/2000/svg">
<g clip-path="url(#clip0_700_398)">
<path d="M41.6488 9.628C41.6143 9.37556 41.3932 9.23591 41.2108 9.22068C41.0285 9.20545 37.4693 9.15134 37.4693 9.15134C37.4693 9.15134 34.4927 6.26043 34.1986 5.96619C33.9046 5.67195 33.3302 5.76121 33.1072 5.82683C33.1039 5.82781 32.5486 5.99978 31.6114 6.28992C31.4551 5.78191 31.2244 5.15798 30.8957 4.53103C29.8357 2.50916 28.2841 1.43894 26.4086 1.43621C26.4064 1.43621 26.4045 1.43621 26.4022 1.43621C26.2723 1.43621 26.1427 1.44841 26.013 1.46023C25.9579 1.39382 25.9021 1.328 25.8435 1.26521C25.027 0.391285 23.9784 -0.0344959 22.7234 0.00232054C20.3008 0.0717541 17.8894 1.82107 15.9334 4.92771C14.5565 7.11423 13.5105 9.86101 13.2131 11.9869C10.432 12.8481 8.48623 13.4508 8.44414 13.4639C7.04033 13.9045 6.99619 13.9486 6.81211 15.2712C6.67275 16.2724 3 44.6765 3 44.6765L33.7846 50L47.1268 46.6837C47.1268 46.6837 41.6833 9.88045 41.6488 9.628ZM14.9377 11.4527C15.7701 7.56052 19.0314 1.72136 22.77 1.61384C23.3388 1.60193 23.8178 1.72673 24.2269 1.99597C23.5726 2.33572 22.9396 2.824 22.346 3.46072C20.8073 5.1113 19.6287 7.6742 19.1587 10.1456C17.6919 10.5998 16.2574 11.044 14.9377 11.4527ZM26.0699 8.00564C24.4572 8.50496 22.6966 9.05017 20.9304 9.59705C21.4276 7.6949 22.3688 5.80105 23.5255 4.56033C23.9558 4.09881 24.5577 3.58377 25.2704 3.28972C25.9409 4.68689 26.0861 6.66755 26.0699 8.00564ZM27.6803 7.50701C27.6624 6.28035 27.5159 4.5742 26.9445 3.09929C28.7825 3.44754 29.6875 5.52722 30.0694 6.76726C29.3611 6.9865 28.5543 7.23631 27.6803 7.50701Z" fill="#95BF47"/>
<path d="M41.2106 9.22069C41.0283 9.20546 37.4691 9.15135 37.4691 9.15135C37.4691 9.15135 34.4925 6.26044 34.1984 5.9662C34.0888 5.85643 33.94 5.80028 33.7852 5.77606L33.7859 49.9997L47.1266 46.6837C47.1266 46.6837 41.6832 9.88046 41.6486 9.62802C41.6141 9.37557 41.393 9.23593 41.2106 9.22069Z" fill="#5E8E3E"/>
<path d="M26.3911 16.0808L24.8414 21.8778C24.8414 21.8778 23.1129 21.0907 21.0636 21.2201C18.0588 21.4098 18.0269 23.3052 18.0568 23.7802C18.2205 26.3729 25.041 26.9394 25.4244 33.0119C25.7261 37.7894 22.8903 41.0574 18.8043 41.3154C13.9011 41.625 11.2012 38.7317 11.2012 38.7317L12.2401 34.3113C12.2401 34.3113 14.9572 36.3613 17.1322 36.224C18.5529 36.1343 19.0605 34.9788 19.009 34.1616C18.7954 30.7796 13.2415 30.9788 12.8906 25.4218C12.5953 20.7449 15.6664 16.0069 22.443 15.579C25.054 15.4142 26.3911 16.0808 26.3911 16.0808Z" fill="white"/>
</g>
<defs>
<clipPath id="clip0_700_398">
<rect width="50" height="50" fill="white"/>
</clipPath>
</defs>
</svg>
