<svg width="1600" height="462" viewBox="0 0 1600 462" fill="none" xmlns="http://www.w3.org/2000/svg">
<rect width="1600" height="462" fill="#EB4034" fill-opacity="0.21"/>
<mask id="mask0_1241_2506" style="mask-type:alpha" maskUnits="userSpaceOnUse" x="0" y="0" width="1600" height="462">
<rect width="1600" height="462" fill="#F0FAFE"/>
</mask>
<g mask="url(#mask0_1241_2506)">
<path d="M1648.18 -185.901C1779.33 -87.5126 1873.47 85.2201 1871.71 262.478C1872.99 439.472 1778.35 620.992 1602.2 730.829C1426.45 844.58 1217.81 868.488 1046.78 861.811C1038.5 861.404 1030.32 861.644 1022.17 860.357C798.68 825.059 498.59 557.226 689.496 304.649C768.488 200.137 865.075 238.512 964.458 79.7866C1067.26 -79.1025 1158.21 -198.179 1271.03 -249.578C1381.62 -301.457 1514.08 -285.659 1648.18 -185.901Z" fill="#FACCC8"/>
</g>
</svg>
