<svg width="250" height="259" viewBox="0 0 250 259" fill="none" xmlns="http://www.w3.org/2000/svg">
<g clip-path="url(#clip0_985_921)">
<path d="M249.415 58.973C249.507 59.3155 249.555 59.6686 249.555 60.0234V115.167C249.555 115.875 249.369 116.57 249.014 117.183C248.659 117.795 248.149 118.303 247.535 118.655L201.252 145.303V198.12C201.252 199.557 200.488 200.884 199.241 201.608L102.629 257.224C102.407 257.35 102.166 257.43 101.925 257.516C101.835 257.546 101.749 257.601 101.654 257.626C100.978 257.804 100.268 257.804 99.593 257.626C99.4824 257.596 99.3819 257.536 99.2764 257.496C99.0552 257.415 98.824 257.345 98.6129 257.224L2.02041 201.608C1.40678 201.255 0.896923 200.747 0.542216 200.135C0.187508 199.522 0.000486201 198.827 0 198.12L0 32.6876C0 32.3257 0.0502589 31.9739 0.140725 31.6321C0.17088 31.5165 0.241243 31.411 0.28145 31.2954C0.356838 31.0843 0.4272 30.8682 0.53777 30.6722C0.613158 30.5415 0.723728 30.436 0.814194 30.3154C0.929789 30.1545 1.03533 29.9887 1.17103 29.8479C1.28663 29.7324 1.4374 29.6469 1.56808 29.5464C1.71383 29.4258 1.8445 29.2951 2.01036 29.1996L50.3142 1.39137C50.9257 1.03946 51.6189 0.854248 52.3245 0.854248C53.0301 0.854248 53.7233 1.03946 54.3349 1.39137L102.634 29.1996H102.644C102.805 29.3001 102.94 29.4258 103.086 29.5414C103.217 29.6419 103.362 29.7324 103.478 29.8429C103.619 29.9887 103.719 30.1545 103.84 30.3154C103.925 30.436 104.041 30.5415 104.111 30.6722C104.227 30.8732 104.292 31.0843 104.373 31.2954C104.413 31.411 104.483 31.5165 104.513 31.6372C104.606 31.9797 104.653 32.3328 104.654 32.6876V136.015L144.901 112.84V60.0184C144.901 59.6665 144.952 59.3097 145.042 58.973C145.077 58.8523 145.143 58.7468 145.183 58.6312C145.263 58.4201 145.334 58.204 145.444 58.008C145.52 57.8773 145.63 57.7718 145.716 57.6512C145.836 57.4903 145.937 57.3245 146.077 57.1838C146.193 57.0682 146.339 56.9827 146.469 56.8822C146.62 56.7616 146.751 56.6309 146.912 56.5354L195.221 28.7272C195.832 28.3748 196.525 28.1893 197.231 28.1893C197.937 28.1893 198.63 28.3748 199.241 28.7272L247.54 56.5354C247.711 56.6359 247.842 56.7616 247.992 56.8772C248.118 56.9777 248.264 57.0682 248.379 57.1787C248.52 57.3245 248.621 57.4903 248.741 57.6512C248.832 57.7718 248.942 57.8773 249.013 58.008C249.128 58.204 249.194 58.4201 249.274 58.6312C249.319 58.7468 249.385 58.8523 249.415 58.973ZM241.504 112.84V66.9842L224.602 76.7144L201.252 90.1586V136.015L241.509 112.84H241.504ZM193.205 195.793V149.906L170.237 163.024L104.649 200.457V246.775L193.205 195.793ZM8.05147 39.6484V195.793L96.5976 246.77V200.462L50.3393 174.282L50.3242 174.272L50.3041 174.262C50.1483 174.171 50.0176 174.041 49.8719 173.93C49.7462 173.83 49.6005 173.749 49.4899 173.639L49.4799 173.624C49.3492 173.498 49.2587 173.342 49.1482 173.201C49.0476 173.066 48.927 172.95 48.8466 172.809L48.8416 172.794C48.7511 172.643 48.6958 172.463 48.6305 172.292C48.5651 172.141 48.4797 172 48.4395 171.839C48.3892 171.648 48.3792 171.442 48.3591 171.246C48.339 171.095 48.2988 170.945 48.2988 170.794V62.8228L24.9535 49.3735L8.05147 39.6484ZM52.3295 9.52326L12.0873 32.6876L52.3195 55.8519L92.5567 32.6826L52.3195 9.52326H52.3295ZM73.2573 154.088L96.6026 140.649V39.6484L79.7005 49.3785L56.3502 62.8228V163.823L73.2573 154.088ZM197.231 36.8591L156.994 60.0234L197.231 83.1877L237.463 60.0184L197.231 36.8591ZM193.205 90.1586L169.855 76.7144L152.953 66.9842V112.84L176.298 126.28L193.205 136.015V90.1586ZM100.618 193.496L159.637 159.802L189.139 142.966L148.932 119.816L102.639 146.469L60.4464 170.759L100.618 193.496Z" fill="#FF2D20"/>
</g>
<defs>
<clipPath id="clip0_985_921">
<rect width="250" height="258.478" fill="white"/>
</clipPath>
</defs>
</svg>
