<svg width="403" height="380" viewBox="0 0 403 380" fill="none" xmlns="http://www.w3.org/2000/svg">
<path opacity="0.3" d="M240.69 55.011L233.184 55.5168C232.322 52.1676 231.192 48.9314 229.787 45.8475L236.015 41.6679C237.713 40.5273 238.151 38.2202 236.99 36.513L229.726 25.8263C228.564 24.1162 226.239 23.6496 224.535 24.7872L218.225 28.9987C215.828 26.5437 213.225 24.2916 210.44 22.2742L213.767 15.4411C214.664 13.5991 213.879 11.3615 212.012 10.4427L200.318 4.68779C198.445 3.76607 196.194 4.51389 195.293 6.36021L191.942 13.2151C188.665 12.2615 185.273 11.5934 181.803 11.2079L181.219 3.52116C181.063 1.45745 179.245 -0.11642 177.16 0.00676512L164.089 0.777758C161.995 0.900943 160.423 2.67916 160.581 4.74866L161.166 12.4586C157.762 13.2629 154.473 14.3411 151.336 15.6918L146.927 9.26447C145.739 7.53119 143.359 7.05439 141.613 8.20218L130.674 15.386C128.922 16.5367 128.468 18.8787 129.663 20.6149L134.086 27.0437C131.573 29.4175 129.279 32.0073 127.222 34.7782L120.144 31.3595C118.228 30.4334 115.924 31.2001 114.999 33.071L109.208 44.7866C108.281 46.6619 109.088 48.9314 111.009 49.8532L118.035 53.2255C117.076 56.5182 116.419 59.9282 116.057 63.4165L108.278 63.9411C106.149 64.0846 104.549 65.8933 104.708 67.9816L105.699 81.0378C105.857 83.1247 107.714 84.6956 109.843 84.5464L117.559 84.0029C118.428 87.4274 119.585 90.7288 121.021 93.8765L114.673 98.1126C112.911 99.2894 112.454 101.644 113.656 103.373L121.156 114.173C122.354 115.898 124.75 116.34 126.506 115.161L132.803 110.935C135.274 113.438 137.965 115.718 140.839 117.756L137.548 124.489C136.628 126.37 137.43 128.625 139.338 129.523L151.247 135.133C153.149 136.029 155.431 135.23 156.346 133.352L159.594 126.683C162.954 127.613 166.43 128.241 169.979 128.576L170.538 135.948C170.695 138.017 172.519 139.562 174.611 139.397L187.662 138.368C189.745 138.204 191.306 136.397 191.149 134.333L190.591 126.983C194.024 126.11 197.335 124.964 200.481 123.538L204.647 129.593C205.818 131.296 208.159 131.728 209.873 130.558L220.577 123.26C222.286 122.095 222.725 119.773 221.558 118.073L217.38 111.98C219.854 109.566 222.113 106.944 224.125 104.141L230.803 107.347C232.661 108.238 234.891 107.46 235.784 105.608L241.358 94.0374C242.248 92.1896 241.468 89.965 239.614 89.0709L232.923 85.8376C233.835 82.574 234.455 79.2001 234.784 75.7495L242.229 75.2249C244.278 75.0799 245.811 73.3046 245.656 71.2583L244.685 58.4616C244.526 56.4196 242.739 54.8733 240.69 55.011ZM173.031 32.0174C194.066 30.6812 212.305 46.4315 213.88 67.1889C215.456 87.9463 199.785 106.034 178.767 107.598C157.621 109.17 139.093 93.4403 137.5 72.4554C135.907 51.469 151.866 33.3623 173.031 32.0174Z" fill="#BFC8D6"/>
<path d="M210.86 308.128C188.215 277.642 198.208 230.493 216.14 222.46C225.467 218.282 233.081 226.415 242.145 220.754C252.188 214.482 247.806 201.397 256.224 178.193C260.573 166.203 268.462 144.462 283.736 140.591C298.884 136.752 306.195 154.314 322.721 151.085C338.348 148.031 337.751 131.168 358.481 122.079C360.41 121.234 382.222 111.982 394.314 122.028C406.601 132.233 404.516 158.751 392.445 172.177C381.479 184.375 365.492 182.181 363.834 190.807C362.007 200.313 380.821 206.091 379.881 216.035C378.524 230.41 338.223 228.826 330.86 249.956C326.529 262.382 338.523 268.499 336.512 285.241C333.915 306.849 310.749 323.186 293.009 329.473C267.302 338.581 230.489 334.552 210.86 308.128Z" fill="#D8DEE8"/>
<mask id="mask0_1224_8721" style="mask-type:luminance" maskUnits="userSpaceOnUse" x="197" y="117" width="206" height="217">
<path d="M210.858 308.128C188.213 277.642 198.207 230.493 216.138 222.46C225.465 218.282 233.079 226.415 242.143 220.754C252.186 214.482 247.804 201.397 256.222 178.193C260.571 166.204 268.46 144.462 283.734 140.591C298.882 136.752 306.193 154.314 322.719 151.085C338.346 148.032 337.749 131.168 358.479 122.079C360.408 121.234 382.22 111.982 394.312 122.028C406.599 132.234 404.514 158.752 392.443 172.177C381.477 184.375 365.49 182.181 363.832 190.807C362.005 200.313 380.819 206.091 379.88 216.035C378.522 230.41 338.221 228.826 330.858 249.956C326.527 262.382 338.521 268.499 336.51 285.241C333.913 306.849 310.747 323.186 293.007 329.473C267.3 338.581 230.487 334.552 210.858 308.128Z" fill="white"/>
</mask>
<g mask="url(#mask0_1224_8721)">
<path d="M219.736 332.67L218.711 332.038C243.174 292.365 268.459 256.346 293.861 224.98C314.188 199.882 334.635 177.69 354.636 159.021C388.72 127.206 409.998 116.511 410.21 116.406L410.743 117.486C410.533 117.59 389.367 128.239 355.394 159.962C324.035 189.242 275.044 242.972 219.736 332.67Z" fill="white"/>
<path d="M351.475 162.188C356.034 125.16 376.409 100.149 376.613 99.8995L377.541 100.666C377.338 100.913 357.183 125.668 352.669 162.334L351.475 162.188Z" fill="white"/>
<path d="M290.13 229.403C282.301 189.522 284.452 163.637 287.636 148.945C291.104 132.941 296.382 126.495 296.604 126.228L297.528 126.999C297.475 127.063 292.179 133.562 288.783 149.33C285.646 163.899 283.539 189.578 291.311 229.17L290.13 229.403Z" fill="white"/>
<path d="M240.259 298.861C211.252 233.999 222.043 193.519 222.154 193.117L223.314 193.442C223.286 193.543 220.519 204.044 221.566 222.671C222.486 239.074 226.669 265.521 241.358 298.369L240.259 298.861Z" fill="white"/>
<path d="M310.572 223.558C306.442 223.005 302.272 222.216 298.09 221.153L298.387 219.986C325.718 226.932 352.613 222.031 370.362 216.696C389.602 210.914 402.519 203.398 402.646 203.323L403.256 204.36C403.127 204.436 390.084 212.024 370.708 217.848C355.526 222.413 333.697 226.661 310.572 223.558Z" fill="white"/>
<path d="M256.298 287.377C254.068 287.078 251.818 286.696 249.549 286.225L249.794 285.046C278.58 291.027 304.359 282.372 320.918 274.061C338.874 265.047 350.142 254.495 350.253 254.389L351.079 255.265C350.966 255.372 339.569 266.044 321.457 275.136C306.033 282.88 282.677 290.916 256.298 287.377Z" fill="white"/>
</g>
<path d="M114.136 261.219C76.581 266.86 39.6777 235.858 41.0255 216.256C41.7269 206.06 52.486 203.167 51.7542 192.505C50.9441 180.693 37.3358 178.403 20.8203 160.059C12.2872 150.581 -3.18626 133.391 0.583196 118.092C4.32222 102.918 23.2594 104.731 28.1838 88.6273C32.8417 73.4017 17.6798 65.9946 19.4116 43.4243C19.5725 41.3243 21.671 17.725 36.2256 11.7803C51.0122 5.73985 73.4304 20.0568 79.5997 37.0245C85.2039 52.4399 75.7477 65.5149 82.5779 71.0351C90.1052 77.1189 104.056 63.2353 112.389 68.7438C124.435 76.7045 104.076 111.521 119.258 127.959C128.185 137.626 139.227 129.92 153.053 139.572C170.899 152.028 174.416 180.158 171.617 198.769C167.562 225.741 146.688 256.33 114.136 261.219Z" fill="url(#paint0_linear_1224_8721)"/>
<mask id="mask1_1224_8721" style="mask-type:luminance" maskUnits="userSpaceOnUse" x="0" y="10" width="173" height="252">
<path d="M114.134 261.219C76.579 266.86 39.6758 235.858 41.0235 216.256C41.725 206.06 52.4841 203.168 51.7522 192.506C50.9421 180.693 37.3338 178.403 20.8183 160.059C12.2853 150.581 -3.18821 133.391 0.581243 118.092C4.32026 102.918 23.2574 104.731 28.1819 88.6274C32.8397 73.4017 17.6779 65.9947 19.4097 43.4243C19.5706 41.3244 21.669 17.7251 36.2237 11.7803C51.0102 5.73991 73.4284 20.0569 79.5978 37.0245C85.202 52.44 75.7457 65.515 82.576 71.0351C90.1033 77.119 104.054 63.2353 112.387 68.7439C124.433 76.7045 104.074 111.521 119.256 127.96C128.183 137.626 139.225 129.92 153.051 139.572C170.897 152.028 174.414 180.158 171.615 198.769C167.56 225.741 146.686 256.33 114.134 261.219Z" fill="white"/>
</mask>
<g mask="url(#mask1_1224_8721)">
<path d="M139.969 264.934L138.93 265.541C115.431 225.289 95.5428 186.032 79.8172 148.86C67.2335 119.116 57.2714 90.6317 50.2079 64.1991C38.1705 19.154 38.743 -4.65396 38.7502 -4.88873L39.9531 -4.8525C39.9458 -4.61918 39.385 19.0686 51.3933 63.9716C62.4756 105.42 86.8401 173.928 139.969 264.934Z" fill="white"/>
<path d="M51.5114 68.4772C20.9819 47.0329 8.49674 17.2874 8.375 16.9903L9.48801 16.5323C9.60975 16.828 21.9732 46.259 52.2027 67.4932L51.5114 68.4772Z" fill="white"/>
<path d="M81.9618 154.234C43.0876 142.379 21.2578 128.303 9.78997 118.582C-2.69953 107.992 -5.90668 100.302 -6.03711 99.9792L-4.9212 99.527C-4.88932 99.6038 -1.64593 107.336 10.6711 117.75C22.0519 127.373 43.7194 141.313 82.3125 153.082L81.9618 154.234Z" fill="white"/>
<path d="M119.79 230.917C48.9084 225.999 18.2643 197.431 17.9629 197.145L18.7947 196.275C18.8701 196.347 26.8365 203.728 43.765 211.569C58.6719 218.473 83.9769 227.226 119.874 229.717L119.79 230.917Z" fill="white"/>
<path d="M86.4224 133.443C83.9905 136.827 81.3341 140.136 78.4269 143.327L77.5371 142.517C96.525 121.667 104.854 95.6286 108.496 77.4581C112.445 57.7602 111.89 42.8258 111.884 42.678L113.087 42.6287C113.093 42.7794 113.652 57.8573 109.675 77.6958C106.561 93.2374 100.039 114.498 86.4224 133.443Z" fill="white"/>
<path d="M117.203 211.36C115.89 213.188 114.495 214.992 113.011 216.774L112.086 216.003C130.907 193.416 135.398 166.596 135.853 148.073C136.348 127.989 132.338 113.082 132.297 112.932L133.458 112.615C133.498 112.764 137.555 127.844 137.056 148.102C136.633 165.358 132.735 189.749 117.203 211.36Z" fill="white"/>
</g>
<path d="M392.944 348.156L12.5996 344.868V354.595C12.5996 357.236 14.259 359.48 16.5053 359.88L124.056 379.036C125.333 379.264 126.627 379.323 127.915 379.216L388.812 357.376C391.141 357.182 392.945 354.93 392.945 352.217V348.156H392.944Z" fill="#BFC8D6"/>
<path d="M252.977 332.567L11.2378 350.362C6.91182 350.681 3.39453 347.297 3.39453 342.804V162.788C3.39453 158.295 6.91182 154.652 11.2378 154.652L19.7897 159.58L252.977 154.652C256.541 154.652 259.422 157.944 259.422 162.006V324.738C259.422 328.8 256.541 332.304 252.977 332.567Z" fill="#BFC8D6"/>
<path d="M256.829 332.567L15.0893 350.362C10.7634 350.681 7.24609 347.297 7.24609 342.804V162.788C7.24609 158.295 10.7634 154.652 15.0893 154.652H256.829C260.392 154.652 263.273 157.944 263.273 162.006V324.738C263.275 328.8 260.394 332.304 256.829 332.567Z" fill="white"/>
<path d="M249.3 321.095L24.1446 336.552C20.6245 336.794 17.7637 334.016 17.7637 330.348V172.744C17.7637 169.076 20.6245 166.089 24.1446 166.074L249.3 165.103C252.241 165.09 254.618 167.789 254.618 171.129V314.679C254.618 318.021 252.241 320.892 249.3 321.095Z" fill="#D8DEE8"/>
<path d="M103.998 180.865L43.2333 181.023L43.2246 175.229L103.99 175.25L103.998 180.865Z" fill="white"/>
<path d="M132.613 179.187L118.576 179.212L118.57 175.254L132.606 175.258L132.613 179.187Z" fill="white"/>
<path d="M132.619 184.646L118.583 184.712L118.576 180.754L132.613 180.717L132.619 184.646Z" fill="white"/>
<path d="M202.571 184.322L148.113 184.574L148.107 180.678L202.565 180.538L202.571 184.322Z" fill="white"/>
<path d="M211.508 189.511L157.592 189.917L157.586 186.041L211.502 185.746L211.508 189.511Z" fill="white"/>
<path d="M211.521 194.742L157.605 195.304L157.6 191.427L211.515 190.977L211.521 194.742Z" fill="white"/>
<path d="M211.524 199.972L157.609 200.691L157.604 196.814L211.518 196.207L211.524 199.972Z" fill="white"/>
<path d="M132.629 190.106L118.592 190.211L118.586 186.254L132.623 186.177L132.629 190.106Z" fill="white"/>
<path d="M132.637 195.565L118.6 195.711L118.594 191.752L132.631 191.636L132.637 195.565Z" fill="white"/>
<path d="M132.649 201.023L118.611 201.21L118.605 197.252L132.643 197.094L132.649 201.023Z" fill="white"/>
<path d="M132.654 206.482L118.617 206.709L118.611 202.752L132.647 202.553L132.654 206.482Z" fill="white"/>
<path d="M170.266 205.872L135.715 206.433L135.709 202.51L170.26 202.021L170.266 205.872Z" fill="white"/>
<path d="M132.662 211.941L118.625 212.209L118.619 208.252L132.655 208.012L132.662 211.941Z" fill="white"/>
<path d="M132.671 217.399L118.635 217.708L118.629 213.75L132.665 213.47L132.671 217.399Z" fill="white"/>
<path d="M132.678 222.858L118.642 223.208L118.635 219.25L132.672 218.929L132.678 222.858Z" fill="white"/>
<path d="M186.462 210.912L148.156 211.644L148.15 207.749L186.457 207.096L186.462 210.912Z" fill="white"/>
<path d="M206.371 215.779L157.635 216.85L157.629 212.973L206.365 212.004L206.371 215.779Z" fill="white"/>
<path d="M206.381 221.024L157.644 222.237L157.639 218.36L206.375 217.248L206.381 221.024Z" fill="white"/>
<path d="M132.69 228.318L118.654 228.707L118.646 224.749L132.684 224.389L132.69 228.318Z" fill="white"/>
<path d="M132.697 233.777L118.66 234.207L118.654 230.248L132.692 229.846L132.697 233.777Z" fill="white"/>
<path d="M132.705 239.235L118.668 239.706L118.662 235.748L132.698 235.306L132.705 239.235Z" fill="white"/>
<path d="M132.712 244.694L118.676 245.206L118.67 241.248L132.706 240.765L132.712 244.694Z" fill="white"/>
<path d="M132.721 250.153L118.685 250.705L118.68 246.747L132.716 246.224L132.721 250.153Z" fill="white"/>
<path d="M132.731 255.611L118.695 256.204L118.689 252.246L132.725 251.682L132.731 255.611Z" fill="white"/>
<path d="M132.736 261.07L118.701 261.704L118.693 257.746L132.731 257.141L132.736 261.07Z" fill="white"/>
<path d="M132.748 266.529L118.712 267.203L118.705 263.246L132.742 262.601L132.748 266.529Z" fill="white"/>
<path d="M132.754 271.987L118.717 272.703L118.711 268.744L132.747 268.058L132.754 271.987Z" fill="white"/>
<path d="M132.764 277.447L118.728 278.202L118.723 274.244L132.758 273.518L132.764 277.447Z" fill="white"/>
<path d="M132.772 282.906L118.736 283.701L118.73 279.744L132.766 278.977L132.772 282.906Z" fill="white"/>
<path d="M132.78 288.365L118.744 289.201L118.738 285.242L132.774 284.436L132.78 288.365Z" fill="white"/>
<path d="M132.79 293.823L118.754 294.7L118.748 290.742L132.784 289.894L132.79 293.823Z" fill="white"/>
<path d="M132.797 299.282L118.762 300.2L118.756 296.242L132.79 295.353L132.797 299.282Z" fill="white"/>
<path d="M132.805 304.741L118.771 305.699L118.764 301.742L132.799 300.813L132.805 304.741Z" fill="white"/>
<path d="M132.813 310.199L118.777 311.199L118.771 307.24L132.807 306.27L132.813 310.199Z" fill="white"/>
<path d="M132.821 315.658L118.785 316.698L118.779 312.74L132.815 311.73L132.821 315.658Z" fill="white"/>
<path d="M132.831 321.118L118.795 322.197L118.789 318.24L132.825 317.189L132.831 321.118Z" fill="white"/>
<path d="M173.861 179.115L135.578 179.183L135.572 175.26L173.855 175.273L173.861 179.115Z" fill="white"/>
<path d="M202.733 289.453L148.281 292.855L148.275 288.959L202.727 285.669L202.733 289.453Z" fill="white"/>
<path d="M211.669 294.126L157.758 297.65L157.752 293.774L211.663 290.362L211.669 294.126Z" fill="white"/>
<path d="M211.68 299.358L157.769 303.037L157.764 299.16L211.674 295.592L211.68 299.358Z" fill="white"/>
<path d="M234.919 302.936L182.404 306.672L182.398 302.846L234.913 299.218L234.919 302.936Z" fill="white"/>
<path d="M234.926 308.099L182.412 311.988L182.406 308.162L234.921 304.382L234.926 308.099Z" fill="white"/>
<path d="M234.934 313.263L182.42 317.302L182.414 313.476L234.928 309.546L234.934 313.263Z" fill="white"/>
<path d="M174.03 285.907L135.751 288.188L135.744 284.265L174.024 282.064L174.03 285.907Z" fill="white"/>
<path d="M202.648 231.631L148.193 233.302L148.188 229.405L202.642 227.848L202.648 231.631Z" fill="white"/>
<path d="M211.582 236.588L157.668 238.397L157.662 234.52L211.576 232.823L211.582 236.588Z" fill="white"/>
<path d="M211.593 241.819L157.68 243.784L157.674 239.907L211.587 238.053L211.593 241.819Z" fill="white"/>
<path d="M211.598 247.049L157.685 249.171L157.68 245.294L211.593 243.285L211.598 247.049Z" fill="white"/>
<path d="M170.339 254.023L135.79 255.482L135.783 251.559L170.333 250.172L170.339 254.023Z" fill="white"/>
<path d="M186.535 258.643L148.23 260.372L148.225 256.475L186.529 254.826L186.535 258.643Z" fill="white"/>
<path d="M206.444 262.991L157.709 265.331L157.703 261.453L206.438 259.215L206.444 262.991Z" fill="white"/>
<path d="M206.454 268.237L157.72 270.716L157.713 266.84L206.448 264.46L206.454 268.237Z" fill="white"/>
<path d="M217.267 272.9L169.119 275.492L169.113 271.638L217.261 269.147L217.267 272.9Z" fill="white"/>
<path d="M217.273 278.115L169.126 280.845L169.119 276.992L217.267 274.363L217.273 278.115Z" fill="white"/>
<path d="M173.938 227.171L135.656 228.235L135.65 224.312L173.93 223.328L173.938 227.171Z" fill="white"/>
<path d="M104.012 189.639L69.2314 189.89L69.2227 184.171L104.003 184.023L104.012 189.639Z" fill="white"/>
<path d="M60.2333 189.953L66.7838 189.907L66.7751 184.183L60.2246 184.21L60.2333 189.953Z" fill="white"/>
<path d="M104.025 197.711L69.245 198.108L69.2363 192.39L104.016 192.095L104.025 197.711Z" fill="white"/>
<path d="M60.2489 198.21L66.7995 198.136L66.7908 192.411L60.2402 192.466L60.2489 198.21Z" fill="white"/>
<path d="M104.035 205.783L69.2567 206.327L69.248 200.61L104.027 200.168L104.035 205.783Z" fill="white"/>
<path d="M60.2606 206.466L66.8112 206.365L66.8025 200.64L60.252 200.723L60.2606 206.466Z" fill="white"/>
<path d="M104.125 263.082L43.3661 265.847L43.3574 260.053L104.117 257.467L104.125 263.082Z" fill="white"/>
<path d="M104.139 271.857L69.3622 273.597L69.3535 267.88L104.131 266.241L104.139 271.857Z" fill="white"/>
<path d="M60.3661 274.048L66.9167 273.721L66.9065 267.996L60.3574 268.305L60.3661 274.048Z" fill="white"/>
<path d="M104.151 279.929L69.3739 281.817L69.3652 276.099L104.142 274.313L104.151 279.929Z" fill="white"/>
<path d="M60.3793 282.304L66.9284 281.949L66.9197 276.225L60.3691 276.561L60.3793 282.304Z" fill="white"/>
<path d="M104.165 288.001L69.3876 290.036L69.3789 284.317L104.156 282.386L104.165 288.001Z" fill="white"/>
<path d="M60.3915 290.562L66.942 290.178L66.9333 284.454L60.3828 284.817L60.3915 290.562Z" fill="white"/>
<path d="M104.046 213.911L43.2841 215.116L43.2754 209.322L104.037 208.295L104.046 213.911Z" fill="white"/>
<path d="M104.063 222.684L69.2841 223.534L69.2754 217.816L104.054 217.069L104.063 222.684Z" fill="white"/>
<path d="M60.288 223.754L66.8385 223.594L66.8298 217.869L60.2793 218.011L60.288 223.754Z" fill="white"/>
<path d="M104.075 230.757L69.2958 231.752L69.2871 226.035L104.066 225.141L104.075 230.757Z" fill="white"/>
<path d="M60.3017 232.01L66.8522 231.823L66.8435 226.099L60.293 226.267L60.3017 232.01Z" fill="white"/>
<path d="M104.098 247.005L69.3212 248.297L69.3125 242.579L104.09 241.391L104.098 247.005Z" fill="white"/>
<path d="M60.3251 248.631L66.8756 248.388L66.8655 242.664L60.3164 242.887L60.3251 248.631Z" fill="white"/>
<path d="M104.114 255.078L69.3349 256.515L69.3262 250.798L104.105 249.463L104.114 255.078Z" fill="white"/>
<path d="M60.3422 256.888L66.8913 256.617L66.8826 250.892L60.332 251.143L60.3422 256.888Z" fill="white"/>
<path d="M104.088 238.829L69.3095 239.971L69.3008 234.254L104.079 233.213L104.088 238.829Z" fill="white"/>
<path d="M60.3153 240.267L66.8659 240.052L66.8572 234.328L60.3066 234.523L60.3153 240.267Z" fill="white"/>
<path d="M104.176 296.071L43.4169 299.881L43.4082 294.087L104.167 290.455L104.176 296.071Z" fill="white"/>
<path d="M104.19 304.844L69.413 307.185L69.4043 301.468L104.182 299.229L104.19 304.844Z" fill="white"/>
<path d="M60.4189 307.791L66.9679 307.349L66.9592 301.624L60.4102 302.046L60.4189 307.791Z" fill="white"/>
<path d="M104.204 312.917L69.4267 315.403L69.418 309.686L104.195 307.301L104.204 312.917Z" fill="white"/>
<path d="M60.432 316.047L66.9811 315.579L66.9724 309.854L60.4219 310.302L60.432 316.047Z" fill="white"/>
<path d="M104.212 320.989L69.4364 323.622L69.4277 317.905L104.204 315.373L104.212 320.989Z" fill="white"/>
<path d="M60.4442 324.303L66.9948 323.808L66.9861 318.083L60.4355 318.56L60.4442 324.303Z" fill="white"/>
<path d="M111.597 320.458L110.258 320.56L110.035 175.251L111.373 175.252L111.597 320.458Z" fill="white"/>
<path d="M144.498 159.575C144.498 161.247 143.253 162.608 141.717 162.612C140.177 162.617 138.93 161.262 138.93 159.586C138.93 157.909 140.177 156.55 141.717 156.549C143.253 156.547 144.498 157.902 144.498 159.575Z" fill="white"/>
<path opacity="0.48" d="M15.0893 350.362L255.606 332.657L256.83 332.567C258.465 332.446 259.952 331.638 261.088 330.412C243.78 329.464 233.029 323.322 226.095 316.976C212.169 304.231 214.584 291.662 199.567 283.283C180.835 272.831 166.107 286.074 151.893 273.008C143.275 265.085 147.506 259.178 136.902 247.339C125.157 234.226 117.511 238.635 105.708 226.832C90.7843 211.911 98.2493 200.301 85.3931 189.587C69.7979 176.59 52.9795 188.619 38.135 176.155C31.7323 170.779 28.2194 162.963 26.3847 154.652H15.0893C10.7634 154.652 7.24609 158.293 7.24609 162.788V342.804C7.24609 347.297 10.7634 350.681 15.0893 350.362Z" fill="white"/>
<path d="M268.221 331.58L12.5996 350.311L124.056 370.163C125.333 370.39 126.627 370.45 127.915 370.342L392.945 348.156L272.288 331.707C270.937 331.523 269.576 331.48 268.221 331.58Z" fill="url(#paint1_linear_1224_8721)"/>
<path d="M49.8984 350.472L262.711 334.645L328.574 343.552L117.595 360.47L49.8984 350.472Z" fill="#D8DEE8"/>
<path d="M293.414 48.2227L73.3113 40.9896C65.9304 40.7476 59.9219 46.5691 59.9219 53.995V268.516C59.9219 275.942 65.9304 281.706 73.3113 281.39L293.414 271.992C299.78 271.719 304.921 265.942 304.921 259.086V61.0151C304.921 54.1588 299.78 48.4314 293.414 48.2227Z" fill="url(#paint2_linear_1224_8721)"/>
<path opacity="0.74" d="M73.3141 277.115C68.2939 277.322 64.2129 273.399 64.2129 268.351V54.1182C64.2129 49.0705 68.2939 45.1068 73.3141 45.2648L293.416 52.2023C297.753 52.3385 301.26 56.237 301.26 60.9107V259.228C301.26 263.9 297.754 267.834 293.416 268.013L73.3141 277.115Z" fill="white"/>
<path d="M293.414 48.2227L73.3113 40.9896C65.9304 40.7476 59.9219 46.5691 59.9219 53.995V63.6396L304.921 69.9192V61.0136C304.921 54.1588 299.78 48.4314 293.414 48.2227Z" fill="url(#paint3_linear_1224_8721)"/>
<path d="M83.7291 53.3849C83.7291 55.7965 81.7871 57.6993 79.3887 57.6326C76.9858 57.566 75.0352 55.5515 75.0352 53.1328C75.0352 50.714 76.9858 48.8126 79.3887 48.8851C81.7871 48.9575 83.7291 50.972 83.7291 53.3849Z" fill="white"/>
<path d="M98.8828 53.824C98.8828 56.2254 96.9597 58.1181 94.583 58.0514C92.2033 57.9862 90.2715 55.9805 90.2715 53.5733C90.2715 51.1661 92.2033 49.2734 94.583 49.3459C96.9597 49.4198 98.8828 51.4241 98.8828 53.824Z" fill="white"/>
<path d="M113.892 54.2602C113.892 56.65 111.986 58.534 109.632 58.4688C107.276 58.4036 105.361 56.408 105.361 54.0124C105.361 51.6168 107.274 49.7328 109.632 49.8038C111.986 49.8763 113.892 51.8719 113.892 54.2602Z" fill="white"/>
<path d="M191.787 90.481L75.5312 88.3912V95.2273L191.787 97.0678V90.481Z" fill="white"/>
<path d="M279.191 92.0519V98.4503L291.491 98.6445V92.2737L279.191 92.0519Z" fill="white"/>
<path d="M100.109 111.948L75.5312 111.686V104.637L100.109 104.953V111.948Z" fill="white"/>
<path d="M231.41 113.345L115.799 112.115V105.156L231.41 106.643V113.345Z" fill="white"/>
<path d="M139.76 124.167L115.799 124.003V117.044L139.76 117.261V124.167Z" fill="white"/>
<path d="M267.85 125.047L155.061 124.273V117.4L267.85 118.424V125.047Z" fill="white"/>
<path d="M139.76 135.965L115.799 135.891V128.932L139.76 129.058V135.965Z" fill="white"/>
<path d="M267.85 136.358L155.061 136.011V129.139L267.85 129.736V136.358Z" fill="white"/>
<path d="M100.109 147.791L75.5312 147.808V140.759L100.109 140.795V147.791Z" fill="white"/>
<path d="M231.41 147.697L115.799 147.779V140.82L231.41 140.994V147.697Z" fill="white"/>
<path d="M139.76 159.559L115.799 159.667V152.708L139.76 152.653V159.559Z" fill="white"/>
<path d="M267.85 158.983L155.061 159.491V152.618L267.85 152.36V158.983Z" fill="white"/>
<path d="M139.76 171.357L115.799 171.555V164.596L139.76 164.45V171.357Z" fill="white"/>
<path d="M267.85 170.295L155.061 171.229V164.357L267.85 163.673V170.295Z" fill="white"/>
<path d="M139.76 183.154L115.799 183.444V176.483L139.76 176.247V183.154Z" fill="white"/>
<path d="M267.85 181.607L155.061 182.97V176.096L267.85 174.984V181.607Z" fill="white"/>
<path d="M178.793 194.332L155.432 194.703V187.83L178.793 187.511V194.332Z" fill="white"/>
<path d="M285.355 192.642L193.713 194.095V187.309L285.355 186.058V192.642Z" fill="white"/>
<path d="M100.109 207.527L75.5312 208.011V200.962L100.109 200.533V207.527Z" fill="white"/>
<path d="M231.41 204.947L115.799 207.22V200.259L231.41 198.245V204.947Z" fill="white"/>
<path d="M139.76 218.545L115.799 219.108V212.147L139.76 211.64V218.545Z" fill="white"/>
<path d="M267.85 215.544L155.061 218.187V211.315L267.85 208.921V215.544Z" fill="white"/>
<path d="M139.76 230.342L115.799 230.996V224.035L139.76 223.436V230.342Z" fill="white"/>
<path d="M267.85 226.855L155.061 229.926V223.054L267.85 220.234V226.855Z" fill="white"/>
<path d="M100.109 243.369L75.5312 244.132V237.082L100.109 236.375V243.369Z" fill="white"/>
<path d="M231.41 239.298L115.799 242.884V235.923L231.41 232.594V239.298Z" fill="white"/>
<path d="M139.76 253.937L115.799 254.77V247.811L139.76 247.031V253.937Z" fill="white"/>
<path d="M267.85 249.479L155.061 253.405V246.533L267.85 242.858V249.479Z" fill="white"/>
<g opacity="0.5">
<path d="M207.858 130.691C182.15 93.2836 137.654 105.186 109.504 63.8555C104.428 56.4021 100.983 48.8168 98.6208 41.8228L73.3113 40.9909C65.9304 40.7489 59.9219 46.5705 59.9219 53.9964V268.518C59.9219 275.944 65.9304 281.707 73.3113 281.391L285.352 272.336C280.494 265.331 238.186 239.382 227.258 199.54C217.264 163.105 223.369 153.259 207.858 130.691Z" fill="white"/>
</g>
<path d="M339.555 210.534C339.555 188.191 318.945 170.748 294.398 171.547C280.419 172.002 268.255 178.303 260.661 187.607C260.66 187.604 260.66 187.601 260.658 187.598C260.612 187.656 260.567 187.716 260.521 187.774C260.389 187.936 260.263 188.103 260.134 188.266C259.899 188.566 259.669 188.869 259.443 189.175C259.309 189.356 259.179 189.537 259.048 189.722C258.832 190.027 258.621 190.336 258.414 190.646C258.295 190.824 258.174 191.001 258.06 191.181C257.83 191.54 257.606 191.904 257.388 192.271C257.308 192.404 257.225 192.533 257.148 192.668C256.86 193.165 256.583 193.668 256.319 194.176C256.25 194.311 256.185 194.449 256.117 194.585C255.924 194.966 255.735 195.35 255.556 195.739C255.467 195.929 255.385 196.121 255.301 196.313C255.148 196.656 255.002 197.001 254.862 197.349C254.78 197.55 254.699 197.753 254.621 197.958C254.483 198.314 254.354 198.675 254.228 199.036C254.163 199.226 254.095 199.413 254.031 199.604C253.882 200.059 253.743 200.518 253.611 200.979C253.583 201.076 253.551 201.17 253.525 201.268C253.372 201.824 253.233 202.386 253.107 202.953C253.069 203.12 253.038 203.288 253.004 203.456C252.918 203.862 252.838 204.269 252.767 204.679C252.731 204.888 252.699 205.098 252.667 205.308C252.609 205.688 252.557 206.069 252.511 206.451C252.485 206.666 252.46 206.882 252.438 207.098C252.398 207.502 252.366 207.908 252.338 208.315C252.325 208.505 252.309 208.693 252.299 208.883C252.269 209.479 252.25 210.076 252.25 210.679C252.25 225.016 260.934 237.664 273.952 244.436C275.149 245.059 276.384 245.633 277.652 246.153C278.287 246.414 278.93 246.662 279.583 246.897C284.165 248.543 289.153 249.518 294.398 249.672C295.121 249.694 295.84 249.697 296.556 249.686C296.798 249.684 297.036 249.669 297.278 249.662C297.75 249.649 298.224 249.634 298.694 249.607C298.981 249.591 299.265 249.565 299.552 249.543C299.972 249.511 300.391 249.479 300.808 249.437C301.114 249.407 301.415 249.368 301.72 249.331C302.114 249.284 302.507 249.234 302.898 249.178C303.209 249.133 303.52 249.081 303.83 249.03C304.208 248.968 304.585 248.902 304.96 248.83C305.275 248.771 305.586 248.707 305.898 248.64C306.264 248.562 306.63 248.481 306.993 248.395C307.305 248.321 307.617 248.246 307.925 248.166C308.285 248.073 308.641 247.975 308.996 247.875C309.302 247.788 309.608 247.701 309.911 247.61C310.022 247.575 310.137 247.546 310.248 247.511C310.245 247.508 310.244 247.505 310.241 247.502C327.22 242.181 339.555 227.76 339.555 210.534Z" fill="url(#paint4_linear_1224_8721)"/>
<path d="M336.181 210.54C336.181 232.826 315.676 250.292 291.252 249.579C267.737 248.892 249.309 231.488 249.309 210.683C249.309 189.878 267.737 172.413 291.252 171.648C315.676 170.855 336.181 188.253 336.181 210.54Z" fill="url(#paint5_linear_1224_8721)"/>
<path d="M280.23 221.334L262.793 212.46V209.602L280.23 199.505V204.369L268.167 210.812L280.23 216.489V221.334Z" fill="white"/>
<path d="M298.779 195.566L288.862 225.536L283.881 225.486L293.72 195.634L298.779 195.566Z" fill="white"/>
<path d="M302.465 216.557L315.208 210.741L302.465 204.221V199.271L321.05 209.456V212.448L302.465 221.487V216.557Z" fill="white"/>
<g opacity="0.3">
<path d="M301.875 239.881C296.575 228.212 301.933 217.429 294.777 209.946C287.589 202.428 278.369 209.456 268.596 203.44C264.859 201.14 260.73 196.737 257.678 187.659C252.414 194.121 249.309 202.089 249.309 210.683C249.309 231.488 267.737 248.892 291.252 249.579C296.765 249.74 302.084 248.972 307.021 247.421C304.582 244.879 302.972 242.298 301.875 239.881Z" fill="url(#paint6_linear_1224_8721)"/>
</g>
<path d="M147.523 180.181C151.542 175.892 140.418 159.773 134.464 152.711C129.263 146.542 123.917 140.2 117.352 141.003C111.588 141.707 105.979 147.787 105.643 153.612C104.739 169.284 141.812 186.28 147.523 180.181Z" fill="url(#paint7_linear_1224_8721)"/>
<path d="M99.2775 345.805C98.521 346.42 98.3818 347.956 98.2905 348.959C98.2499 349.407 98.2297 349.631 98.2789 349.789C98.6441 350.944 100.885 351.066 104.398 351.426C109.95 351.992 111.6 352.43 112.035 351.604C112.442 350.83 111.457 349.562 111.347 349.423C110.75 348.672 110.018 348.398 108.603 347.931C105.985 347.069 104.215 346.597 103.679 346.455C100.334 345.56 99.7745 345.401 99.2775 345.805Z" fill="url(#paint8_linear_1224_8721)"/>
<path d="M102.578 340.733L103.133 347.059C102.975 347.365 101.095 348.281 99.6013 347.495L98.1738 341.277L102.578 340.733Z" fill="url(#paint9_linear_1224_8721)"/>
<path d="M143.304 344.992C142.397 345.994 142.191 347.837 142.979 348.746C143.755 349.639 144.92 348.969 148.224 349.068C151.764 349.173 152.688 350.01 155.093 349.346C156.066 349.078 157.782 348.426 157.748 347.731C157.725 347.243 156.851 346.991 153.933 346.014C149.791 344.627 149.808 344.55 148.928 344.405C146.72 344.037 144.501 343.671 143.304 344.992Z" fill="url(#paint10_linear_1224_8721)"/>
<path d="M145.572 339.219L147.347 345.124C147.212 345.442 145.408 346.498 143.859 345.829L141.223 340.097L145.572 339.219Z" fill="url(#paint11_linear_1224_8721)"/>
<path d="M129.795 209.876C130.05 229.723 131.403 252.04 134.653 276.284C137.864 300.247 142.365 321.899 147.275 340.937C145.01 341.548 142.745 342.156 140.48 342.766C134.734 337.407 127.483 328.973 123.985 317.053C121.814 309.654 122.537 305.851 121.16 296.752C118.968 282.262 114.526 274.671 109.936 262.988C105.811 252.488 100.935 237.08 98.3203 216.482C108.813 214.279 119.304 212.077 129.795 209.876Z" fill="#26264F"/>
<path d="M109.353 207.982C107.966 233.225 106.827 258.937 105.962 285.106C105.312 304.741 104.837 324.129 104.521 343.262C102.207 343.547 99.8937 343.833 97.5793 344.118C95.3431 339.956 92.3736 333.591 90.3404 325.435C87.8694 315.528 88.4419 309.646 87.3579 299.378C86.1419 287.862 84.3768 285.354 81.2479 270.825C74.8988 241.342 71.7235 226.6 78.8059 217.431C81.1044 214.454 88.3129 206.986 109.353 207.982Z" fill="#26264F"/>
<path d="M75.6286 144.54C81.0473 143.017 88.9891 141.235 98.7149 140.685C112.587 139.901 119.523 139.509 124.437 142.813C135.789 150.443 127.001 168.051 131.647 211.703C132.311 217.937 132.46 224.215 132.94 230.467C133.736 240.816 133.917 241.378 133.197 242.426C128.681 249.002 111.833 239.082 87.1399 243.004C73.3229 245.198 67.0579 250.252 63.2725 246.607C58.8581 242.355 62.6449 230.92 65.9043 221.077C69.6462 209.777 71.9563 209.633 74.0809 201.123C76.3011 192.229 74.9576 187.649 74.6127 173.623C74.449 166.911 74.4837 156.924 75.6286 144.54Z" fill="url(#paint12_linear_1224_8721)"/>
<path d="M109.209 226.49C102.756 225.986 98.5691 229.633 92.9968 226.79C85.3578 222.89 82.9028 210.759 83.3898 202.172C84.1289 189.126 91.5794 185.687 90.2954 177.254C89.6012 172.693 86.3448 166.638 74.6538 160.453C74.4973 165.66 74.5277 170.097 74.6147 173.622C74.961 187.648 76.303 192.227 74.0828 201.121C71.9597 209.631 69.6481 209.776 65.9062 221.076C62.6469 230.919 58.8601 242.355 63.2744 246.605C67.0598 250.25 73.3263 245.197 87.1418 243.003C108.419 239.624 123.863 246.513 130.619 244.278C122.455 230.786 115.05 226.948 109.209 226.49Z" fill="url(#paint13_linear_1224_8721)"/>
<path d="M84.4314 145.436C79.8214 141.649 70.5535 145.936 68.0768 147.082C54.2612 153.473 41.8558 170.695 44.9296 188.894C45.3905 191.623 47.5281 204.391 58.3379 210.576C68.0927 216.157 81.2634 214.722 91.8167 206.817C93.2587 205.537 94.7006 204.257 96.1441 202.978C97.5629 201.444 98.9817 199.911 100.4 198.376C98.1701 196.521 94.3804 193.845 89.0588 192.127C82.0416 189.864 76.933 193.926 73.6781 190.837C71.4318 188.706 71.426 184.941 71.981 182.658C73.0998 178.06 77.1533 176.765 80.5373 173.502C88.4863 165.832 89.9501 149.971 84.4314 145.436Z" fill="url(#paint14_linear_1224_8721)"/>
<path d="M150.678 204.849L88.8945 203.927L105.324 211.856L150.836 208.877L150.678 204.849Z" fill="url(#paint15_linear_1224_8721)"/>
<path d="M86.7129 205.569C86.7129 206.725 87.4361 207.759 88.523 208.153L108.264 215.892L108.354 210.527L88.8925 203.927C87.8013 203.612 86.7129 204.433 86.7129 205.569Z" fill="url(#paint16_linear_1224_8721)"/>
<path d="M96.2205 201.913C95.8408 201.828 98.0683 197.391 99.816 197.904C101.564 198.416 110.113 203.37 110.89 205.41C111.666 207.45 111.666 207.45 111.666 207.45C111.666 207.45 107.938 207.741 105.625 206.965C103.312 206.188 99.3045 202.601 96.2205 201.913Z" fill="url(#paint17_linear_1224_8721)"/>
<path d="M99.7548 125.529C99.7895 129.642 99.3301 132.903 98.8968 135.136C98.3997 137.695 98.0418 138.356 97.5838 138.893C96.8954 139.7 95.852 140.378 89.9594 141.839C86.7522 142.634 86.3407 142.613 86.2696 142.93C85.9247 144.482 94.6694 149.773 103.702 148.498C109.231 147.718 114.262 144.563 113.953 142.907C113.643 141.24 108.12 142.134 106.473 139.119C105.329 137.02 106.613 134.042 108.13 131.575C106.66 128.822 101.224 128.283 99.7548 125.529Z" fill="url(#paint18_linear_1224_8721)"/>
<path d="M110.016 127.155C111.32 125.422 111.401 122.396 109.897 120.483C108.603 118.837 106.567 118.602 105.348 118.461C101.816 118.054 97.3582 119.528 95.809 122.779C94.8901 124.705 96.8771 128.709 97.1886 129.428C97.5408 130.241 98.1799 130.52 98.7712 131.136C99.59 131.99 100.873 133.346 102.965 135.616C103.128 134.946 103.375 134.117 103.768 133.219C103.919 132.872 104.526 131.522 105.445 130.403C107.287 128.157 108.78 128.797 110.016 127.155Z" fill="#26264F"/>
<path d="M99.9825 133.707C99.9825 133.707 102.304 137.517 106.929 137.216C111.068 136.946 111.675 127.664 109.03 125.693C108.147 125.036 106.381 124.763 104.945 125.165C104.097 125.403 103.808 125.755 102.416 126.118C101.13 126.451 100.767 126.309 100.378 126.635C99.8926 127.044 99.5376 128.045 100.348 130.759C99.5578 129.959 98.61 129.652 97.9376 129.97C97.8304 130.02 97.5463 130.213 97.3869 130.507C96.8087 131.567 97.7767 132.922 99.9825 133.707Z" fill="url(#paint19_linear_1224_8721)"/>
<path d="M100.188 126.08C100.388 126.229 99.7783 126.974 99.7319 128.028C99.6435 130.074 101.714 132.53 103.827 132.739C105.077 132.862 105.42 132.109 107.485 131.891C108.764 131.756 109.829 131.919 110.498 132.065C111.148 134.31 110.536 136.546 109.036 137.585C107.422 138.703 105.358 138.024 104.496 137.742C103.919 137.552 102.069 136.948 101.103 135.252C100.096 133.485 101.084 132.42 99.929 131.225C99.3464 130.622 98.5812 130.361 97.8363 129.194C97.6334 128.877 97.4986 128.597 97.416 128.409C98.4855 127.275 99.9 125.864 100.188 126.08Z" fill="#26264F"/>
<path d="M106.73 133.924C106.73 133.924 107.624 133.458 109.169 133.545C109.245 133.549 109.327 133.527 109.337 133.488C109.372 133.342 108.382 132.684 107.468 132.942C106.82 133.125 106.314 133.738 106.403 133.894C106.439 133.959 106.587 133.951 106.73 133.924Z" fill="white"/>
<path d="M109.988 172.88L105.633 212.532C105.483 213.9 107.399 215.94 108.774 215.874L172.662 211.953C173.711 211.903 174.586 211.13 174.763 210.095L182.782 171.797C183.021 170.403 180.515 168.964 179.102 169.003L112.152 170.886C111.033 170.916 110.11 171.767 109.988 172.88Z" fill="url(#paint20_linear_1224_8721)"/>
<path d="M111.447 174.035L107.092 213.687C106.941 215.056 108.05 216.234 109.424 216.17L174.119 213.108C175.168 213.059 176.042 212.285 176.22 211.25L182.83 172.777C183.069 171.383 181.974 170.119 180.559 170.158L113.609 172.041C112.492 172.073 111.569 172.923 111.447 174.035Z" fill="url(#paint21_linear_1224_8721)"/>
<path opacity="0.3" d="M149.438 203.817C143.788 201.423 145.783 196.856 139.112 191.168C130.312 183.662 121.341 186.917 118.202 181.1C117.224 179.289 116.757 176.468 118.46 171.906L113.612 172.042C112.495 172.074 111.571 172.925 111.449 174.036L107.094 213.689C106.943 215.057 108.052 216.235 109.426 216.172L174.121 213.109C175.17 213.06 176.044 212.288 176.222 211.251L177.134 205.943C175.172 204.85 172.825 203.857 170.088 203.302C160.598 201.375 155.94 206.573 149.438 203.817Z" fill="url(#paint22_linear_1224_8721)"/>
<path d="M178.198 207.562C178.304 207.243 178.081 206.914 177.744 206.896C176.378 206.827 173.205 206.798 171.455 207.87C169.181 209.263 166.24 211.805 168.716 213.087L171.029 214.286C171.134 214.341 171.25 214.358 171.368 214.332C172.189 214.151 175.647 213.385 176.026 213.193C176.371 213.021 177.689 209.108 178.198 207.562Z" fill="url(#paint23_linear_1224_8721)"/>
<path d="M371.607 77.2363C371.607 40.3954 337.625 11.6353 297.149 12.9527C274.099 13.7019 254.045 24.0929 241.523 39.4331C241.522 39.4287 241.52 39.4244 241.519 39.42C241.441 39.5157 241.368 39.6142 241.292 39.7099C241.076 39.978 240.865 40.2519 240.654 40.5229C240.267 41.0171 239.886 41.5156 239.515 42.0214C239.296 42.32 239.08 42.6199 238.865 42.9214C238.509 43.4243 238.16 43.9344 237.818 44.4474C237.622 44.7416 237.425 45.0329 237.234 45.33C236.853 45.9227 236.486 46.5227 236.125 47.1271C235.995 47.3459 235.857 47.5604 235.729 47.7807C235.254 48.5995 234.799 49.4284 234.361 50.2675C234.245 50.4907 234.14 50.7168 234.027 50.9414C233.709 51.5704 233.399 52.2037 233.103 52.8428C232.958 53.1559 232.821 53.4733 232.682 53.7892C232.432 54.3558 232.189 54.9239 231.957 55.4978C231.822 55.8312 231.689 56.1645 231.56 56.5007C231.334 57.0891 231.119 57.6833 230.912 58.2789C230.803 58.5905 230.692 58.9006 230.587 59.2151C230.341 59.9658 230.111 60.7223 229.893 61.4832C229.848 61.6426 229.796 61.7991 229.751 61.9585C229.498 62.8773 229.269 63.8048 229.06 64.7381C228.998 65.0135 228.948 65.2918 228.89 65.5671C228.75 66.2367 228.618 66.9076 228.502 67.5844C228.443 67.9293 228.39 68.2757 228.337 68.6221C228.241 69.2482 228.154 69.8771 228.079 70.5075C228.037 70.8612 227.995 71.2162 227.959 71.5727C227.89 72.2379 227.838 72.9089 227.793 73.5799C227.773 73.8929 227.746 74.2031 227.73 74.5176C227.68 75.4987 227.648 76.4842 227.648 77.4769C227.648 101.118 241.967 121.971 263.431 133.136C265.405 134.162 267.441 135.109 269.533 135.968C270.581 136.398 271.641 136.807 272.717 137.193C280.273 139.907 288.497 141.516 297.146 141.769C298.338 141.804 299.523 141.81 300.703 141.792C301.101 141.787 301.496 141.765 301.893 141.753C302.672 141.73 303.453 141.707 304.229 141.662C304.703 141.634 305.171 141.592 305.643 141.556C306.335 141.504 307.027 141.452 307.714 141.381C308.217 141.33 308.716 141.266 309.217 141.205C309.866 141.127 310.516 141.046 311.159 140.952C311.674 140.877 312.184 140.792 312.695 140.707C313.318 140.603 313.94 140.495 314.559 140.378C315.076 140.279 315.591 140.174 316.104 140.065C316.708 139.937 317.311 139.803 317.91 139.661C318.424 139.539 318.936 139.414 319.446 139.282C320.039 139.13 320.625 138.968 321.212 138.801C321.717 138.658 322.221 138.516 322.721 138.364C322.905 138.307 323.095 138.259 323.278 138.201C323.273 138.197 323.269 138.193 323.266 138.188C351.27 129.417 371.607 105.638 371.607 77.2363Z" fill="url(#paint24_linear_1224_8721)"/>
<path d="M366.045 77.2464C366.045 113.992 332.236 142.792 291.964 141.616C253.191 140.482 222.805 111.786 222.805 77.4826C222.805 43.1793 253.191 14.3816 291.964 13.1207C332.236 11.8106 366.045 40.4996 366.045 77.2464Z" fill="url(#paint25_linear_1224_8721)"/>
<path d="M263.651 111.408C261.283 111.367 259.225 111.073 257.475 110.528V101.46C259.27 101.95 260.911 102.204 262.398 102.221C264.7 102.249 266.354 101.52 267.351 100.033C268.35 98.5458 268.85 96.2082 268.85 93.0228V44.5343L279.487 44.2836V93.0155C279.487 99.0951 278.141 103.709 275.457 106.85C272.781 109.982 268.839 111.498 263.651 111.408Z" fill="white"/>
<path d="M331.379 90.3475C331.379 96.0053 329.346 100.443 325.293 103.649C321.259 106.838 315.68 108.375 308.584 108.269C302.101 108.172 296.406 106.854 291.486 104.33V92.2735C295.528 94.1416 298.966 95.4677 301.79 96.2473C304.625 97.0285 307.224 97.4314 309.587 97.4502C312.432 97.4748 314.622 96.9415 316.151 95.8488C317.683 94.7546 318.448 93.1155 318.448 90.9315C318.448 89.7127 318.11 88.6273 317.435 87.6751C316.761 86.723 315.771 85.8085 314.467 84.9303C313.165 84.0535 310.521 82.655 306.542 80.7405C302.831 78.9754 300.06 77.2841 298.218 75.6668C296.38 74.0523 294.912 72.1727 293.82 70.0278C292.728 67.8844 292.182 65.3772 292.182 62.5019C292.182 57.0847 293.979 52.795 297.58 49.6197C301.198 46.4314 306.226 44.7575 312.686 44.6097C315.878 44.5358 318.935 44.8488 321.855 45.5503C324.785 46.2531 327.859 47.2719 331.082 48.6023L326.808 58.9919C323.49 57.6746 320.755 56.763 318.599 56.2586C316.448 55.7558 314.339 55.521 312.267 55.5543C309.813 55.5949 307.935 56.2021 306.628 57.3789C305.324 58.5542 304.674 60.0672 304.674 61.9237C304.674 63.0773 304.938 64.0787 305.464 64.9323C305.99 65.7859 306.831 66.6076 307.983 67.3989C309.137 68.1916 311.876 69.6148 316.216 71.6756C321.99 74.4219 325.971 77.2001 328.132 80.0014C330.294 82.8101 331.379 86.2607 331.379 90.3475Z" fill="white"/>
<g opacity="0.2">
<path d="M309.479 125.625C300.74 106.385 309.575 88.607 297.775 76.2668C285.923 63.8715 270.721 75.4581 254.607 65.5395C248.445 61.7469 241.636 54.4891 236.604 39.5186C227.925 50.1733 222.805 63.3121 222.805 77.4827C222.805 111.786 253.191 140.484 291.964 141.616C301.055 141.881 309.824 140.614 317.963 138.058C313.943 133.867 311.289 129.61 309.479 125.625Z" fill="url(#paint26_linear_1224_8721)"/>
</g>
<defs>
<linearGradient id="paint0_linear_1224_8721" x1="99.4506" y1="136.392" x2="435.082" y2="139.843" gradientUnits="userSpaceOnUse">
<stop stop-color="#FF9085"/>
<stop offset="1" stop-color="#FB6FBB"/>
</linearGradient>
<linearGradient id="paint1_linear_1224_8721" x1="12.5991" y1="350.961" x2="392.944" y2="350.961" gradientUnits="userSpaceOnUse">
<stop offset="0.494" stop-color="#EBEFF2"/>
<stop offset="1" stop-color="white"/>
</linearGradient>
<linearGradient id="paint2_linear_1224_8721" x1="264.564" y1="-7.71213" x2="26.0275" y2="469.36" gradientUnits="userSpaceOnUse">
<stop offset="0.00359712" stop-color="#E38DDD"/>
<stop offset="1" stop-color="#9571F6"/>
</linearGradient>
<linearGradient id="paint3_linear_1224_8721" x1="161.396" y1="-22.6111" x2="202.843" y2="143.176" gradientUnits="userSpaceOnUse">
<stop offset="0.00359712" stop-color="#E38DDD"/>
<stop offset="1" stop-color="#9571F6"/>
</linearGradient>
<linearGradient id="paint4_linear_1224_8721" x1="237.96" y1="94.2932" x2="302.391" y2="223.59" gradientUnits="userSpaceOnUse">
<stop stop-color="#311944"/>
<stop offset="1" stop-color="#893976"/>
</linearGradient>
<linearGradient id="paint5_linear_1224_8721" x1="275.85" y1="179.22" x2="338.432" y2="295.291" gradientUnits="userSpaceOnUse">
<stop stop-color="#FF9085"/>
<stop offset="1" stop-color="#FB6FBB"/>
</linearGradient>
<linearGradient id="paint6_linear_1224_8721" x1="258.664" y1="186.933" x2="319.461" y2="308.938" gradientUnits="userSpaceOnUse">
<stop stop-color="#FF9085"/>
<stop offset="1" stop-color="#FB6FBB"/>
</linearGradient>
<linearGradient id="paint7_linear_1224_8721" x1="137.214" y1="116.696" x2="91.0271" y2="338.139" gradientUnits="userSpaceOnUse">
<stop stop-color="#AA80F9"/>
<stop offset="0.9964" stop-color="#6165D7"/>
</linearGradient>
<linearGradient id="paint8_linear_1224_8721" x1="112.062" y1="348.635" x2="98.2355" y2="349.034" gradientUnits="userSpaceOnUse">
<stop stop-color="#444B8C"/>
<stop offset="0.9964" stop-color="#26264F"/>
</linearGradient>
<linearGradient id="paint9_linear_1224_8721" x1="103.134" y1="344.27" x2="98.1751" y2="344.27" gradientUnits="userSpaceOnUse">
<stop stop-color="#FFC444"/>
<stop offset="0.9964" stop-color="#F36F56"/>
</linearGradient>
<linearGradient id="paint10_linear_1224_8721" x1="156.961" y1="344.827" x2="142.791" y2="348.723" gradientUnits="userSpaceOnUse">
<stop stop-color="#444B8C"/>
<stop offset="0.9964" stop-color="#26264F"/>
</linearGradient>
<linearGradient id="paint11_linear_1224_8721" x1="147.348" y1="342.633" x2="141.223" y2="342.633" gradientUnits="userSpaceOnUse">
<stop stop-color="#FFC444"/>
<stop offset="0.9964" stop-color="#F36F56"/>
</linearGradient>
<linearGradient id="paint12_linear_1224_8721" x1="121.224" y1="113.36" x2="75.0369" y2="334.803" gradientUnits="userSpaceOnUse">
<stop stop-color="#AA80F9"/>
<stop offset="0.9964" stop-color="#6165D7"/>
</linearGradient>
<linearGradient id="paint13_linear_1224_8721" x1="81.5038" y1="302.746" x2="99.0328" y2="219.484" gradientUnits="userSpaceOnUse">
<stop stop-color="#AA80F9"/>
<stop offset="0.9964" stop-color="#6165D7"/>
</linearGradient>
<linearGradient id="paint14_linear_1224_8721" x1="89.5826" y1="106.761" x2="43.3958" y2="328.204" gradientUnits="userSpaceOnUse">
<stop stop-color="#AA80F9"/>
<stop offset="0.9964" stop-color="#6165D7"/>
</linearGradient>
<linearGradient id="paint15_linear_1224_8721" x1="128.965" y1="230.392" x2="121.491" y2="209.216" gradientUnits="userSpaceOnUse">
<stop stop-color="#311944"/>
<stop offset="1" stop-color="#893976"/>
</linearGradient>
<linearGradient id="paint16_linear_1224_8721" x1="96.3125" y1="199.711" x2="99.0529" y2="218.645" gradientUnits="userSpaceOnUse">
<stop stop-color="#311944"/>
<stop offset="1" stop-color="#893976"/>
</linearGradient>
<linearGradient id="paint17_linear_1224_8721" x1="111.666" y1="202.683" x2="96.1782" y2="202.683" gradientUnits="userSpaceOnUse">
<stop stop-color="#FFC444"/>
<stop offset="0.9964" stop-color="#F36F56"/>
</linearGradient>
<linearGradient id="paint18_linear_1224_8721" x1="100.011" y1="135.911" x2="100.56" y2="174.062" gradientUnits="userSpaceOnUse">
<stop stop-color="#FFC444"/>
<stop offset="0.9964" stop-color="#F36F56"/>
</linearGradient>
<linearGradient id="paint19_linear_1224_8721" x1="104.309" y1="127.37" x2="102.212" y2="147.731" gradientUnits="userSpaceOnUse">
<stop stop-color="#FFC444"/>
<stop offset="0.9964" stop-color="#F36F56"/>
</linearGradient>
<linearGradient id="paint20_linear_1224_8721" x1="150.608" y1="201.369" x2="136.036" y2="180.678" gradientUnits="userSpaceOnUse">
<stop stop-color="#444B8C"/>
<stop offset="0.9964" stop-color="#26264F"/>
</linearGradient>
<linearGradient id="paint21_linear_1224_8721" x1="122.655" y1="235.613" x2="154.544" y2="170.839" gradientUnits="userSpaceOnUse">
<stop stop-color="#311944"/>
<stop offset="1" stop-color="#893976"/>
</linearGradient>
<linearGradient id="paint22_linear_1224_8721" x1="107.079" y1="194.039" x2="177.134" y2="194.039" gradientUnits="userSpaceOnUse">
<stop stop-color="#311944"/>
<stop offset="1" stop-color="#893976"/>
</linearGradient>
<linearGradient id="paint23_linear_1224_8721" x1="178.225" y1="210.606" x2="167.776" y2="210.606" gradientUnits="userSpaceOnUse">
<stop stop-color="#FFC444"/>
<stop offset="0.9964" stop-color="#F36F56"/>
</linearGradient>
<linearGradient id="paint24_linear_1224_8721" x1="204.094" y1="-114.427" x2="310.33" y2="98.7639" gradientUnits="userSpaceOnUse">
<stop stop-color="#FFC444"/>
<stop offset="0.9964" stop-color="#F36F56"/>
</linearGradient>
<linearGradient id="paint25_linear_1224_8721" x1="266.569" y1="25.6036" x2="369.757" y2="216.987" gradientUnits="userSpaceOnUse">
<stop stop-color="#FFC444"/>
<stop offset="0.9964" stop-color="#F36F56"/>
</linearGradient>
<linearGradient id="paint26_linear_1224_8721" x1="238.231" y1="38.3223" x2="338.475" y2="239.488" gradientUnits="userSpaceOnUse">
<stop stop-color="#FFC444"/>
<stop offset="0.9964" stop-color="#F36F56"/>
</linearGradient>
</defs>
</svg>
